%TF.GenerationSoftware,KiCad,Pcbnew,8.0.4*%
%TF.CreationDate,2024-09-30T21:28:59-06:00*%
%TF.ProjectId,right_finished,72696768-745f-4666-996e-69736865642e,v1.0.0*%
%TF.SameCoordinates,Original*%
%TF.FileFunction,Legend,Bot*%
%TF.FilePolarity,Positive*%
%FSLAX46Y46*%
G04 Gerber Fmt 4.6, Leading zero omitted, Abs format (unit mm)*
G04 Created by KiCad (PCBNEW 8.0.4) date 2024-09-30 21:28:59*
%MOMM*%
%LPD*%
G01*
G04 APERTURE LIST*
%ADD10C,0.150000*%
%ADD11C,0.100000*%
%ADD12C,0.120000*%
%ADD13C,0.381000*%
%ADD14C,1.752600*%
G04 APERTURE END LIST*
D10*
X241579121Y-68302027D02*
X242036264Y-68302027D01*
X241807692Y-68302027D02*
X241807692Y-67502027D01*
X241807692Y-67502027D02*
X241883883Y-67616312D01*
X241883883Y-67616312D02*
X241960073Y-67692503D01*
X241960073Y-67692503D02*
X242036264Y-67730598D01*
X241083882Y-67502027D02*
X241007692Y-67502027D01*
X241007692Y-67502027D02*
X240931501Y-67540122D01*
X240931501Y-67540122D02*
X240893406Y-67578217D01*
X240893406Y-67578217D02*
X240855311Y-67654408D01*
X240855311Y-67654408D02*
X240817216Y-67806789D01*
X240817216Y-67806789D02*
X240817216Y-67997265D01*
X240817216Y-67997265D02*
X240855311Y-68149646D01*
X240855311Y-68149646D02*
X240893406Y-68225836D01*
X240893406Y-68225836D02*
X240931501Y-68263932D01*
X240931501Y-68263932D02*
X241007692Y-68302027D01*
X241007692Y-68302027D02*
X241083882Y-68302027D01*
X241083882Y-68302027D02*
X241160073Y-68263932D01*
X241160073Y-68263932D02*
X241198168Y-68225836D01*
X241198168Y-68225836D02*
X241236263Y-68149646D01*
X241236263Y-68149646D02*
X241274359Y-67997265D01*
X241274359Y-67997265D02*
X241274359Y-67806789D01*
X241274359Y-67806789D02*
X241236263Y-67654408D01*
X241236263Y-67654408D02*
X241198168Y-67578217D01*
X241198168Y-67578217D02*
X241160073Y-67540122D01*
X241160073Y-67540122D02*
X241083882Y-67502027D01*
X240131501Y-67768693D02*
X240131501Y-68302027D01*
X240321977Y-67463932D02*
X240512454Y-68035360D01*
X240512454Y-68035360D02*
X240017215Y-68035360D01*
X241845787Y-42102027D02*
X241769597Y-42102027D01*
X241769597Y-42102027D02*
X241693406Y-42140122D01*
X241693406Y-42140122D02*
X241655311Y-42178217D01*
X241655311Y-42178217D02*
X241617216Y-42254408D01*
X241617216Y-42254408D02*
X241579121Y-42406789D01*
X241579121Y-42406789D02*
X241579121Y-42597265D01*
X241579121Y-42597265D02*
X241617216Y-42749646D01*
X241617216Y-42749646D02*
X241655311Y-42825836D01*
X241655311Y-42825836D02*
X241693406Y-42863932D01*
X241693406Y-42863932D02*
X241769597Y-42902027D01*
X241769597Y-42902027D02*
X241845787Y-42902027D01*
X241845787Y-42902027D02*
X241921978Y-42863932D01*
X241921978Y-42863932D02*
X241960073Y-42825836D01*
X241960073Y-42825836D02*
X241998168Y-42749646D01*
X241998168Y-42749646D02*
X242036264Y-42597265D01*
X242036264Y-42597265D02*
X242036264Y-42406789D01*
X242036264Y-42406789D02*
X241998168Y-42254408D01*
X241998168Y-42254408D02*
X241960073Y-42178217D01*
X241960073Y-42178217D02*
X241921978Y-42140122D01*
X241921978Y-42140122D02*
X241845787Y-42102027D01*
X241083882Y-42102027D02*
X241007692Y-42102027D01*
X241007692Y-42102027D02*
X240931501Y-42140122D01*
X240931501Y-42140122D02*
X240893406Y-42178217D01*
X240893406Y-42178217D02*
X240855311Y-42254408D01*
X240855311Y-42254408D02*
X240817216Y-42406789D01*
X240817216Y-42406789D02*
X240817216Y-42597265D01*
X240817216Y-42597265D02*
X240855311Y-42749646D01*
X240855311Y-42749646D02*
X240893406Y-42825836D01*
X240893406Y-42825836D02*
X240931501Y-42863932D01*
X240931501Y-42863932D02*
X241007692Y-42902027D01*
X241007692Y-42902027D02*
X241083882Y-42902027D01*
X241083882Y-42902027D02*
X241160073Y-42863932D01*
X241160073Y-42863932D02*
X241198168Y-42825836D01*
X241198168Y-42825836D02*
X241236263Y-42749646D01*
X241236263Y-42749646D02*
X241274359Y-42597265D01*
X241274359Y-42597265D02*
X241274359Y-42406789D01*
X241274359Y-42406789D02*
X241236263Y-42254408D01*
X241236263Y-42254408D02*
X241198168Y-42178217D01*
X241198168Y-42178217D02*
X241160073Y-42140122D01*
X241160073Y-42140122D02*
X241083882Y-42102027D01*
X240131501Y-42102027D02*
X240283882Y-42102027D01*
X240283882Y-42102027D02*
X240360073Y-42140122D01*
X240360073Y-42140122D02*
X240398168Y-42178217D01*
X240398168Y-42178217D02*
X240474358Y-42292503D01*
X240474358Y-42292503D02*
X240512454Y-42444884D01*
X240512454Y-42444884D02*
X240512454Y-42749646D01*
X240512454Y-42749646D02*
X240474358Y-42825836D01*
X240474358Y-42825836D02*
X240436263Y-42863932D01*
X240436263Y-42863932D02*
X240360073Y-42902027D01*
X240360073Y-42902027D02*
X240207692Y-42902027D01*
X240207692Y-42902027D02*
X240131501Y-42863932D01*
X240131501Y-42863932D02*
X240093406Y-42825836D01*
X240093406Y-42825836D02*
X240055311Y-42749646D01*
X240055311Y-42749646D02*
X240055311Y-42559170D01*
X240055311Y-42559170D02*
X240093406Y-42482979D01*
X240093406Y-42482979D02*
X240131501Y-42444884D01*
X240131501Y-42444884D02*
X240207692Y-42406789D01*
X240207692Y-42406789D02*
X240360073Y-42406789D01*
X240360073Y-42406789D02*
X240436263Y-42444884D01*
X240436263Y-42444884D02*
X240474358Y-42482979D01*
X240474358Y-42482979D02*
X240512454Y-42559170D01*
X252920167Y-52262025D02*
X252843977Y-52262025D01*
X252843977Y-52262025D02*
X252767786Y-52300120D01*
X252767786Y-52300120D02*
X252729691Y-52338215D01*
X252729691Y-52338215D02*
X252691596Y-52414406D01*
X252691596Y-52414406D02*
X252653501Y-52566787D01*
X252653501Y-52566787D02*
X252653501Y-52757263D01*
X252653501Y-52757263D02*
X252691596Y-52909644D01*
X252691596Y-52909644D02*
X252729691Y-52985834D01*
X252729691Y-52985834D02*
X252767786Y-53023930D01*
X252767786Y-53023930D02*
X252843977Y-53062025D01*
X252843977Y-53062025D02*
X252920167Y-53062025D01*
X252920167Y-53062025D02*
X252996358Y-53023930D01*
X252996358Y-53023930D02*
X253034453Y-52985834D01*
X253034453Y-52985834D02*
X253072548Y-52909644D01*
X253072548Y-52909644D02*
X253110644Y-52757263D01*
X253110644Y-52757263D02*
X253110644Y-52566787D01*
X253110644Y-52566787D02*
X253072548Y-52414406D01*
X253072548Y-52414406D02*
X253034453Y-52338215D01*
X253034453Y-52338215D02*
X252996358Y-52300120D01*
X252996358Y-52300120D02*
X252920167Y-52262025D01*
X252386834Y-52262025D02*
X251891596Y-52262025D01*
X251891596Y-52262025D02*
X252158262Y-52566787D01*
X252158262Y-52566787D02*
X252043977Y-52566787D01*
X252043977Y-52566787D02*
X251967786Y-52604882D01*
X251967786Y-52604882D02*
X251929691Y-52642977D01*
X251929691Y-52642977D02*
X251891596Y-52719168D01*
X251891596Y-52719168D02*
X251891596Y-52909644D01*
X251891596Y-52909644D02*
X251929691Y-52985834D01*
X251929691Y-52985834D02*
X251967786Y-53023930D01*
X251967786Y-53023930D02*
X252043977Y-53062025D01*
X252043977Y-53062025D02*
X252272548Y-53062025D01*
X252272548Y-53062025D02*
X252348739Y-53023930D01*
X252348739Y-53023930D02*
X252386834Y-52985834D01*
X251129691Y-53062025D02*
X251586834Y-53062025D01*
X251358262Y-53062025D02*
X251358262Y-52262025D01*
X251358262Y-52262025D02*
X251434453Y-52376310D01*
X251434453Y-52376310D02*
X251510643Y-52452501D01*
X251510643Y-52452501D02*
X251586834Y-52490596D01*
X241845787Y-54872027D02*
X241769597Y-54872027D01*
X241769597Y-54872027D02*
X241693406Y-54910122D01*
X241693406Y-54910122D02*
X241655311Y-54948217D01*
X241655311Y-54948217D02*
X241617216Y-55024408D01*
X241617216Y-55024408D02*
X241579121Y-55176789D01*
X241579121Y-55176789D02*
X241579121Y-55367265D01*
X241579121Y-55367265D02*
X241617216Y-55519646D01*
X241617216Y-55519646D02*
X241655311Y-55595836D01*
X241655311Y-55595836D02*
X241693406Y-55633932D01*
X241693406Y-55633932D02*
X241769597Y-55672027D01*
X241769597Y-55672027D02*
X241845787Y-55672027D01*
X241845787Y-55672027D02*
X241921978Y-55633932D01*
X241921978Y-55633932D02*
X241960073Y-55595836D01*
X241960073Y-55595836D02*
X241998168Y-55519646D01*
X241998168Y-55519646D02*
X242036264Y-55367265D01*
X242036264Y-55367265D02*
X242036264Y-55176789D01*
X242036264Y-55176789D02*
X241998168Y-55024408D01*
X241998168Y-55024408D02*
X241960073Y-54948217D01*
X241960073Y-54948217D02*
X241921978Y-54910122D01*
X241921978Y-54910122D02*
X241845787Y-54872027D01*
X241274359Y-54948217D02*
X241236263Y-54910122D01*
X241236263Y-54910122D02*
X241160073Y-54872027D01*
X241160073Y-54872027D02*
X240969597Y-54872027D01*
X240969597Y-54872027D02*
X240893406Y-54910122D01*
X240893406Y-54910122D02*
X240855311Y-54948217D01*
X240855311Y-54948217D02*
X240817216Y-55024408D01*
X240817216Y-55024408D02*
X240817216Y-55100598D01*
X240817216Y-55100598D02*
X240855311Y-55214884D01*
X240855311Y-55214884D02*
X241312454Y-55672027D01*
X241312454Y-55672027D02*
X240817216Y-55672027D01*
X240321977Y-54872027D02*
X240245787Y-54872027D01*
X240245787Y-54872027D02*
X240169596Y-54910122D01*
X240169596Y-54910122D02*
X240131501Y-54948217D01*
X240131501Y-54948217D02*
X240093406Y-55024408D01*
X240093406Y-55024408D02*
X240055311Y-55176789D01*
X240055311Y-55176789D02*
X240055311Y-55367265D01*
X240055311Y-55367265D02*
X240093406Y-55519646D01*
X240093406Y-55519646D02*
X240131501Y-55595836D01*
X240131501Y-55595836D02*
X240169596Y-55633932D01*
X240169596Y-55633932D02*
X240245787Y-55672027D01*
X240245787Y-55672027D02*
X240321977Y-55672027D01*
X240321977Y-55672027D02*
X240398168Y-55633932D01*
X240398168Y-55633932D02*
X240436263Y-55595836D01*
X240436263Y-55595836D02*
X240474358Y-55519646D01*
X240474358Y-55519646D02*
X240512454Y-55367265D01*
X240512454Y-55367265D02*
X240512454Y-55176789D01*
X240512454Y-55176789D02*
X240474358Y-55024408D01*
X240474358Y-55024408D02*
X240436263Y-54948217D01*
X240436263Y-54948217D02*
X240398168Y-54910122D01*
X240398168Y-54910122D02*
X240321977Y-54872027D01*
X252920168Y-57342028D02*
X252843978Y-57342028D01*
X252843978Y-57342028D02*
X252767787Y-57380123D01*
X252767787Y-57380123D02*
X252729692Y-57418218D01*
X252729692Y-57418218D02*
X252691597Y-57494409D01*
X252691597Y-57494409D02*
X252653502Y-57646790D01*
X252653502Y-57646790D02*
X252653502Y-57837266D01*
X252653502Y-57837266D02*
X252691597Y-57989647D01*
X252691597Y-57989647D02*
X252729692Y-58065837D01*
X252729692Y-58065837D02*
X252767787Y-58103933D01*
X252767787Y-58103933D02*
X252843978Y-58142028D01*
X252843978Y-58142028D02*
X252920168Y-58142028D01*
X252920168Y-58142028D02*
X252996359Y-58103933D01*
X252996359Y-58103933D02*
X253034454Y-58065837D01*
X253034454Y-58065837D02*
X253072549Y-57989647D01*
X253072549Y-57989647D02*
X253110645Y-57837266D01*
X253110645Y-57837266D02*
X253110645Y-57646790D01*
X253110645Y-57646790D02*
X253072549Y-57494409D01*
X253072549Y-57494409D02*
X253034454Y-57418218D01*
X253034454Y-57418218D02*
X252996359Y-57380123D01*
X252996359Y-57380123D02*
X252920168Y-57342028D01*
X252158263Y-57342028D02*
X252082073Y-57342028D01*
X252082073Y-57342028D02*
X252005882Y-57380123D01*
X252005882Y-57380123D02*
X251967787Y-57418218D01*
X251967787Y-57418218D02*
X251929692Y-57494409D01*
X251929692Y-57494409D02*
X251891597Y-57646790D01*
X251891597Y-57646790D02*
X251891597Y-57837266D01*
X251891597Y-57837266D02*
X251929692Y-57989647D01*
X251929692Y-57989647D02*
X251967787Y-58065837D01*
X251967787Y-58065837D02*
X252005882Y-58103933D01*
X252005882Y-58103933D02*
X252082073Y-58142028D01*
X252082073Y-58142028D02*
X252158263Y-58142028D01*
X252158263Y-58142028D02*
X252234454Y-58103933D01*
X252234454Y-58103933D02*
X252272549Y-58065837D01*
X252272549Y-58065837D02*
X252310644Y-57989647D01*
X252310644Y-57989647D02*
X252348740Y-57837266D01*
X252348740Y-57837266D02*
X252348740Y-57646790D01*
X252348740Y-57646790D02*
X252310644Y-57494409D01*
X252310644Y-57494409D02*
X252272549Y-57418218D01*
X252272549Y-57418218D02*
X252234454Y-57380123D01*
X252234454Y-57380123D02*
X252158263Y-57342028D01*
X251586835Y-57418218D02*
X251548739Y-57380123D01*
X251548739Y-57380123D02*
X251472549Y-57342028D01*
X251472549Y-57342028D02*
X251282073Y-57342028D01*
X251282073Y-57342028D02*
X251205882Y-57380123D01*
X251205882Y-57380123D02*
X251167787Y-57418218D01*
X251167787Y-57418218D02*
X251129692Y-57494409D01*
X251129692Y-57494409D02*
X251129692Y-57570599D01*
X251129692Y-57570599D02*
X251167787Y-57684885D01*
X251167787Y-57684885D02*
X251624930Y-58142028D01*
X251624930Y-58142028D02*
X251129692Y-58142028D01*
X252653499Y-60682018D02*
X253110642Y-60682018D01*
X252882070Y-60682018D02*
X252882070Y-59882018D01*
X252882070Y-59882018D02*
X252958261Y-59996303D01*
X252958261Y-59996303D02*
X253034451Y-60072494D01*
X253034451Y-60072494D02*
X253110642Y-60110589D01*
X251891594Y-60682018D02*
X252348737Y-60682018D01*
X252120165Y-60682018D02*
X252120165Y-59882018D01*
X252120165Y-59882018D02*
X252196356Y-59996303D01*
X252196356Y-59996303D02*
X252272546Y-60072494D01*
X252272546Y-60072494D02*
X252348737Y-60110589D01*
X251167784Y-59882018D02*
X251548736Y-59882018D01*
X251548736Y-59882018D02*
X251586832Y-60262970D01*
X251586832Y-60262970D02*
X251548736Y-60224875D01*
X251548736Y-60224875D02*
X251472546Y-60186780D01*
X251472546Y-60186780D02*
X251282070Y-60186780D01*
X251282070Y-60186780D02*
X251205879Y-60224875D01*
X251205879Y-60224875D02*
X251167784Y-60262970D01*
X251167784Y-60262970D02*
X251129689Y-60339161D01*
X251129689Y-60339161D02*
X251129689Y-60529637D01*
X251129689Y-60529637D02*
X251167784Y-60605827D01*
X251167784Y-60605827D02*
X251205879Y-60643923D01*
X251205879Y-60643923D02*
X251282070Y-60682018D01*
X251282070Y-60682018D02*
X251472546Y-60682018D01*
X251472546Y-60682018D02*
X251548736Y-60643923D01*
X251548736Y-60643923D02*
X251586832Y-60605827D01*
X252609073Y-42902027D02*
X252875740Y-42521074D01*
X253066216Y-42902027D02*
X253066216Y-42102027D01*
X253066216Y-42102027D02*
X252761454Y-42102027D01*
X252761454Y-42102027D02*
X252685264Y-42140122D01*
X252685264Y-42140122D02*
X252647169Y-42178217D01*
X252647169Y-42178217D02*
X252609073Y-42254408D01*
X252609073Y-42254408D02*
X252609073Y-42368693D01*
X252609073Y-42368693D02*
X252647169Y-42444884D01*
X252647169Y-42444884D02*
X252685264Y-42482979D01*
X252685264Y-42482979D02*
X252761454Y-42521074D01*
X252761454Y-42521074D02*
X253066216Y-42521074D01*
X252304312Y-42673455D02*
X251923359Y-42673455D01*
X252380502Y-42902027D02*
X252113835Y-42102027D01*
X252113835Y-42102027D02*
X251847169Y-42902027D01*
X251656693Y-42102027D02*
X251466217Y-42902027D01*
X251466217Y-42902027D02*
X251313836Y-42330598D01*
X251313836Y-42330598D02*
X251161455Y-42902027D01*
X251161455Y-42902027D02*
X250970979Y-42102027D01*
X252653502Y-65762027D02*
X253110645Y-65762027D01*
X252882073Y-65762027D02*
X252882073Y-64962027D01*
X252882073Y-64962027D02*
X252958264Y-65076312D01*
X252958264Y-65076312D02*
X253034454Y-65152503D01*
X253034454Y-65152503D02*
X253110645Y-65190598D01*
X251891597Y-65762027D02*
X252348740Y-65762027D01*
X252120168Y-65762027D02*
X252120168Y-64962027D01*
X252120168Y-64962027D02*
X252196359Y-65076312D01*
X252196359Y-65076312D02*
X252272549Y-65152503D01*
X252272549Y-65152503D02*
X252348740Y-65190598D01*
X251129692Y-65762027D02*
X251586835Y-65762027D01*
X251358263Y-65762027D02*
X251358263Y-64962027D01*
X251358263Y-64962027D02*
X251434454Y-65076312D01*
X251434454Y-65076312D02*
X251510644Y-65152503D01*
X251510644Y-65152503D02*
X251586835Y-65190598D01*
X241845787Y-44572027D02*
X241769597Y-44572027D01*
X241769597Y-44572027D02*
X241693406Y-44610122D01*
X241693406Y-44610122D02*
X241655311Y-44648217D01*
X241655311Y-44648217D02*
X241617216Y-44724408D01*
X241617216Y-44724408D02*
X241579121Y-44876789D01*
X241579121Y-44876789D02*
X241579121Y-45067265D01*
X241579121Y-45067265D02*
X241617216Y-45219646D01*
X241617216Y-45219646D02*
X241655311Y-45295836D01*
X241655311Y-45295836D02*
X241693406Y-45333932D01*
X241693406Y-45333932D02*
X241769597Y-45372027D01*
X241769597Y-45372027D02*
X241845787Y-45372027D01*
X241845787Y-45372027D02*
X241921978Y-45333932D01*
X241921978Y-45333932D02*
X241960073Y-45295836D01*
X241960073Y-45295836D02*
X241998168Y-45219646D01*
X241998168Y-45219646D02*
X242036264Y-45067265D01*
X242036264Y-45067265D02*
X242036264Y-44876789D01*
X242036264Y-44876789D02*
X241998168Y-44724408D01*
X241998168Y-44724408D02*
X241960073Y-44648217D01*
X241960073Y-44648217D02*
X241921978Y-44610122D01*
X241921978Y-44610122D02*
X241845787Y-44572027D01*
X241083882Y-44572027D02*
X241007692Y-44572027D01*
X241007692Y-44572027D02*
X240931501Y-44610122D01*
X240931501Y-44610122D02*
X240893406Y-44648217D01*
X240893406Y-44648217D02*
X240855311Y-44724408D01*
X240855311Y-44724408D02*
X240817216Y-44876789D01*
X240817216Y-44876789D02*
X240817216Y-45067265D01*
X240817216Y-45067265D02*
X240855311Y-45219646D01*
X240855311Y-45219646D02*
X240893406Y-45295836D01*
X240893406Y-45295836D02*
X240931501Y-45333932D01*
X240931501Y-45333932D02*
X241007692Y-45372027D01*
X241007692Y-45372027D02*
X241083882Y-45372027D01*
X241083882Y-45372027D02*
X241160073Y-45333932D01*
X241160073Y-45333932D02*
X241198168Y-45295836D01*
X241198168Y-45295836D02*
X241236263Y-45219646D01*
X241236263Y-45219646D02*
X241274359Y-45067265D01*
X241274359Y-45067265D02*
X241274359Y-44876789D01*
X241274359Y-44876789D02*
X241236263Y-44724408D01*
X241236263Y-44724408D02*
X241198168Y-44648217D01*
X241198168Y-44648217D02*
X241160073Y-44610122D01*
X241160073Y-44610122D02*
X241083882Y-44572027D01*
X240360073Y-44914884D02*
X240436263Y-44876789D01*
X240436263Y-44876789D02*
X240474358Y-44838693D01*
X240474358Y-44838693D02*
X240512454Y-44762503D01*
X240512454Y-44762503D02*
X240512454Y-44724408D01*
X240512454Y-44724408D02*
X240474358Y-44648217D01*
X240474358Y-44648217D02*
X240436263Y-44610122D01*
X240436263Y-44610122D02*
X240360073Y-44572027D01*
X240360073Y-44572027D02*
X240207692Y-44572027D01*
X240207692Y-44572027D02*
X240131501Y-44610122D01*
X240131501Y-44610122D02*
X240093406Y-44648217D01*
X240093406Y-44648217D02*
X240055311Y-44724408D01*
X240055311Y-44724408D02*
X240055311Y-44762503D01*
X240055311Y-44762503D02*
X240093406Y-44838693D01*
X240093406Y-44838693D02*
X240131501Y-44876789D01*
X240131501Y-44876789D02*
X240207692Y-44914884D01*
X240207692Y-44914884D02*
X240360073Y-44914884D01*
X240360073Y-44914884D02*
X240436263Y-44952979D01*
X240436263Y-44952979D02*
X240474358Y-44991074D01*
X240474358Y-44991074D02*
X240512454Y-45067265D01*
X240512454Y-45067265D02*
X240512454Y-45219646D01*
X240512454Y-45219646D02*
X240474358Y-45295836D01*
X240474358Y-45295836D02*
X240436263Y-45333932D01*
X240436263Y-45333932D02*
X240360073Y-45372027D01*
X240360073Y-45372027D02*
X240207692Y-45372027D01*
X240207692Y-45372027D02*
X240131501Y-45333932D01*
X240131501Y-45333932D02*
X240093406Y-45295836D01*
X240093406Y-45295836D02*
X240055311Y-45219646D01*
X240055311Y-45219646D02*
X240055311Y-45067265D01*
X240055311Y-45067265D02*
X240093406Y-44991074D01*
X240093406Y-44991074D02*
X240131501Y-44952979D01*
X240131501Y-44952979D02*
X240207692Y-44914884D01*
X252609072Y-47982027D02*
X252875739Y-47601074D01*
X253066215Y-47982027D02*
X253066215Y-47182027D01*
X253066215Y-47182027D02*
X252761453Y-47182027D01*
X252761453Y-47182027D02*
X252685263Y-47220122D01*
X252685263Y-47220122D02*
X252647168Y-47258217D01*
X252647168Y-47258217D02*
X252609072Y-47334408D01*
X252609072Y-47334408D02*
X252609072Y-47448693D01*
X252609072Y-47448693D02*
X252647168Y-47524884D01*
X252647168Y-47524884D02*
X252685263Y-47562979D01*
X252685263Y-47562979D02*
X252761453Y-47601074D01*
X252761453Y-47601074D02*
X253066215Y-47601074D01*
X252304311Y-47943932D02*
X252190025Y-47982027D01*
X252190025Y-47982027D02*
X251999549Y-47982027D01*
X251999549Y-47982027D02*
X251923358Y-47943932D01*
X251923358Y-47943932D02*
X251885263Y-47905836D01*
X251885263Y-47905836D02*
X251847168Y-47829646D01*
X251847168Y-47829646D02*
X251847168Y-47753455D01*
X251847168Y-47753455D02*
X251885263Y-47677265D01*
X251885263Y-47677265D02*
X251923358Y-47639170D01*
X251923358Y-47639170D02*
X251999549Y-47601074D01*
X251999549Y-47601074D02*
X252151930Y-47562979D01*
X252151930Y-47562979D02*
X252228120Y-47524884D01*
X252228120Y-47524884D02*
X252266215Y-47486789D01*
X252266215Y-47486789D02*
X252304311Y-47410598D01*
X252304311Y-47410598D02*
X252304311Y-47334408D01*
X252304311Y-47334408D02*
X252266215Y-47258217D01*
X252266215Y-47258217D02*
X252228120Y-47220122D01*
X252228120Y-47220122D02*
X252151930Y-47182027D01*
X252151930Y-47182027D02*
X251961453Y-47182027D01*
X251961453Y-47182027D02*
X251847168Y-47220122D01*
X251618596Y-47182027D02*
X251161453Y-47182027D01*
X251390025Y-47982027D02*
X251390025Y-47182027D01*
X252920168Y-67502027D02*
X252843978Y-67502027D01*
X252843978Y-67502027D02*
X252767787Y-67540122D01*
X252767787Y-67540122D02*
X252729692Y-67578217D01*
X252729692Y-67578217D02*
X252691597Y-67654408D01*
X252691597Y-67654408D02*
X252653502Y-67806789D01*
X252653502Y-67806789D02*
X252653502Y-67997265D01*
X252653502Y-67997265D02*
X252691597Y-68149646D01*
X252691597Y-68149646D02*
X252729692Y-68225836D01*
X252729692Y-68225836D02*
X252767787Y-68263932D01*
X252767787Y-68263932D02*
X252843978Y-68302027D01*
X252843978Y-68302027D02*
X252920168Y-68302027D01*
X252920168Y-68302027D02*
X252996359Y-68263932D01*
X252996359Y-68263932D02*
X253034454Y-68225836D01*
X253034454Y-68225836D02*
X253072549Y-68149646D01*
X253072549Y-68149646D02*
X253110645Y-67997265D01*
X253110645Y-67997265D02*
X253110645Y-67806789D01*
X253110645Y-67806789D02*
X253072549Y-67654408D01*
X253072549Y-67654408D02*
X253034454Y-67578217D01*
X253034454Y-67578217D02*
X252996359Y-67540122D01*
X252996359Y-67540122D02*
X252920168Y-67502027D01*
X251891597Y-68302027D02*
X252348740Y-68302027D01*
X252120168Y-68302027D02*
X252120168Y-67502027D01*
X252120168Y-67502027D02*
X252196359Y-67616312D01*
X252196359Y-67616312D02*
X252272549Y-67692503D01*
X252272549Y-67692503D02*
X252348740Y-67730598D01*
X251396358Y-67502027D02*
X251320168Y-67502027D01*
X251320168Y-67502027D02*
X251243977Y-67540122D01*
X251243977Y-67540122D02*
X251205882Y-67578217D01*
X251205882Y-67578217D02*
X251167787Y-67654408D01*
X251167787Y-67654408D02*
X251129692Y-67806789D01*
X251129692Y-67806789D02*
X251129692Y-67997265D01*
X251129692Y-67997265D02*
X251167787Y-68149646D01*
X251167787Y-68149646D02*
X251205882Y-68225836D01*
X251205882Y-68225836D02*
X251243977Y-68263932D01*
X251243977Y-68263932D02*
X251320168Y-68302027D01*
X251320168Y-68302027D02*
X251396358Y-68302027D01*
X251396358Y-68302027D02*
X251472549Y-68263932D01*
X251472549Y-68263932D02*
X251510644Y-68225836D01*
X251510644Y-68225836D02*
X251548739Y-68149646D01*
X251548739Y-68149646D02*
X251586835Y-67997265D01*
X251586835Y-67997265D02*
X251586835Y-67806789D01*
X251586835Y-67806789D02*
X251548739Y-67654408D01*
X251548739Y-67654408D02*
X251510644Y-67578217D01*
X251510644Y-67578217D02*
X251472549Y-67540122D01*
X251472549Y-67540122D02*
X251396358Y-67502027D01*
X252920168Y-54802027D02*
X252843978Y-54802027D01*
X252843978Y-54802027D02*
X252767787Y-54840122D01*
X252767787Y-54840122D02*
X252729692Y-54878217D01*
X252729692Y-54878217D02*
X252691597Y-54954408D01*
X252691597Y-54954408D02*
X252653502Y-55106789D01*
X252653502Y-55106789D02*
X252653502Y-55297265D01*
X252653502Y-55297265D02*
X252691597Y-55449646D01*
X252691597Y-55449646D02*
X252729692Y-55525836D01*
X252729692Y-55525836D02*
X252767787Y-55563932D01*
X252767787Y-55563932D02*
X252843978Y-55602027D01*
X252843978Y-55602027D02*
X252920168Y-55602027D01*
X252920168Y-55602027D02*
X252996359Y-55563932D01*
X252996359Y-55563932D02*
X253034454Y-55525836D01*
X253034454Y-55525836D02*
X253072549Y-55449646D01*
X253072549Y-55449646D02*
X253110645Y-55297265D01*
X253110645Y-55297265D02*
X253110645Y-55106789D01*
X253110645Y-55106789D02*
X253072549Y-54954408D01*
X253072549Y-54954408D02*
X253034454Y-54878217D01*
X253034454Y-54878217D02*
X252996359Y-54840122D01*
X252996359Y-54840122D02*
X252920168Y-54802027D01*
X252348740Y-54878217D02*
X252310644Y-54840122D01*
X252310644Y-54840122D02*
X252234454Y-54802027D01*
X252234454Y-54802027D02*
X252043978Y-54802027D01*
X252043978Y-54802027D02*
X251967787Y-54840122D01*
X251967787Y-54840122D02*
X251929692Y-54878217D01*
X251929692Y-54878217D02*
X251891597Y-54954408D01*
X251891597Y-54954408D02*
X251891597Y-55030598D01*
X251891597Y-55030598D02*
X251929692Y-55144884D01*
X251929692Y-55144884D02*
X252386835Y-55602027D01*
X252386835Y-55602027D02*
X251891597Y-55602027D01*
X251510644Y-55602027D02*
X251358263Y-55602027D01*
X251358263Y-55602027D02*
X251282073Y-55563932D01*
X251282073Y-55563932D02*
X251243977Y-55525836D01*
X251243977Y-55525836D02*
X251167787Y-55411551D01*
X251167787Y-55411551D02*
X251129692Y-55259170D01*
X251129692Y-55259170D02*
X251129692Y-54954408D01*
X251129692Y-54954408D02*
X251167787Y-54878217D01*
X251167787Y-54878217D02*
X251205882Y-54840122D01*
X251205882Y-54840122D02*
X251282073Y-54802027D01*
X251282073Y-54802027D02*
X251434454Y-54802027D01*
X251434454Y-54802027D02*
X251510644Y-54840122D01*
X251510644Y-54840122D02*
X251548739Y-54878217D01*
X251548739Y-54878217D02*
X251586835Y-54954408D01*
X251586835Y-54954408D02*
X251586835Y-55144884D01*
X251586835Y-55144884D02*
X251548739Y-55221074D01*
X251548739Y-55221074D02*
X251510644Y-55259170D01*
X251510644Y-55259170D02*
X251434454Y-55297265D01*
X251434454Y-55297265D02*
X251282073Y-55297265D01*
X251282073Y-55297265D02*
X251205882Y-55259170D01*
X251205882Y-55259170D02*
X251167787Y-55221074D01*
X251167787Y-55221074D02*
X251129692Y-55144884D01*
X241845787Y-59882027D02*
X241769597Y-59882027D01*
X241769597Y-59882027D02*
X241693406Y-59920122D01*
X241693406Y-59920122D02*
X241655311Y-59958217D01*
X241655311Y-59958217D02*
X241617216Y-60034408D01*
X241617216Y-60034408D02*
X241579121Y-60186789D01*
X241579121Y-60186789D02*
X241579121Y-60377265D01*
X241579121Y-60377265D02*
X241617216Y-60529646D01*
X241617216Y-60529646D02*
X241655311Y-60605836D01*
X241655311Y-60605836D02*
X241693406Y-60643932D01*
X241693406Y-60643932D02*
X241769597Y-60682027D01*
X241769597Y-60682027D02*
X241845787Y-60682027D01*
X241845787Y-60682027D02*
X241921978Y-60643932D01*
X241921978Y-60643932D02*
X241960073Y-60605836D01*
X241960073Y-60605836D02*
X241998168Y-60529646D01*
X241998168Y-60529646D02*
X242036264Y-60377265D01*
X242036264Y-60377265D02*
X242036264Y-60186789D01*
X242036264Y-60186789D02*
X241998168Y-60034408D01*
X241998168Y-60034408D02*
X241960073Y-59958217D01*
X241960073Y-59958217D02*
X241921978Y-59920122D01*
X241921978Y-59920122D02*
X241845787Y-59882027D01*
X241274359Y-59958217D02*
X241236263Y-59920122D01*
X241236263Y-59920122D02*
X241160073Y-59882027D01*
X241160073Y-59882027D02*
X240969597Y-59882027D01*
X240969597Y-59882027D02*
X240893406Y-59920122D01*
X240893406Y-59920122D02*
X240855311Y-59958217D01*
X240855311Y-59958217D02*
X240817216Y-60034408D01*
X240817216Y-60034408D02*
X240817216Y-60110598D01*
X240817216Y-60110598D02*
X240855311Y-60224884D01*
X240855311Y-60224884D02*
X241312454Y-60682027D01*
X241312454Y-60682027D02*
X240817216Y-60682027D01*
X240131501Y-60148693D02*
X240131501Y-60682027D01*
X240321977Y-59843932D02*
X240512454Y-60415360D01*
X240512454Y-60415360D02*
X240017215Y-60415360D01*
X241731501Y-49760122D02*
X241807691Y-49722027D01*
X241807691Y-49722027D02*
X241921977Y-49722027D01*
X241921977Y-49722027D02*
X242036263Y-49760122D01*
X242036263Y-49760122D02*
X242112453Y-49836312D01*
X242112453Y-49836312D02*
X242150548Y-49912503D01*
X242150548Y-49912503D02*
X242188644Y-50064884D01*
X242188644Y-50064884D02*
X242188644Y-50179170D01*
X242188644Y-50179170D02*
X242150548Y-50331551D01*
X242150548Y-50331551D02*
X242112453Y-50407741D01*
X242112453Y-50407741D02*
X242036263Y-50483932D01*
X242036263Y-50483932D02*
X241921977Y-50522027D01*
X241921977Y-50522027D02*
X241845786Y-50522027D01*
X241845786Y-50522027D02*
X241731501Y-50483932D01*
X241731501Y-50483932D02*
X241693405Y-50445836D01*
X241693405Y-50445836D02*
X241693405Y-50179170D01*
X241693405Y-50179170D02*
X241845786Y-50179170D01*
X241350548Y-50522027D02*
X241350548Y-49722027D01*
X241350548Y-49722027D02*
X240893405Y-50522027D01*
X240893405Y-50522027D02*
X240893405Y-49722027D01*
X240512453Y-50522027D02*
X240512453Y-49722027D01*
X240512453Y-49722027D02*
X240321977Y-49722027D01*
X240321977Y-49722027D02*
X240207691Y-49760122D01*
X240207691Y-49760122D02*
X240131501Y-49836312D01*
X240131501Y-49836312D02*
X240093406Y-49912503D01*
X240093406Y-49912503D02*
X240055310Y-50064884D01*
X240055310Y-50064884D02*
X240055310Y-50179170D01*
X240055310Y-50179170D02*
X240093406Y-50331551D01*
X240093406Y-50331551D02*
X240131501Y-50407741D01*
X240131501Y-50407741D02*
X240207691Y-50483932D01*
X240207691Y-50483932D02*
X240321977Y-50522027D01*
X240321977Y-50522027D02*
X240512453Y-50522027D01*
X253186837Y-49722025D02*
X252920170Y-50522025D01*
X252920170Y-50522025D02*
X252653504Y-49722025D01*
X251929694Y-50445834D02*
X251967790Y-50483930D01*
X251967790Y-50483930D02*
X252082075Y-50522025D01*
X252082075Y-50522025D02*
X252158266Y-50522025D01*
X252158266Y-50522025D02*
X252272552Y-50483930D01*
X252272552Y-50483930D02*
X252348742Y-50407739D01*
X252348742Y-50407739D02*
X252386837Y-50331549D01*
X252386837Y-50331549D02*
X252424933Y-50179168D01*
X252424933Y-50179168D02*
X252424933Y-50064882D01*
X252424933Y-50064882D02*
X252386837Y-49912501D01*
X252386837Y-49912501D02*
X252348742Y-49836310D01*
X252348742Y-49836310D02*
X252272552Y-49760120D01*
X252272552Y-49760120D02*
X252158266Y-49722025D01*
X252158266Y-49722025D02*
X252082075Y-49722025D01*
X252082075Y-49722025D02*
X251967790Y-49760120D01*
X251967790Y-49760120D02*
X251929694Y-49798215D01*
X251129694Y-50445834D02*
X251167790Y-50483930D01*
X251167790Y-50483930D02*
X251282075Y-50522025D01*
X251282075Y-50522025D02*
X251358266Y-50522025D01*
X251358266Y-50522025D02*
X251472552Y-50483930D01*
X251472552Y-50483930D02*
X251548742Y-50407739D01*
X251548742Y-50407739D02*
X251586837Y-50331549D01*
X251586837Y-50331549D02*
X251624933Y-50179168D01*
X251624933Y-50179168D02*
X251624933Y-50064882D01*
X251624933Y-50064882D02*
X251586837Y-49912501D01*
X251586837Y-49912501D02*
X251548742Y-49836310D01*
X251548742Y-49836310D02*
X251472552Y-49760120D01*
X251472552Y-49760120D02*
X251358266Y-49722025D01*
X251358266Y-49722025D02*
X251282075Y-49722025D01*
X251282075Y-49722025D02*
X251167790Y-49760120D01*
X251167790Y-49760120D02*
X251129694Y-49798215D01*
X252653502Y-63222032D02*
X253110645Y-63222032D01*
X252882073Y-63222032D02*
X252882073Y-62422032D01*
X252882073Y-62422032D02*
X252958264Y-62536317D01*
X252958264Y-62536317D02*
X253034454Y-62612508D01*
X253034454Y-62612508D02*
X253110645Y-62650603D01*
X251891597Y-63222032D02*
X252348740Y-63222032D01*
X252120168Y-63222032D02*
X252120168Y-62422032D01*
X252120168Y-62422032D02*
X252196359Y-62536317D01*
X252196359Y-62536317D02*
X252272549Y-62612508D01*
X252272549Y-62612508D02*
X252348740Y-62650603D01*
X251624930Y-62422032D02*
X251129692Y-62422032D01*
X251129692Y-62422032D02*
X251396358Y-62726794D01*
X251396358Y-62726794D02*
X251282073Y-62726794D01*
X251282073Y-62726794D02*
X251205882Y-62764889D01*
X251205882Y-62764889D02*
X251167787Y-62802984D01*
X251167787Y-62802984D02*
X251129692Y-62879175D01*
X251129692Y-62879175D02*
X251129692Y-63069651D01*
X251129692Y-63069651D02*
X251167787Y-63145841D01*
X251167787Y-63145841D02*
X251205882Y-63183937D01*
X251205882Y-63183937D02*
X251282073Y-63222032D01*
X251282073Y-63222032D02*
X251510644Y-63222032D01*
X251510644Y-63222032D02*
X251586835Y-63183937D01*
X251586835Y-63183937D02*
X251624930Y-63145841D01*
X241579118Y-63222027D02*
X242036261Y-63222027D01*
X241807689Y-63222027D02*
X241807689Y-62422027D01*
X241807689Y-62422027D02*
X241883880Y-62536312D01*
X241883880Y-62536312D02*
X241960070Y-62612503D01*
X241960070Y-62612503D02*
X242036261Y-62650598D01*
X241083879Y-62422027D02*
X241007689Y-62422027D01*
X241007689Y-62422027D02*
X240931498Y-62460122D01*
X240931498Y-62460122D02*
X240893403Y-62498217D01*
X240893403Y-62498217D02*
X240855308Y-62574408D01*
X240855308Y-62574408D02*
X240817213Y-62726789D01*
X240817213Y-62726789D02*
X240817213Y-62917265D01*
X240817213Y-62917265D02*
X240855308Y-63069646D01*
X240855308Y-63069646D02*
X240893403Y-63145836D01*
X240893403Y-63145836D02*
X240931498Y-63183932D01*
X240931498Y-63183932D02*
X241007689Y-63222027D01*
X241007689Y-63222027D02*
X241083879Y-63222027D01*
X241083879Y-63222027D02*
X241160070Y-63183932D01*
X241160070Y-63183932D02*
X241198165Y-63145836D01*
X241198165Y-63145836D02*
X241236260Y-63069646D01*
X241236260Y-63069646D02*
X241274356Y-62917265D01*
X241274356Y-62917265D02*
X241274356Y-62726789D01*
X241274356Y-62726789D02*
X241236260Y-62574408D01*
X241236260Y-62574408D02*
X241198165Y-62498217D01*
X241198165Y-62498217D02*
X241160070Y-62460122D01*
X241160070Y-62460122D02*
X241083879Y-62422027D01*
X240321974Y-62422027D02*
X240245784Y-62422027D01*
X240245784Y-62422027D02*
X240169593Y-62460122D01*
X240169593Y-62460122D02*
X240131498Y-62498217D01*
X240131498Y-62498217D02*
X240093403Y-62574408D01*
X240093403Y-62574408D02*
X240055308Y-62726789D01*
X240055308Y-62726789D02*
X240055308Y-62917265D01*
X240055308Y-62917265D02*
X240093403Y-63069646D01*
X240093403Y-63069646D02*
X240131498Y-63145836D01*
X240131498Y-63145836D02*
X240169593Y-63183932D01*
X240169593Y-63183932D02*
X240245784Y-63222027D01*
X240245784Y-63222027D02*
X240321974Y-63222027D01*
X240321974Y-63222027D02*
X240398165Y-63183932D01*
X240398165Y-63183932D02*
X240436260Y-63145836D01*
X240436260Y-63145836D02*
X240474355Y-63069646D01*
X240474355Y-63069646D02*
X240512451Y-62917265D01*
X240512451Y-62917265D02*
X240512451Y-62726789D01*
X240512451Y-62726789D02*
X240474355Y-62574408D01*
X240474355Y-62574408D02*
X240436260Y-62498217D01*
X240436260Y-62498217D02*
X240398165Y-62460122D01*
X240398165Y-62460122D02*
X240321974Y-62422027D01*
X241845787Y-57372027D02*
X241769597Y-57372027D01*
X241769597Y-57372027D02*
X241693406Y-57410122D01*
X241693406Y-57410122D02*
X241655311Y-57448217D01*
X241655311Y-57448217D02*
X241617216Y-57524408D01*
X241617216Y-57524408D02*
X241579121Y-57676789D01*
X241579121Y-57676789D02*
X241579121Y-57867265D01*
X241579121Y-57867265D02*
X241617216Y-58019646D01*
X241617216Y-58019646D02*
X241655311Y-58095836D01*
X241655311Y-58095836D02*
X241693406Y-58133932D01*
X241693406Y-58133932D02*
X241769597Y-58172027D01*
X241769597Y-58172027D02*
X241845787Y-58172027D01*
X241845787Y-58172027D02*
X241921978Y-58133932D01*
X241921978Y-58133932D02*
X241960073Y-58095836D01*
X241960073Y-58095836D02*
X241998168Y-58019646D01*
X241998168Y-58019646D02*
X242036264Y-57867265D01*
X242036264Y-57867265D02*
X242036264Y-57676789D01*
X242036264Y-57676789D02*
X241998168Y-57524408D01*
X241998168Y-57524408D02*
X241960073Y-57448217D01*
X241960073Y-57448217D02*
X241921978Y-57410122D01*
X241921978Y-57410122D02*
X241845787Y-57372027D01*
X241274359Y-57448217D02*
X241236263Y-57410122D01*
X241236263Y-57410122D02*
X241160073Y-57372027D01*
X241160073Y-57372027D02*
X240969597Y-57372027D01*
X240969597Y-57372027D02*
X240893406Y-57410122D01*
X240893406Y-57410122D02*
X240855311Y-57448217D01*
X240855311Y-57448217D02*
X240817216Y-57524408D01*
X240817216Y-57524408D02*
X240817216Y-57600598D01*
X240817216Y-57600598D02*
X240855311Y-57714884D01*
X240855311Y-57714884D02*
X241312454Y-58172027D01*
X241312454Y-58172027D02*
X240817216Y-58172027D01*
X240512454Y-57448217D02*
X240474358Y-57410122D01*
X240474358Y-57410122D02*
X240398168Y-57372027D01*
X240398168Y-57372027D02*
X240207692Y-57372027D01*
X240207692Y-57372027D02*
X240131501Y-57410122D01*
X240131501Y-57410122D02*
X240093406Y-57448217D01*
X240093406Y-57448217D02*
X240055311Y-57524408D01*
X240055311Y-57524408D02*
X240055311Y-57600598D01*
X240055311Y-57600598D02*
X240093406Y-57714884D01*
X240093406Y-57714884D02*
X240550549Y-58172027D01*
X240550549Y-58172027D02*
X240055311Y-58172027D01*
X241845787Y-52272027D02*
X241769597Y-52272027D01*
X241769597Y-52272027D02*
X241693406Y-52310122D01*
X241693406Y-52310122D02*
X241655311Y-52348217D01*
X241655311Y-52348217D02*
X241617216Y-52424408D01*
X241617216Y-52424408D02*
X241579121Y-52576789D01*
X241579121Y-52576789D02*
X241579121Y-52767265D01*
X241579121Y-52767265D02*
X241617216Y-52919646D01*
X241617216Y-52919646D02*
X241655311Y-52995836D01*
X241655311Y-52995836D02*
X241693406Y-53033932D01*
X241693406Y-53033932D02*
X241769597Y-53072027D01*
X241769597Y-53072027D02*
X241845787Y-53072027D01*
X241845787Y-53072027D02*
X241921978Y-53033932D01*
X241921978Y-53033932D02*
X241960073Y-52995836D01*
X241960073Y-52995836D02*
X241998168Y-52919646D01*
X241998168Y-52919646D02*
X242036264Y-52767265D01*
X242036264Y-52767265D02*
X242036264Y-52576789D01*
X242036264Y-52576789D02*
X241998168Y-52424408D01*
X241998168Y-52424408D02*
X241960073Y-52348217D01*
X241960073Y-52348217D02*
X241921978Y-52310122D01*
X241921978Y-52310122D02*
X241845787Y-52272027D01*
X240817216Y-53072027D02*
X241274359Y-53072027D01*
X241045787Y-53072027D02*
X241045787Y-52272027D01*
X241045787Y-52272027D02*
X241121978Y-52386312D01*
X241121978Y-52386312D02*
X241198168Y-52462503D01*
X241198168Y-52462503D02*
X241274359Y-52500598D01*
X240550549Y-52272027D02*
X240017215Y-52272027D01*
X240017215Y-52272027D02*
X240360073Y-53072027D01*
X252647168Y-44680122D02*
X252723358Y-44642027D01*
X252723358Y-44642027D02*
X252837644Y-44642027D01*
X252837644Y-44642027D02*
X252951930Y-44680122D01*
X252951930Y-44680122D02*
X253028120Y-44756312D01*
X253028120Y-44756312D02*
X253066215Y-44832503D01*
X253066215Y-44832503D02*
X253104311Y-44984884D01*
X253104311Y-44984884D02*
X253104311Y-45099170D01*
X253104311Y-45099170D02*
X253066215Y-45251551D01*
X253066215Y-45251551D02*
X253028120Y-45327741D01*
X253028120Y-45327741D02*
X252951930Y-45403932D01*
X252951930Y-45403932D02*
X252837644Y-45442027D01*
X252837644Y-45442027D02*
X252761453Y-45442027D01*
X252761453Y-45442027D02*
X252647168Y-45403932D01*
X252647168Y-45403932D02*
X252609072Y-45365836D01*
X252609072Y-45365836D02*
X252609072Y-45099170D01*
X252609072Y-45099170D02*
X252761453Y-45099170D01*
X252266215Y-45442027D02*
X252266215Y-44642027D01*
X252266215Y-44642027D02*
X251809072Y-45442027D01*
X251809072Y-45442027D02*
X251809072Y-44642027D01*
X251428120Y-45442027D02*
X251428120Y-44642027D01*
X251428120Y-44642027D02*
X251237644Y-44642027D01*
X251237644Y-44642027D02*
X251123358Y-44680122D01*
X251123358Y-44680122D02*
X251047168Y-44756312D01*
X251047168Y-44756312D02*
X251009073Y-44832503D01*
X251009073Y-44832503D02*
X250970977Y-44984884D01*
X250970977Y-44984884D02*
X250970977Y-45099170D01*
X250970977Y-45099170D02*
X251009073Y-45251551D01*
X251009073Y-45251551D02*
X251047168Y-45327741D01*
X251047168Y-45327741D02*
X251123358Y-45403932D01*
X251123358Y-45403932D02*
X251237644Y-45442027D01*
X251237644Y-45442027D02*
X251428120Y-45442027D01*
X241731501Y-47220120D02*
X241807691Y-47182025D01*
X241807691Y-47182025D02*
X241921977Y-47182025D01*
X241921977Y-47182025D02*
X242036263Y-47220120D01*
X242036263Y-47220120D02*
X242112453Y-47296310D01*
X242112453Y-47296310D02*
X242150548Y-47372501D01*
X242150548Y-47372501D02*
X242188644Y-47524882D01*
X242188644Y-47524882D02*
X242188644Y-47639168D01*
X242188644Y-47639168D02*
X242150548Y-47791549D01*
X242150548Y-47791549D02*
X242112453Y-47867739D01*
X242112453Y-47867739D02*
X242036263Y-47943930D01*
X242036263Y-47943930D02*
X241921977Y-47982025D01*
X241921977Y-47982025D02*
X241845786Y-47982025D01*
X241845786Y-47982025D02*
X241731501Y-47943930D01*
X241731501Y-47943930D02*
X241693405Y-47905834D01*
X241693405Y-47905834D02*
X241693405Y-47639168D01*
X241693405Y-47639168D02*
X241845786Y-47639168D01*
X241350548Y-47982025D02*
X241350548Y-47182025D01*
X241350548Y-47182025D02*
X240893405Y-47982025D01*
X240893405Y-47982025D02*
X240893405Y-47182025D01*
X240512453Y-47982025D02*
X240512453Y-47182025D01*
X240512453Y-47182025D02*
X240321977Y-47182025D01*
X240321977Y-47182025D02*
X240207691Y-47220120D01*
X240207691Y-47220120D02*
X240131501Y-47296310D01*
X240131501Y-47296310D02*
X240093406Y-47372501D01*
X240093406Y-47372501D02*
X240055310Y-47524882D01*
X240055310Y-47524882D02*
X240055310Y-47639168D01*
X240055310Y-47639168D02*
X240093406Y-47791549D01*
X240093406Y-47791549D02*
X240131501Y-47867739D01*
X240131501Y-47867739D02*
X240207691Y-47943930D01*
X240207691Y-47943930D02*
X240321977Y-47982025D01*
X240321977Y-47982025D02*
X240512453Y-47982025D01*
%TO.C,T1*%
X233832992Y-85159720D02*
X233832992Y-89059720D01*
X233832992Y-87109720D02*
X233832992Y-83809720D01*
X233832992Y-87109720D02*
X233832998Y-90409721D01*
X233832998Y-90409721D02*
X236682989Y-90409722D01*
X236682989Y-90409722D02*
X236682992Y-83809720D01*
X236682992Y-83809720D02*
X233832992Y-83809720D01*
D11*
%TO.C,D24*%
X282712618Y-123403998D02*
X283106547Y-123334539D01*
X283106547Y-123334539D02*
X283011038Y-122792894D01*
X283106547Y-123334539D02*
X283202052Y-123876187D01*
X283106547Y-123334539D02*
X283627967Y-122836427D01*
X283627967Y-122836427D02*
X283766883Y-123624265D01*
X283697430Y-123230350D02*
X284189830Y-123143526D01*
X283766883Y-123624265D02*
X283106547Y-123334539D01*
%TO.C,D13*%
X302832987Y-101849732D02*
X303232987Y-101849729D01*
X303232987Y-101849729D02*
X303232989Y-101299733D01*
X303232987Y-101849729D02*
X303232987Y-102399737D01*
X303232987Y-101849729D02*
X303832987Y-101449732D01*
X303832987Y-101449732D02*
X303832987Y-102249732D01*
X303832987Y-102249732D02*
X303232987Y-101849729D01*
X303832992Y-101849732D02*
X304332987Y-101849732D01*
%TO.C,D15*%
X302832973Y-67849732D02*
X303232973Y-67849729D01*
X303232973Y-67849729D02*
X303232975Y-67299733D01*
X303232973Y-67849729D02*
X303232973Y-68399737D01*
X303232973Y-67849729D02*
X303832973Y-67449732D01*
X303832973Y-67449732D02*
X303832973Y-68249732D01*
X303832973Y-68249732D02*
X303232973Y-67849729D01*
X303832978Y-67849732D02*
X304332973Y-67849732D01*
%TO.C,D11*%
X320832982Y-65349721D02*
X321232982Y-65349718D01*
X321232982Y-65349718D02*
X321232984Y-64799722D01*
X321232982Y-65349718D02*
X321232982Y-65899726D01*
X321232982Y-65349718D02*
X321832982Y-64949721D01*
X321832982Y-64949721D02*
X321832982Y-65749721D01*
X321832982Y-65749721D02*
X321232982Y-65349718D01*
X321832987Y-65349721D02*
X322332982Y-65349721D01*
%TO.C,D8*%
X338832980Y-50849710D02*
X339232980Y-50849707D01*
X339232980Y-50849707D02*
X339232982Y-50299711D01*
X339232980Y-50849707D02*
X339232980Y-51399715D01*
X339232980Y-50849707D02*
X339832980Y-50449710D01*
X339832980Y-50449710D02*
X339832980Y-51249710D01*
X339832980Y-51249710D02*
X339232980Y-50849707D01*
X339832985Y-50849710D02*
X340332980Y-50849710D01*
D12*
%TO.C,B1*%
X233332974Y-75749725D02*
X233332974Y-76674725D01*
X233332977Y-79524723D02*
X233332974Y-80449725D01*
X235457974Y-75649725D02*
X234907969Y-75649722D01*
X235457979Y-80549728D02*
X234907974Y-80549725D01*
X237032974Y-75749725D02*
X237032974Y-80449725D01*
D11*
%TO.C,D23*%
X266832976Y-53349729D02*
X267232976Y-53349726D01*
X267232976Y-53349726D02*
X267232978Y-52799730D01*
X267232976Y-53349726D02*
X267232976Y-53899734D01*
X267232976Y-53349726D02*
X267832976Y-52949729D01*
X267832976Y-52949729D02*
X267832976Y-53749729D01*
X267832976Y-53749729D02*
X267232976Y-53349726D01*
X267832981Y-53349729D02*
X268332976Y-53349729D01*
%TO.C,D18*%
X284832982Y-87349737D02*
X285232982Y-87349734D01*
X285232982Y-87349734D02*
X285232984Y-86799738D01*
X285232982Y-87349734D02*
X285232982Y-87899742D01*
X285232982Y-87349734D02*
X285832982Y-86949737D01*
X285832982Y-86949737D02*
X285832982Y-87749737D01*
X285832982Y-87749737D02*
X285232982Y-87349734D01*
X285832987Y-87349737D02*
X286332982Y-87349737D01*
D10*
%TO.C,JST1*%
X248232978Y-72599699D02*
X248232984Y-73299699D01*
X248232980Y-77799700D02*
X248232985Y-78499700D01*
X248232984Y-73299699D02*
X249832979Y-73299694D01*
X248232985Y-78499700D02*
X255832980Y-78499700D01*
X249832979Y-73299694D02*
X249832980Y-77799702D01*
X249832980Y-77799702D02*
X248232980Y-77799700D01*
X251082980Y-76549700D02*
X251582989Y-76549700D01*
X251332980Y-76799700D02*
X251332980Y-76299700D01*
X255832980Y-72599700D02*
X248232978Y-72599699D01*
X255832980Y-78499700D02*
X255832980Y-72599700D01*
D11*
%TO.C,D20*%
X284832986Y-53349715D02*
X285232986Y-53349712D01*
X285232986Y-53349712D02*
X285232988Y-52799716D01*
X285232986Y-53349712D02*
X285232986Y-53899720D01*
X285232986Y-53349712D02*
X285832986Y-52949715D01*
X285832986Y-52949715D02*
X285832986Y-53749715D01*
X285832986Y-53749715D02*
X285232986Y-53349712D01*
X285832991Y-53349715D02*
X286332986Y-53349715D01*
%TO.C,D1*%
X357447995Y-107237855D02*
X357847027Y-107265755D01*
X357847027Y-107265755D02*
X357808657Y-107814417D01*
X357847027Y-107265755D02*
X357885387Y-106717097D01*
X357847027Y-107265755D02*
X358473462Y-106908586D01*
X358417656Y-107706637D02*
X357847027Y-107265755D01*
X358445559Y-107307611D02*
X358944341Y-107342489D01*
X358473462Y-106908586D02*
X358417656Y-107706637D01*
%TO.C,D21*%
X266832983Y-87349710D02*
X267232983Y-87349707D01*
X267232983Y-87349707D02*
X267232985Y-86799711D01*
X267232983Y-87349707D02*
X267232983Y-87899715D01*
X267232983Y-87349707D02*
X267832983Y-86949710D01*
X267832983Y-86949710D02*
X267832983Y-87749710D01*
X267832983Y-87749710D02*
X267232983Y-87349707D01*
X267832988Y-87349710D02*
X268332983Y-87349710D01*
D13*
%TO.C,MCU1*%
X237692978Y-38729732D02*
X237692978Y-71749732D01*
X237692978Y-71749732D02*
X255472982Y-71749727D01*
X255472978Y-38729732D02*
X237692978Y-38729732D01*
X255472982Y-71749727D02*
X255472978Y-38729732D01*
D11*
%TO.C,D26*%
X249253457Y-143558252D02*
X249510577Y-143251837D01*
X249510577Y-143251837D02*
X249089248Y-142898301D01*
X249510577Y-143251837D02*
X249589828Y-142535095D01*
X249510577Y-143251837D02*
X249931899Y-143605367D01*
X249589828Y-142535095D02*
X250202663Y-143049323D01*
X249896245Y-142792207D02*
X250217639Y-142409186D01*
X250202663Y-143049323D02*
X249510577Y-143251837D01*
%TO.C,D5*%
X338832990Y-101849727D02*
X339232990Y-101849724D01*
X339232990Y-101849724D02*
X339232992Y-101299728D01*
X339232990Y-101849724D02*
X339232990Y-102399732D01*
X339232990Y-101849724D02*
X339832990Y-101449727D01*
X339832990Y-101449727D02*
X339832990Y-102249727D01*
X339832990Y-102249727D02*
X339232990Y-101849724D01*
X339832995Y-101849727D02*
X340332990Y-101849727D01*
%TO.C,D9*%
X320832984Y-99349720D02*
X321232984Y-99349717D01*
X321232984Y-99349717D02*
X321232986Y-98799721D01*
X321232984Y-99349717D02*
X321232984Y-99899725D01*
X321232984Y-99349717D02*
X321832984Y-98949720D01*
X321832984Y-98949720D02*
X321832984Y-99749720D01*
X321832984Y-99749720D02*
X321232984Y-99349717D01*
X321832989Y-99349720D02*
X322332984Y-99349720D01*
%TO.C,D2*%
X358633861Y-90279267D02*
X359032893Y-90307167D01*
X359032893Y-90307167D02*
X358994523Y-90855829D01*
X359032893Y-90307167D02*
X359071253Y-89758509D01*
X359032893Y-90307167D02*
X359659328Y-89949998D01*
X359603522Y-90748049D02*
X359032893Y-90307167D01*
X359631425Y-90349023D02*
X360130207Y-90383901D01*
X359659328Y-89949998D02*
X359603522Y-90748049D01*
%TO.C,D25*%
X264352756Y-130548407D02*
X264699166Y-130348409D01*
X264699166Y-130348409D02*
X264424168Y-129872092D01*
X264699166Y-130348409D02*
X264974171Y-130824721D01*
X264699166Y-130348409D02*
X265018786Y-129702002D01*
X265018786Y-129702002D02*
X265418779Y-130394816D01*
X265218781Y-130048407D02*
X265651794Y-129798407D01*
X265418779Y-130394816D02*
X264699166Y-130348409D01*
%TO.C,D6*%
X338832980Y-84849732D02*
X339232980Y-84849729D01*
X339232980Y-84849729D02*
X339232982Y-84299733D01*
X339232980Y-84849729D02*
X339232980Y-85399737D01*
X339232980Y-84849729D02*
X339832980Y-84449732D01*
X339832980Y-84449732D02*
X339832980Y-85249732D01*
X339832980Y-85249732D02*
X339232980Y-84849729D01*
X339832985Y-84849732D02*
X340332980Y-84849732D01*
%TO.C,D17*%
X284832985Y-104349732D02*
X285232985Y-104349729D01*
X285232985Y-104349729D02*
X285232987Y-103799733D01*
X285232985Y-104349729D02*
X285232985Y-104899737D01*
X285232985Y-104349729D02*
X285832985Y-103949732D01*
X285832985Y-103949732D02*
X285832985Y-104749732D01*
X285832985Y-104749732D02*
X285232985Y-104349729D01*
X285832990Y-104349732D02*
X286332985Y-104349732D01*
%TO.C,D28*%
X247200638Y-116032014D02*
X247528302Y-115802584D01*
X247528302Y-115802584D02*
X247212836Y-115352049D01*
X247528302Y-115802584D02*
X247790361Y-115130781D01*
X247528302Y-115802584D02*
X247843769Y-116253122D01*
X247790361Y-115130781D02*
X248249220Y-115786099D01*
X248019790Y-115458438D02*
X248429366Y-115171650D01*
X248249220Y-115786099D02*
X247528302Y-115802584D01*
%TO.C,D14*%
X302832978Y-84849714D02*
X303232978Y-84849711D01*
X303232978Y-84849711D02*
X303232980Y-84299715D01*
X303232978Y-84849711D02*
X303232978Y-85399719D01*
X303232978Y-84849711D02*
X303832978Y-84449714D01*
X303832978Y-84449714D02*
X303832978Y-85249714D01*
X303832978Y-85249714D02*
X303232978Y-84849711D01*
X303832983Y-84849714D02*
X304332978Y-84849714D01*
%TO.C,D22*%
X266832985Y-70349720D02*
X267232985Y-70349717D01*
X267232985Y-70349717D02*
X267232987Y-69799721D01*
X267232985Y-70349717D02*
X267232985Y-70899725D01*
X267232985Y-70349717D02*
X267832985Y-69949720D01*
X267832985Y-69949720D02*
X267832985Y-70749720D01*
X267832985Y-70749720D02*
X267232985Y-70349717D01*
X267832990Y-70349720D02*
X268332985Y-70349720D01*
%TO.C,D7*%
X338832974Y-67849727D02*
X339232974Y-67849724D01*
X339232974Y-67849724D02*
X339232976Y-67299728D01*
X339232974Y-67849724D02*
X339232974Y-68399732D01*
X339232974Y-67849724D02*
X339832974Y-67449727D01*
X339832974Y-67449727D02*
X339832974Y-68249727D01*
X339832974Y-68249727D02*
X339232974Y-67849724D01*
X339832979Y-67849727D02*
X340332974Y-67849727D01*
%TO.C,D16*%
X302832994Y-50849715D02*
X303232994Y-50849712D01*
X303232994Y-50849712D02*
X303232996Y-50299716D01*
X303232994Y-50849712D02*
X303232994Y-51399720D01*
X303232994Y-50849712D02*
X303832994Y-50449715D01*
X303832994Y-50449715D02*
X303832994Y-51249715D01*
X303832994Y-51249715D02*
X303232994Y-50849712D01*
X303832999Y-50849715D02*
X304332994Y-50849715D01*
%TO.C,D19*%
X284832979Y-70349714D02*
X285232979Y-70349711D01*
X285232979Y-70349711D02*
X285232981Y-69799715D01*
X285232979Y-70349711D02*
X285232979Y-70899719D01*
X285232979Y-70349711D02*
X285832979Y-69949714D01*
X285832979Y-69949714D02*
X285832979Y-70749714D01*
X285832979Y-70749714D02*
X285232979Y-70349711D01*
X285832984Y-70349714D02*
X286332979Y-70349714D01*
%TO.C,D29*%
X233292689Y-130308338D02*
X233522113Y-129980675D01*
X233522113Y-129980675D02*
X233071587Y-129665209D01*
X233522113Y-129980675D02*
X233538604Y-129259755D01*
X233522113Y-129980675D02*
X233972654Y-130296143D01*
X233538604Y-129259755D02*
X234193926Y-129718617D01*
X233866265Y-129489186D02*
X234153053Y-129079610D01*
X234193926Y-129718617D02*
X233522113Y-129980675D01*
%TO.C,D3*%
X359819716Y-73320697D02*
X360218748Y-73348597D01*
X360218748Y-73348597D02*
X360180378Y-73897259D01*
X360218748Y-73348597D02*
X360257108Y-72799939D01*
X360218748Y-73348597D02*
X360845183Y-72991428D01*
X360789377Y-73789479D02*
X360218748Y-73348597D01*
X360817280Y-73390453D02*
X361316062Y-73425331D01*
X360845183Y-72991428D02*
X360789377Y-73789479D01*
%TO.C,D27*%
X265152625Y-107373459D02*
X265539000Y-107269932D01*
X265539000Y-107269932D02*
X265396647Y-106738671D01*
X265539000Y-107269932D02*
X265681347Y-107801195D01*
X265539000Y-107269932D02*
X266015022Y-106728274D01*
X266015022Y-106728274D02*
X266222077Y-107501011D01*
X266118552Y-107114640D02*
X266601513Y-106985231D01*
X266222077Y-107501011D02*
X265539000Y-107269932D01*
%TO.C,D4*%
X361005576Y-56362104D02*
X361404608Y-56390004D01*
X361404608Y-56390004D02*
X361366238Y-56938666D01*
X361404608Y-56390004D02*
X361442968Y-55841346D01*
X361404608Y-56390004D02*
X362031043Y-56032835D01*
X361975237Y-56830886D02*
X361404608Y-56390004D01*
X362003140Y-56431860D02*
X362501922Y-56466738D01*
X362031043Y-56032835D02*
X361975237Y-56830886D01*
%TO.C,D12*%
X320832974Y-48349717D02*
X321232974Y-48349714D01*
X321232974Y-48349714D02*
X321232976Y-47799718D01*
X321232974Y-48349714D02*
X321232974Y-48899722D01*
X321232974Y-48349714D02*
X321832974Y-47949717D01*
X321832974Y-47949717D02*
X321832974Y-48749717D01*
X321832974Y-48749717D02*
X321232974Y-48349714D01*
X321832979Y-48349717D02*
X322332974Y-48349717D01*
%TO.C,D10*%
X320832982Y-82349717D02*
X321232982Y-82349714D01*
X321232982Y-82349714D02*
X321232984Y-81799718D01*
X321232982Y-82349714D02*
X321232982Y-82899722D01*
X321232982Y-82349714D02*
X321832982Y-81949717D01*
X321832982Y-81949717D02*
X321832982Y-82749717D01*
X321832982Y-82749717D02*
X321232982Y-82349714D01*
X321832987Y-82349717D02*
X322332982Y-82349717D01*
%TD*%
D14*
%TO.C,MCU1*%
X238962987Y-42539734D03*
X238962975Y-45079734D03*
X238962978Y-47619730D03*
X238962980Y-50159733D03*
X238962976Y-52699731D03*
X238962979Y-55239729D03*
X238962978Y-57779733D03*
X238962980Y-60319734D03*
X238962978Y-62859732D03*
X238962978Y-65399733D03*
X238962977Y-67939734D03*
X238962983Y-70479732D03*
X254202969Y-70479730D03*
X254202981Y-67939730D03*
X254202978Y-65399734D03*
X254202976Y-62859731D03*
X254202980Y-60319733D03*
X254202977Y-57779735D03*
X254202978Y-55239731D03*
X254202976Y-52699730D03*
X254202978Y-50159732D03*
X254202978Y-47619731D03*
X254202979Y-45079730D03*
X254202973Y-42539732D03*
X241502978Y-65399732D03*
X244042978Y-65399732D03*
X246582978Y-65399732D03*
%TD*%
M02*
