M48
; DRILL file {KiCad 8.0.4} date 2024-09-30T21:29:45-0600
; FORMAT={-:-/ absolute / inch / decimal}
; #@! TF.CreationDate,2024-09-30T21:29:45-06:00
; #@! TF.GenerationSoftware,Kicad,Pcbnew,8.0.4
; #@! TF.FileFunction,Plated,1,2,PTH
FMAT,2
INCH
; #@! TA.AperFunction,Plated,PTH,ViaDrill
T1C0.0157
; #@! TA.AperFunction,Plated,PTH,ComponentDrill
T2C0.0295
; #@! TA.AperFunction,Plated,PTH,ComponentDrill
T3C0.0390
; #@! TA.AperFunction,Plated,PTH,ComponentDrill
T4C0.0430
%
G90
G05
T1
X9.6621Y-3.1663
T2
X9.8261Y-2.935
X9.8261Y-3.0138
T3
X9.1157Y-5.2289
X9.2877Y-4.9832
X9.6336Y-4.6373
X9.7357Y-5.7442
X9.8794Y-4.4652
X9.9285Y-5.5144
X10.3033Y-5.1999
X10.3227Y-4.2585
X10.3848Y-2.1004
X10.3848Y-3.439
X10.3848Y-2.7697
X10.5631Y-5.0499
X10.6125Y-4.1808
X10.6848Y-2.1004
X10.6848Y-3.439
X10.6848Y-2.7697
X11.0118Y-4.8793
X11.0934Y-2.7697
X11.0934Y-3.439
X11.0934Y-4.1083
X11.0934Y-2.1004
X11.3072Y-4.8273
X11.3934Y-2.7697
X11.3934Y-3.439
X11.3934Y-4.1083
X11.3934Y-2.1004
X11.8021Y-2.6712
X11.8021Y-3.3405
X11.8021Y-4.0098
X11.8021Y-2.002
X12.1021Y-2.6712
X12.1021Y-3.3405
X12.1021Y-4.0098
X12.1021Y-2.002
X12.5107Y-1.9035
X12.5107Y-2.5728
X12.5107Y-3.2421
X12.5107Y-3.9114
X12.8107Y-1.9035
X12.8107Y-2.5728
X12.8107Y-3.2421
X12.8107Y-3.9114
X13.2194Y-2.6712
X13.2194Y-2.002
X13.2194Y-3.3405
X13.2194Y-4.0098
X13.5194Y-2.6712
X13.5194Y-2.002
X13.5194Y-3.3405
X13.5194Y-4.0098
X13.9526Y-4.2136
X13.9993Y-3.5459
X14.046Y-2.8782
X14.0926Y-2.2106
X14.2518Y-4.2345
X14.2985Y-3.5668
X14.3452Y-2.8992
X14.3919Y-2.2315
T4
X9.408Y-1.7748
X9.408Y-2.0748
X9.408Y-2.6748
X9.408Y-1.8748
X9.408Y-2.2748
X9.408Y-2.4748
X9.408Y-2.5748
X9.408Y-2.1748
X9.408Y-1.9748
X9.408Y-2.3748
X9.408Y-2.7748
X9.408Y-1.6748
X9.508Y-2.5748
X9.608Y-2.5748
X9.708Y-2.5748
X10.008Y-2.7748
X10.008Y-1.6748
X10.008Y-2.0748
X10.008Y-2.4748
X10.008Y-2.2748
X10.008Y-1.8748
X10.008Y-1.9748
X10.008Y-2.1748
X10.008Y-2.5748
X10.008Y-1.7748
X10.008Y-2.3748
X10.008Y-2.6748
M30
