M48
; DRILL file {KiCad 8.0.4} date 2024-09-30T21:29:45-0600
; FORMAT={-:-/ absolute / inch / decimal}
; #@! TF.CreationDate,2024-09-30T21:29:45-06:00
; #@! TF.GenerationSoftware,Kicad,Pcbnew,8.0.4
; #@! TF.FileFunction,NonPlated,1,2,NPTH
FMAT,2
INCH
; #@! TA.AperFunction,NonPlated,NPTH,ComponentDrill
T1C0.0295
; #@! TA.AperFunction,NonPlated,NPTH,ComponentDrill
T2C0.0354
; #@! TA.AperFunction,NonPlated,NPTH,ComponentDrill
T3C0.0670
; #@! TA.AperFunction,NonPlated,NPTH,ComponentDrill
T4C0.1181
; #@! TA.AperFunction,NonPlated,NPTH,ComponentDrill
T5C0.1350
; #@! TA.AperFunction,NonPlated,NPTH,ComponentDrill
T6C0.1575
%
G90
G05
T1
X9.205Y-3.0748
X9.3133Y-3.0748
T2
X9.2592Y-3.3705
X9.2592Y-3.4886
T3
X8.9162Y-5.1705
X9.1646Y-4.8158
X9.4662Y-4.5142
X9.5421Y-5.6686
X9.8205Y-5.3369
X9.821Y-4.2658
X10.1472Y-5.0627
X10.2075Y-4.0856
X10.3182Y-3.2421
X10.3182Y-2.5728
X10.3182Y-1.9035
X10.5223Y-4.8462
X10.6258Y-3.9735
X10.7513Y-3.2421
X10.7513Y-2.5728
X10.7513Y-1.9035
X10.9121Y-4.697
X11.0269Y-1.9035
X11.0269Y-3.2421
X11.0269Y-3.9114
X11.0269Y-2.5728
X11.3386Y-4.6218
X11.46Y-1.9035
X11.46Y-3.2421
X11.46Y-3.9114
X11.46Y-2.5728
X11.7356Y-1.8051
X11.7356Y-3.813
X11.7356Y-2.4744
X11.7356Y-3.1437
X12.1686Y-1.8051
X12.1686Y-3.813
X12.1686Y-2.4744
X12.1686Y-3.1437
X12.4442Y-1.7067
X12.4442Y-2.376
X12.4442Y-3.0453
X12.4442Y-3.7146
X12.8773Y-1.7067
X12.8773Y-2.376
X12.8773Y-3.0453
X12.8773Y-3.7146
X13.1529Y-3.813
X13.1529Y-1.8051
X13.1529Y-3.1437
X13.1529Y-2.4744
X13.5859Y-3.813
X13.5859Y-1.8051
X13.5859Y-3.1437
X13.5859Y-2.4744
X13.8999Y-4.0125
X13.9466Y-3.3449
X13.9933Y-2.6772
X14.04Y-2.0096
X14.332Y-4.0428
X14.3786Y-3.3751
X14.4253Y-2.7074
X14.472Y-2.0398
T4
X8.8485Y-4.8588
X9.0324Y-4.7472
X9.5019Y-5.3522
X9.5092Y-4.1981
X9.6947Y-5.2571
X9.7202Y-4.1562
X10.2176Y-4.7516
X10.356Y-3.8032
X10.4314Y-4.7282
X10.5348Y-3.0079
X10.5348Y-2.3386
X10.5348Y-1.6693
X10.5686Y-3.836
X10.7316Y-3.0945
X10.7316Y-2.4252
X10.7316Y-1.7559
X11.0846Y-4.4287
X11.2434Y-1.6693
X11.2434Y-3.0079
X11.2434Y-3.6772
X11.2434Y-2.3386
X11.2935Y-4.4799
X11.4403Y-1.7559
X11.4403Y-3.0945
X11.4403Y-3.7638
X11.4403Y-2.4252
X11.9521Y-1.5709
X11.9521Y-3.5787
X11.9521Y-2.2401
X11.9521Y-2.9094
X12.1489Y-1.6575
X12.1489Y-3.6653
X12.1489Y-2.3268
X12.1489Y-2.9961
X12.6607Y-1.4724
X12.6607Y-2.1417
X12.6607Y-2.811
X12.6607Y-3.4803
X12.8576Y-1.559
X12.8576Y-2.2283
X12.8576Y-2.8976
X12.8576Y-3.5669
X13.3694Y-3.5787
X13.3694Y-1.5709
X13.3694Y-2.9094
X13.3694Y-2.2401
X13.5663Y-3.6653
X13.5663Y-1.6575
X13.5663Y-2.9961
X13.5663Y-2.3268
X14.1323Y-3.794
X14.179Y-3.1263
X14.2257Y-2.4586
X14.2723Y-1.791
X14.3226Y-3.8941
X14.3693Y-3.2264
X14.416Y-2.5588
X14.4627Y-1.8911
T5
X9.0404Y-4.9932
X9.6436Y-4.39
X9.6813Y-5.5027
X10.3347Y-4.9545
X10.4167Y-4.0295
X10.5348Y-3.2421
X10.5348Y-2.5728
X10.5348Y-1.9035
X11.1253Y-4.6594
X11.2434Y-1.9035
X11.2434Y-3.2421
X11.2434Y-3.9114
X11.2434Y-2.5728
X11.9521Y-1.8051
X11.9521Y-3.813
X11.9521Y-2.4744
X11.9521Y-3.1437
X12.6607Y-1.7067
X12.6607Y-2.376
X12.6607Y-3.0453
X12.6607Y-3.7146
X13.3694Y-3.813
X13.3694Y-1.8051
X13.3694Y-3.1437
X13.3694Y-2.4744
X14.1159Y-4.0277
X14.1626Y-3.36
X14.2093Y-2.6923
X14.256Y-2.0247
T6
X9.6135Y-2.9744
X10.0714Y-5.2982
X11.6119Y-2.1398
X13.7237Y-4.2461
X13.8222Y-2.1398
M30
