%TF.GenerationSoftware,KiCad,Pcbnew,8.0.4*%
%TF.CreationDate,2024-09-30T21:28:59-06:00*%
%TF.ProjectId,right_finished,72696768-745f-4666-996e-69736865642e,v1.0.0*%
%TF.SameCoordinates,Original*%
%TF.FileFunction,Profile,NP*%
%FSLAX46Y46*%
G04 Gerber Fmt 4.6, Leading zero omitted, Abs format (unit mm)*
G04 Created by KiCad (PCBNEW 8.0.4) date 2024-09-30 21:28:59*
%MOMM*%
%LPD*%
G01*
G04 APERTURE LIST*
%TA.AperFunction,Profile*%
%ADD10C,0.150000*%
%TD*%
G04 APERTURE END LIST*
D10*
X275989061Y-130682090D02*
X294287740Y-127455561D01*
X227304740Y-110817863D02*
G75*
G02*
X227044229Y-111336907I-1898386J627913D01*
G01*
X350953292Y-34831706D02*
G75*
G02*
X351209220Y-34884481I-275147J-1981237D01*
G01*
X259898000Y-140206956D02*
G75*
G02*
X260409863Y-139772325I1532155J-1285688D01*
G01*
X332944751Y-32349731D02*
X310147853Y-32349731D01*
X372763579Y-40820916D02*
G75*
G02*
X374227697Y-42888628I-531028J-1928230D01*
G01*
X233082994Y-39224052D02*
G75*
G02*
X234953376Y-37228295I1999955J4D01*
G01*
X275316108Y-130931505D02*
G75*
G02*
X275989063Y-130682103I1020153J-1720042D01*
G01*
X328325073Y-107911158D02*
X346132002Y-112429309D01*
X295934817Y-125635730D02*
X296962114Y-111958910D01*
X248225347Y-154117862D02*
X259897999Y-140206955D01*
X295934821Y-125635728D02*
G75*
G02*
X294287739Y-127455557I-1994364J149768D01*
G01*
X372763587Y-40820919D02*
X351209219Y-34884486D01*
X296962105Y-111958908D02*
G75*
G02*
X298681366Y-110127786I1994352J-149842D01*
G01*
X346484373Y-112485874D02*
G75*
G02*
X346132003Y-112429306I139482J1994623D01*
G01*
X215621733Y-131090400D02*
G75*
G02*
X215152329Y-128320382I1168826J1622849D01*
G01*
X260409849Y-139772302D02*
X275316108Y-130931505D01*
X327833206Y-107849718D02*
G75*
G02*
X328325077Y-107911143I56J-1999632D01*
G01*
X369389141Y-112082635D02*
X374227635Y-42888624D01*
X298681358Y-110127730D02*
X314946073Y-107868738D01*
X233082994Y-39224052D02*
X233082973Y-93027532D01*
X232981787Y-93655617D02*
X227304734Y-110817859D01*
X315221199Y-107849720D02*
X327833209Y-107849725D01*
X310018243Y-32353930D02*
G75*
G02*
X310147853Y-32349731I129516J-1995124D01*
G01*
X233082977Y-93027529D02*
G75*
G02*
X232981785Y-93655616I-1999722J-18D01*
G01*
X227044223Y-111336903D02*
X215152295Y-128320358D01*
X215621733Y-131090406D02*
X230026764Y-141465393D01*
X314946073Y-107868738D02*
G75*
G02*
X315221199Y-107849725I275178J-1981803D01*
G01*
X332944753Y-32349730D02*
G75*
G02*
X333219888Y-32368734I3J-2001114D01*
G01*
X346484373Y-112485874D02*
X367254492Y-113938259D01*
X248225347Y-154117862D02*
G75*
G02*
X245407677Y-154364373I-1532094J1285622D01*
G01*
X310018243Y-32353930D02*
X234953374Y-37228260D01*
X230026764Y-141465393D02*
G75*
G02*
X230143461Y-141556186I-1168106J-1621761D01*
G01*
X350953290Y-34831708D02*
X333219889Y-32368725D01*
X230143469Y-141556176D02*
X245407672Y-154364379D01*
X369389141Y-112082635D02*
G75*
G02*
X367254495Y-113938219I-1995079J139490D01*
G01*
M02*
