%TF.GenerationSoftware,KiCad,Pcbnew,8.0.4*%
%TF.CreationDate,2024-09-30T21:28:59-06:00*%
%TF.ProjectId,right_finished,72696768-745f-4666-996e-69736865642e,v1.0.0*%
%TF.SameCoordinates,Original*%
%TF.FileFunction,Paste,Top*%
%TF.FilePolarity,Positive*%
%FSLAX46Y46*%
G04 Gerber Fmt 4.6, Leading zero omitted, Abs format (unit mm)*
G04 Created by KiCad (PCBNEW 8.0.4) date 2024-09-30 21:28:59*
%MOMM*%
%LPD*%
G01*
G04 APERTURE LIST*
G04 Aperture macros list*
%AMRotRect*
0 Rectangle, with rotation*
0 The origin of the aperture is its center*
0 $1 length*
0 $2 width*
0 $3 Rotation angle, in degrees counterclockwise*
0 Add horizontal line*
21,1,$1,$2,0,0,$3*%
G04 Aperture macros list end*
%ADD10RotRect,0.900000X1.200000X10.000000*%
%ADD11R,0.900000X1.200000*%
%ADD12RotRect,0.900000X1.200000X356.000000*%
%ADD13RotRect,0.900000X1.200000X50.000000*%
%ADD14RotRect,0.900000X1.200000X30.000000*%
%ADD15RotRect,0.900000X1.200000X35.000000*%
%ADD16RotRect,0.900000X1.200000X55.000000*%
%ADD17RotRect,0.900000X1.200000X15.000000*%
G04 APERTURE END LIST*
D10*
%TO.C,D24*%
X281826291Y-123560281D03*
X285076157Y-122987243D03*
%TD*%
D11*
%TO.C,D13*%
X301932987Y-101849732D03*
X305232987Y-101849732D03*
%TD*%
%TO.C,D15*%
X301932973Y-67849732D03*
X305232973Y-67849732D03*
%TD*%
%TO.C,D11*%
X319932982Y-65349721D03*
X323232982Y-65349721D03*
%TD*%
%TO.C,D8*%
X337932980Y-50849710D03*
X341232980Y-50849710D03*
%TD*%
%TO.C,D23*%
X265932976Y-53349729D03*
X269232976Y-53349729D03*
%TD*%
%TO.C,D18*%
X283932982Y-87349737D03*
X287232982Y-87349737D03*
%TD*%
%TO.C,D20*%
X283932986Y-53349715D03*
X287232986Y-53349715D03*
%TD*%
D12*
%TO.C,D1*%
X356550187Y-107175074D03*
X359842149Y-107405270D03*
%TD*%
D11*
%TO.C,D21*%
X265932983Y-87349710D03*
X269232983Y-87349710D03*
%TD*%
D13*
%TO.C,D26*%
X248674948Y-144247692D03*
X250796148Y-141719746D03*
%TD*%
D11*
%TO.C,D5*%
X337932990Y-101849727D03*
X341232990Y-101849727D03*
%TD*%
%TO.C,D9*%
X319932984Y-99349720D03*
X323232984Y-99349720D03*
%TD*%
D12*
%TO.C,D2*%
X357736053Y-90216486D03*
X361028015Y-90446682D03*
%TD*%
D14*
%TO.C,D25*%
X263573333Y-130998407D03*
X266431217Y-129348407D03*
%TD*%
D11*
%TO.C,D6*%
X337932980Y-84849732D03*
X341232980Y-84849732D03*
%TD*%
%TO.C,D17*%
X283932985Y-104349732D03*
X287232985Y-104349732D03*
%TD*%
D15*
%TO.C,D28*%
X246463401Y-116548233D03*
X249166603Y-114655431D03*
%TD*%
D11*
%TO.C,D14*%
X301932978Y-84849714D03*
X305232978Y-84849714D03*
%TD*%
%TO.C,D22*%
X265932985Y-70349720D03*
X269232985Y-70349720D03*
%TD*%
%TO.C,D7*%
X337932974Y-67849727D03*
X341232974Y-67849727D03*
%TD*%
%TO.C,D16*%
X301932994Y-50849715D03*
X305232994Y-50849715D03*
%TD*%
%TO.C,D19*%
X283932979Y-70349714D03*
X287232979Y-70349714D03*
%TD*%
D16*
%TO.C,D29*%
X232776470Y-131045575D03*
X234669272Y-128342373D03*
%TD*%
D12*
%TO.C,D3*%
X358921908Y-73257916D03*
X362213870Y-73488112D03*
%TD*%
D17*
%TO.C,D27*%
X264283291Y-107606395D03*
X267470847Y-106752295D03*
%TD*%
D12*
%TO.C,D4*%
X360107768Y-56299323D03*
X363399730Y-56529519D03*
%TD*%
D11*
%TO.C,D12*%
X319932974Y-48349717D03*
X323232974Y-48349717D03*
%TD*%
%TO.C,D10*%
X319932982Y-82349717D03*
X323232982Y-82349717D03*
%TD*%
M02*
