%TF.GenerationSoftware,KiCad,Pcbnew,8.0.4*%
%TF.CreationDate,2024-09-30T21:28:59-06:00*%
%TF.ProjectId,right_finished,72696768-745f-4666-996e-69736865642e,v1.0.0*%
%TF.SameCoordinates,Original*%
%TF.FileFunction,Copper,L2,Bot*%
%TF.FilePolarity,Positive*%
%FSLAX46Y46*%
G04 Gerber Fmt 4.6, Leading zero omitted, Abs format (unit mm)*
G04 Created by KiCad (PCBNEW 8.0.4) date 2024-09-30 21:28:59*
%MOMM*%
%LPD*%
G01*
G04 APERTURE LIST*
G04 Aperture macros list*
%AMRotRect*
0 Rectangle, with rotation*
0 The origin of the aperture is its center*
0 $1 length*
0 $2 width*
0 $3 Rotation angle, in degrees counterclockwise*
0 Add horizontal line*
21,1,$1,$2,0,0,$3*%
G04 Aperture macros list end*
%TA.AperFunction,SMDPad,CuDef*%
%ADD10R,0.900000X0.900000*%
%TD*%
%TA.AperFunction,WasherPad*%
%ADD11C,1.000000*%
%TD*%
%TA.AperFunction,SMDPad,CuDef*%
%ADD12R,1.250000X0.900000*%
%TD*%
%TA.AperFunction,SMDPad,CuDef*%
%ADD13R,2.600000X2.600000*%
%TD*%
%TA.AperFunction,ComponentPad*%
%ADD14RotRect,1.778000X1.778000X10.000000*%
%TD*%
%TA.AperFunction,SMDPad,CuDef*%
%ADD15RotRect,0.900000X1.200000X10.000000*%
%TD*%
%TA.AperFunction,ComponentPad*%
%ADD16C,1.905000*%
%TD*%
%TA.AperFunction,SMDPad,CuDef*%
%ADD17RotRect,2.600000X2.600000X35.000000*%
%TD*%
%TA.AperFunction,ComponentPad*%
%ADD18R,1.778000X1.778000*%
%TD*%
%TA.AperFunction,SMDPad,CuDef*%
%ADD19R,0.900000X1.200000*%
%TD*%
%TA.AperFunction,SMDPad,CuDef*%
%ADD20RotRect,2.600000X2.600000X30.000000*%
%TD*%
%TA.AperFunction,SMDPad,CuDef*%
%ADD21RotRect,2.600000X2.600000X356.000000*%
%TD*%
%TA.AperFunction,SMDPad,CuDef*%
%ADD22R,1.000000X1.550000*%
%TD*%
%TA.AperFunction,ComponentPad*%
%ADD23R,1.700000X1.200000*%
%TD*%
%TA.AperFunction,ComponentPad*%
%ADD24O,1.700000X1.200000*%
%TD*%
%TA.AperFunction,SMDPad,CuDef*%
%ADD25RotRect,2.600000X2.600000X15.000000*%
%TD*%
%TA.AperFunction,ComponentPad*%
%ADD26RotRect,1.778000X1.778000X356.000000*%
%TD*%
%TA.AperFunction,SMDPad,CuDef*%
%ADD27RotRect,0.900000X1.200000X356.000000*%
%TD*%
%TA.AperFunction,ComponentPad*%
%ADD28C,1.752600*%
%TD*%
%TA.AperFunction,ComponentPad*%
%ADD29RotRect,1.778000X1.778000X50.000000*%
%TD*%
%TA.AperFunction,SMDPad,CuDef*%
%ADD30RotRect,0.900000X1.200000X50.000000*%
%TD*%
%TA.AperFunction,ComponentPad*%
%ADD31RotRect,1.778000X1.778000X30.000000*%
%TD*%
%TA.AperFunction,SMDPad,CuDef*%
%ADD32RotRect,0.900000X1.200000X30.000000*%
%TD*%
%TA.AperFunction,ComponentPad*%
%ADD33RotRect,1.778000X1.778000X35.000000*%
%TD*%
%TA.AperFunction,SMDPad,CuDef*%
%ADD34RotRect,0.900000X1.200000X35.000000*%
%TD*%
%TA.AperFunction,SMDPad,CuDef*%
%ADD35RotRect,2.600000X2.600000X55.000000*%
%TD*%
%TA.AperFunction,SMDPad,CuDef*%
%ADD36RotRect,2.600000X2.600000X10.000000*%
%TD*%
%TA.AperFunction,ComponentPad*%
%ADD37RotRect,1.778000X1.778000X55.000000*%
%TD*%
%TA.AperFunction,SMDPad,CuDef*%
%ADD38RotRect,0.900000X1.200000X55.000000*%
%TD*%
%TA.AperFunction,ComponentPad*%
%ADD39RotRect,1.778000X1.778000X15.000000*%
%TD*%
%TA.AperFunction,SMDPad,CuDef*%
%ADD40RotRect,0.900000X1.200000X15.000000*%
%TD*%
%TA.AperFunction,SMDPad,CuDef*%
%ADD41RotRect,2.600000X2.600000X50.000000*%
%TD*%
%TA.AperFunction,ViaPad*%
%ADD42C,0.800000*%
%TD*%
%TA.AperFunction,Conductor*%
%ADD43C,0.250000*%
%TD*%
G04 APERTURE END LIST*
D10*
%TO.P,T1,*%
%TO.N,*%
X234082991Y-90809720D03*
X236282990Y-90809718D03*
D11*
X235182992Y-88609720D03*
X235182992Y-85609720D03*
D10*
X234082994Y-83409722D03*
X236282993Y-83409720D03*
D12*
%TO.P,T1,1*%
%TO.N,pos*%
X237257992Y-89359720D03*
%TO.P,T1,2*%
%TO.N,RAW*%
X237257992Y-86359720D03*
%TO.P,T1,3*%
%TO.N,N/C*%
X237257992Y-84859720D03*
%TD*%
D13*
%TO.P,S16,1*%
%TO.N,P115*%
X300307972Y-39899724D03*
%TO.P,S16,2*%
%TO.N,mirror_index_num*%
X311857974Y-42099728D03*
%TD*%
D14*
%TO.P,D24,1*%
%TO.N,P024*%
X279699105Y-123935362D03*
D15*
X281826291Y-123560281D03*
%TO.P,D24,2*%
%TO.N,mirror_near_thumbbottom*%
X285076157Y-122987243D03*
D16*
X287203343Y-122612162D03*
%TD*%
D17*
%TO.P,S28,1*%
%TO.N,P104*%
X238851625Y-108510571D03*
%TO.P,S28,2*%
%TO.N,mirror_home_thumbupper*%
X249574700Y-103687898D03*
%TD*%
D18*
%TO.P,D13,1*%
%TO.N,P024*%
X299772987Y-101849732D03*
D19*
X301932987Y-101849732D03*
%TO.P,D13,2*%
%TO.N,mirror_index_bottom*%
X305232987Y-101849732D03*
D16*
X307392987Y-101849732D03*
%TD*%
D18*
%TO.P,D15,1*%
%TO.N,P009*%
X299772973Y-67849732D03*
D19*
X301932973Y-67849732D03*
%TO.P,D15,2*%
%TO.N,mirror_index_top*%
X305232973Y-67849732D03*
D16*
X307392973Y-67849732D03*
%TD*%
D13*
%TO.P,S13,1*%
%TO.N,P115*%
X300307981Y-90899727D03*
%TO.P,S13,2*%
%TO.N,mirror_index_bottom*%
X311857983Y-93099731D03*
%TD*%
D18*
%TO.P,D11,1*%
%TO.N,P009*%
X317772982Y-65349721D03*
D19*
X319932982Y-65349721D03*
%TO.P,D11,2*%
%TO.N,mirror_middle_top*%
X323232982Y-65349721D03*
D16*
X325392982Y-65349721D03*
%TD*%
D20*
%TO.P,S25,1*%
%TO.N,P104*%
X256691047Y-122327925D03*
%TO.P,S25,2*%
%TO.N,mirror_home_thumbbottom*%
X267793644Y-118458186D03*
%TD*%
D21*
%TO.P,S1,1*%
%TO.N,P031*%
X355692998Y-96138420D03*
%TO.P,S1,2*%
%TO.N,mirror_pinky_bottom*%
X367061400Y-99138753D03*
%TD*%
D18*
%TO.P,D8,1*%
%TO.N,P010*%
X335772980Y-50849710D03*
D19*
X337932980Y-50849710D03*
%TO.P,D8,2*%
%TO.N,mirror_ring_num*%
X341232980Y-50849710D03*
D16*
X343392980Y-50849710D03*
%TD*%
D22*
%TO.P,B1,1*%
%TO.N,GND*%
X234332974Y-80724725D03*
X234332974Y-75474725D03*
%TO.P,B1,2*%
%TO.N,RST*%
X236032974Y-80724725D03*
X236032974Y-75474725D03*
%TD*%
D13*
%TO.P,S18,1*%
%TO.N,P113*%
X282307981Y-76399720D03*
%TO.P,S18,2*%
%TO.N,mirror_inner_home*%
X293857983Y-78599724D03*
%TD*%
D21*
%TO.P,S3,1*%
%TO.N,P031*%
X358064703Y-62221219D03*
%TO.P,S3,2*%
%TO.N,mirror_pinky_top*%
X369433105Y-65221552D03*
%TD*%
D18*
%TO.P,D23,1*%
%TO.N,P010*%
X263772976Y-53349729D03*
D19*
X265932976Y-53349729D03*
%TO.P,D23,2*%
%TO.N,mirror_extras_num*%
X269232976Y-53349729D03*
D16*
X271392976Y-53349729D03*
%TD*%
D18*
%TO.P,D18,1*%
%TO.N,P100*%
X281772982Y-87349737D03*
D19*
X283932982Y-87349737D03*
%TO.P,D18,2*%
%TO.N,mirror_inner_home*%
X287232982Y-87349737D03*
D16*
X289392982Y-87349737D03*
%TD*%
D23*
%TO.P,JST1,1*%
%TO.N,pos*%
X249582980Y-76549704D03*
D24*
%TO.P,JST1,2*%
%TO.N,GND*%
X249582980Y-74549696D03*
%TD*%
D18*
%TO.P,D20,1*%
%TO.N,P010*%
X281772986Y-53349715D03*
D19*
X283932986Y-53349715D03*
%TO.P,D20,2*%
%TO.N,mirror_inner_num*%
X287232986Y-53349715D03*
D16*
X289392986Y-53349715D03*
%TD*%
D25*
%TO.P,S27,1*%
%TO.N,P106*%
X259879597Y-97450101D03*
%TO.P,S27,2*%
%TO.N,mirror_near_thumbupper*%
X271605441Y-96585782D03*
%TD*%
D26*
%TO.P,D1,1*%
%TO.N,P024*%
X354395449Y-107024400D03*
D27*
X356550187Y-107175074D03*
%TO.P,D1,2*%
%TO.N,mirror_pinky_bottom*%
X359842149Y-107405270D03*
D16*
X361996887Y-107555944D03*
%TD*%
D13*
%TO.P,S6,1*%
%TO.N,P029*%
X336307985Y-73899709D03*
%TO.P,S6,2*%
%TO.N,mirror_ring_home*%
X347857987Y-76099713D03*
%TD*%
D18*
%TO.P,D21,1*%
%TO.N,P100*%
X263772983Y-87349710D03*
D19*
X265932983Y-87349710D03*
%TO.P,D21,2*%
%TO.N,mirror_extras_home*%
X269232983Y-87349710D03*
D16*
X271392983Y-87349710D03*
%TD*%
D28*
%TO.P,MCU1,1*%
%TO.N,P006*%
X238962987Y-42539734D03*
%TO.P,MCU1,2*%
%TO.N,P008*%
X238962975Y-45079734D03*
%TO.P,MCU1,3*%
%TO.N,GND*%
X238962978Y-47619730D03*
%TO.P,MCU1,4*%
X238962980Y-50159733D03*
%TO.P,MCU1,5*%
%TO.N,P017*%
X238962976Y-52699731D03*
%TO.P,MCU1,6*%
%TO.N,P020*%
X238962979Y-55239729D03*
%TO.P,MCU1,7*%
%TO.N,P022*%
X238962978Y-57779733D03*
%TO.P,MCU1,8*%
%TO.N,P024*%
X238962980Y-60319734D03*
%TO.P,MCU1,9*%
%TO.N,P100*%
X238962978Y-62859732D03*
%TO.P,MCU1,10*%
%TO.N,P011*%
X238962978Y-65399733D03*
%TO.P,MCU1,11*%
%TO.N,P104*%
X238962977Y-67939734D03*
%TO.P,MCU1,12*%
%TO.N,P106*%
X238962983Y-70479732D03*
%TO.P,MCU1,13*%
%TO.N,P009*%
X254202969Y-70479730D03*
%TO.P,MCU1,14*%
%TO.N,P010*%
X254202981Y-67939730D03*
%TO.P,MCU1,15*%
%TO.N,P111*%
X254202978Y-65399734D03*
%TO.P,MCU1,16*%
%TO.N,P113*%
X254202976Y-62859731D03*
%TO.P,MCU1,17*%
%TO.N,P115*%
X254202980Y-60319733D03*
%TO.P,MCU1,18*%
%TO.N,P002*%
X254202977Y-57779735D03*
%TO.P,MCU1,19*%
%TO.N,P029*%
X254202978Y-55239731D03*
%TO.P,MCU1,20*%
%TO.N,P031*%
X254202976Y-52699730D03*
%TO.P,MCU1,21*%
%TO.N,VCC*%
X254202978Y-50159732D03*
%TO.P,MCU1,22*%
%TO.N,RST*%
X254202978Y-47619731D03*
%TO.P,MCU1,23*%
%TO.N,GND*%
X254202979Y-45079730D03*
%TO.P,MCU1,24*%
%TO.N,RAW*%
X254202973Y-42539732D03*
%TO.P,MCU1,31*%
%TO.N,P101*%
X241502978Y-65399732D03*
%TO.P,MCU1,32*%
%TO.N,P102*%
X244042978Y-65399732D03*
%TO.P,MCU1,33*%
%TO.N,P107*%
X246582978Y-65399732D03*
%TD*%
D29*
%TO.P,D26,1*%
%TO.N,P024*%
X247286527Y-145902348D03*
D30*
X248674948Y-144247692D03*
%TO.P,D26,2*%
%TO.N,mirror_far_thumbbottom*%
X250796148Y-141719746D03*
D16*
X252184569Y-140065090D03*
%TD*%
D13*
%TO.P,S12,1*%
%TO.N,P002*%
X318307980Y-37399728D03*
%TO.P,S12,2*%
%TO.N,mirror_middle_num*%
X329857982Y-39599732D03*
%TD*%
D18*
%TO.P,D5,1*%
%TO.N,P024*%
X335772990Y-101849727D03*
D19*
X337932990Y-101849727D03*
%TO.P,D5,2*%
%TO.N,mirror_ring_bottom*%
X341232990Y-101849727D03*
D16*
X343392990Y-101849727D03*
%TD*%
D13*
%TO.P,S7,1*%
%TO.N,P029*%
X336307988Y-56899717D03*
%TO.P,S7,2*%
%TO.N,mirror_ring_top*%
X347857990Y-59099721D03*
%TD*%
D18*
%TO.P,D9,1*%
%TO.N,P024*%
X317772984Y-99349720D03*
D19*
X319932984Y-99349720D03*
%TO.P,D9,2*%
%TO.N,mirror_middle_bottom*%
X323232984Y-99349720D03*
D16*
X325392984Y-99349720D03*
%TD*%
D26*
%TO.P,D2,1*%
%TO.N,P100*%
X355581315Y-90065812D03*
D27*
X357736053Y-90216486D03*
%TO.P,D2,2*%
%TO.N,mirror_pinky_home*%
X361028015Y-90446682D03*
D16*
X363182753Y-90597356D03*
%TD*%
D13*
%TO.P,S11,1*%
%TO.N,P002*%
X318307981Y-54399717D03*
%TO.P,S11,2*%
%TO.N,mirror_middle_top*%
X329857983Y-56599721D03*
%TD*%
%TO.P,S5,1*%
%TO.N,P029*%
X336307974Y-90899715D03*
%TO.P,S5,2*%
%TO.N,mirror_ring_bottom*%
X347857976Y-93099719D03*
%TD*%
%TO.P,S23,1*%
%TO.N,P111*%
X264307982Y-42399724D03*
%TO.P,S23,2*%
%TO.N,mirror_extras_num*%
X275857984Y-44599728D03*
%TD*%
%TO.P,S10,1*%
%TO.N,P002*%
X318307983Y-71399727D03*
%TO.P,S10,2*%
%TO.N,mirror_middle_home*%
X329857985Y-73599731D03*
%TD*%
D31*
%TO.P,D25,1*%
%TO.N,P024*%
X261702718Y-132078407D03*
D32*
X263573333Y-130998407D03*
%TO.P,D25,2*%
%TO.N,mirror_home_thumbbottom*%
X266431217Y-129348407D03*
D16*
X268301832Y-128268407D03*
%TD*%
D13*
%TO.P,S20,1*%
%TO.N,P113*%
X282307980Y-42399737D03*
%TO.P,S20,2*%
%TO.N,mirror_inner_num*%
X293857982Y-44599741D03*
%TD*%
D18*
%TO.P,D6,1*%
%TO.N,P100*%
X335772980Y-84849732D03*
D19*
X337932980Y-84849732D03*
%TO.P,D6,2*%
%TO.N,mirror_ring_home*%
X341232980Y-84849732D03*
D16*
X343392980Y-84849732D03*
%TD*%
D18*
%TO.P,D17,1*%
%TO.N,P024*%
X281772985Y-104349732D03*
D19*
X283932985Y-104349732D03*
%TO.P,D17,2*%
%TO.N,mirror_inner_bottom*%
X287232985Y-104349732D03*
D16*
X289392985Y-104349732D03*
%TD*%
D13*
%TO.P,S22,1*%
%TO.N,P111*%
X264307976Y-59399721D03*
%TO.P,S22,2*%
%TO.N,mirror_extras_top*%
X275857978Y-61599725D03*
%TD*%
D33*
%TO.P,D28,1*%
%TO.N,P100*%
X244694033Y-117787158D03*
D34*
X246463401Y-116548233D03*
%TO.P,D28,2*%
%TO.N,mirror_home_thumbupper*%
X249166603Y-114655431D03*
D16*
X250935971Y-113416506D03*
%TD*%
D18*
%TO.P,D14,1*%
%TO.N,P100*%
X299772978Y-84849714D03*
D19*
X301932978Y-84849714D03*
%TO.P,D14,2*%
%TO.N,mirror_index_home*%
X305232978Y-84849714D03*
D16*
X307392978Y-84849714D03*
%TD*%
D18*
%TO.P,D22,1*%
%TO.N,P009*%
X263772985Y-70349720D03*
D19*
X265932985Y-70349720D03*
%TO.P,D22,2*%
%TO.N,mirror_extras_top*%
X269232985Y-70349720D03*
D16*
X271392985Y-70349720D03*
%TD*%
D18*
%TO.P,D7,1*%
%TO.N,P009*%
X335772974Y-67849727D03*
D19*
X337932974Y-67849727D03*
%TO.P,D7,2*%
%TO.N,mirror_ring_top*%
X341232974Y-67849727D03*
D16*
X343392974Y-67849727D03*
%TD*%
D18*
%TO.P,D16,1*%
%TO.N,P010*%
X299772994Y-50849715D03*
D19*
X301932994Y-50849715D03*
%TO.P,D16,2*%
%TO.N,mirror_index_num*%
X305232994Y-50849715D03*
D16*
X307392994Y-50849715D03*
%TD*%
D21*
%TO.P,S2,1*%
%TO.N,P031*%
X356878845Y-79179812D03*
%TO.P,S2,2*%
%TO.N,mirror_pinky_home*%
X368247247Y-82180145D03*
%TD*%
D13*
%TO.P,S19,1*%
%TO.N,P113*%
X282307985Y-59399731D03*
%TO.P,S19,2*%
%TO.N,mirror_inner_top*%
X293857987Y-61599735D03*
%TD*%
D18*
%TO.P,D19,1*%
%TO.N,P009*%
X281772979Y-70349714D03*
D19*
X283932979Y-70349714D03*
%TO.P,D19,2*%
%TO.N,mirror_inner_top*%
X287232979Y-70349714D03*
D16*
X289392979Y-70349714D03*
%TD*%
D35*
%TO.P,S29,1*%
%TO.N,P011*%
X222874681Y-126096026D03*
%TO.P,S29,2*%
%TO.N,mirror_far_thumbupper*%
X231301625Y-117896688D03*
%TD*%
D13*
%TO.P,S17,1*%
%TO.N,P113*%
X282307984Y-93399714D03*
%TO.P,S17,2*%
%TO.N,mirror_inner_bottom*%
X293857986Y-95599718D03*
%TD*%
%TO.P,S14,1*%
%TO.N,P115*%
X300307984Y-73899712D03*
%TO.P,S14,2*%
%TO.N,mirror_index_home*%
X311857986Y-76099716D03*
%TD*%
%TO.P,S8,1*%
%TO.N,P029*%
X336307978Y-39899714D03*
%TO.P,S8,2*%
%TO.N,mirror_ring_num*%
X347857980Y-42099718D03*
%TD*%
D36*
%TO.P,S24,1*%
%TO.N,P106*%
X278324518Y-113058806D03*
%TO.P,S24,2*%
%TO.N,mirror_near_thumbbottom*%
X290081072Y-113219754D03*
%TD*%
D13*
%TO.P,S15,1*%
%TO.N,P115*%
X300307984Y-56899726D03*
%TO.P,S15,2*%
%TO.N,mirror_index_top*%
X311857986Y-59099730D03*
%TD*%
D37*
%TO.P,D29,1*%
%TO.N,P100*%
X231537545Y-132814943D03*
D38*
X232776470Y-131045575D03*
%TO.P,D29,2*%
%TO.N,mirror_far_thumbupper*%
X234669272Y-128342373D03*
D16*
X235908197Y-126573005D03*
%TD*%
D26*
%TO.P,D3,1*%
%TO.N,P009*%
X356767170Y-73107242D03*
D27*
X358921908Y-73257916D03*
%TO.P,D3,2*%
%TO.N,mirror_pinky_top*%
X362213870Y-73488112D03*
D16*
X364368608Y-73638786D03*
%TD*%
D13*
%TO.P,S21,1*%
%TO.N,P111*%
X264307965Y-76399725D03*
%TO.P,S21,2*%
%TO.N,mirror_extras_home*%
X275857967Y-78599729D03*
%TD*%
%TO.P,S9,1*%
%TO.N,P002*%
X318307983Y-88399715D03*
%TO.P,S9,2*%
%TO.N,mirror_middle_bottom*%
X329857985Y-90599719D03*
%TD*%
D39*
%TO.P,D27,1*%
%TO.N,P100*%
X262196892Y-108165447D03*
D40*
X264283291Y-107606395D03*
%TO.P,D27,2*%
%TO.N,mirror_near_thumbupper*%
X267470847Y-106752295D03*
D16*
X269557246Y-106193243D03*
%TD*%
D21*
%TO.P,S4,1*%
%TO.N,P031*%
X359250560Y-45262626D03*
%TO.P,S4,2*%
%TO.N,mirror_pinky_num*%
X370618962Y-48262959D03*
%TD*%
D41*
%TO.P,S26,1*%
%TO.N,P011*%
X239242252Y-138453992D03*
%TO.P,S26,2*%
%TO.N,mirror_far_thumbbottom*%
X248351747Y-131020312D03*
%TD*%
D26*
%TO.P,D4,1*%
%TO.N,P010*%
X357953030Y-56148649D03*
D27*
X360107768Y-56299323D03*
%TO.P,D4,2*%
%TO.N,mirror_pinky_num*%
X363399730Y-56529519D03*
D16*
X365554468Y-56680193D03*
%TD*%
D18*
%TO.P,D12,1*%
%TO.N,P010*%
X317772974Y-48349717D03*
D19*
X319932974Y-48349717D03*
%TO.P,D12,2*%
%TO.N,mirror_middle_num*%
X323232974Y-48349717D03*
D16*
X325392974Y-48349717D03*
%TD*%
D18*
%TO.P,D10,1*%
%TO.N,P100*%
X317772982Y-82349717D03*
D19*
X319932982Y-82349717D03*
%TO.P,D10,2*%
%TO.N,mirror_middle_home*%
X323232982Y-82349717D03*
D16*
X325392982Y-82349717D03*
%TD*%
D42*
%TO.N,RAW*%
X245417606Y-80422911D03*
%TD*%
D43*
%TO.N,P031*%
X359537948Y-38011318D02*
X359537952Y-38011324D01*
X350991959Y-35721423D02*
X359537948Y-38011318D01*
%TO.N,RAW*%
X237257990Y-86359719D02*
X239480793Y-86359723D01*
X239480793Y-86359723D02*
X245417606Y-80422911D01*
%TO.N,pos*%
X240996594Y-89359722D02*
X237257992Y-89359718D01*
X246969248Y-77387067D02*
X246969251Y-83387066D01*
X246969251Y-83387066D02*
X240996594Y-89359722D01*
X247806608Y-76549710D02*
X246969248Y-77387067D01*
X249582982Y-76549711D02*
X247806608Y-76549710D01*
%TO.N,P011*%
X227518074Y-114877897D02*
X227501360Y-114783111D01*
X226598830Y-116190716D02*
X227518074Y-114877897D01*
X250433165Y-91851305D02*
X227501360Y-114783111D01*
X252001367Y-90283117D02*
X250433165Y-91851305D01*
X252001366Y-76919506D02*
X252001367Y-90283117D01*
%TO.N,P104*%
X252501364Y-90419511D02*
X238851626Y-104069247D01*
X252501363Y-73783110D02*
X252501364Y-90419511D01*
X238001364Y-71919506D02*
X250637755Y-71919506D01*
X250637755Y-71919506D02*
X252501363Y-73783110D01*
X237501368Y-71419503D02*
X238001364Y-71919506D01*
X238962978Y-67939732D02*
X237501362Y-69401349D01*
X237501362Y-69401349D02*
X237501368Y-71419503D01*
X238851626Y-104069247D02*
X238851619Y-108510571D01*
%TO.N,P106*%
X253001365Y-90571860D02*
X259879598Y-97450094D01*
X251001366Y-71419509D02*
X253001365Y-73419506D01*
X239902757Y-71419508D02*
X251001366Y-71419509D01*
X253001365Y-73419506D02*
X253001365Y-90571860D01*
X238962982Y-70479727D02*
X239902757Y-71419508D01*
%TO.N,P011*%
X252001362Y-73919507D02*
X252001366Y-76919506D01*
X251501361Y-73419508D02*
X252001362Y-73919507D01*
X250501363Y-72419509D02*
X251501361Y-73419508D01*
X248501372Y-72419512D02*
X250501363Y-72419509D01*
X237864961Y-72419505D02*
X248501372Y-72419512D01*
X237433171Y-71987707D02*
X237864961Y-72419505D01*
X237001362Y-69919508D02*
X237001365Y-71555898D01*
X237001358Y-67361337D02*
X237001362Y-69919508D01*
X237001365Y-71555898D02*
X237433171Y-71987707D01*
X238962978Y-65399725D02*
X237001358Y-67361337D01*
%TO.N,GND*%
X245001365Y-39919513D02*
X250161590Y-45079724D01*
X250161590Y-45079724D02*
X254202983Y-45079727D01*
X237501366Y-39919508D02*
X245001365Y-39919513D01*
X234332972Y-43087895D02*
X237501366Y-39919508D01*
X234332971Y-75474716D02*
X234332972Y-43087895D01*
%TO.N,RST*%
X251701592Y-47619728D02*
X254202986Y-47619737D01*
X238001368Y-40419511D02*
X244501366Y-40419511D01*
X244501366Y-40419511D02*
X251701592Y-47619728D01*
X236032973Y-42387898D02*
X238001368Y-40419511D01*
X236032984Y-75474719D02*
X236032973Y-42387898D01*
%TO.N,P011*%
X221596132Y-125200766D02*
X222874686Y-126096020D01*
X226598830Y-116190716D02*
X221333372Y-123710579D01*
X221333372Y-123710579D02*
X221596132Y-125200766D01*
%TO.N,P106*%
X259879600Y-96971475D02*
X259879598Y-97450096D01*
%TO.N,RST*%
X235598833Y-80290575D02*
X236032975Y-80724727D01*
X235598829Y-75908855D02*
X235598833Y-80290575D01*
X236032980Y-75474716D02*
X235598829Y-75908855D01*
%TO.N,GND*%
X234598831Y-80458860D02*
X234332975Y-80724724D01*
X234598829Y-75740583D02*
X234598831Y-80458860D01*
X234332974Y-75474714D02*
X234598829Y-75740583D01*
%TO.N,P111*%
X264204695Y-40922802D02*
X264307974Y-42399724D01*
X262895346Y-39784592D02*
X264204695Y-40922802D01*
X261364119Y-39390440D02*
X262361688Y-39320679D01*
X258575648Y-44199048D02*
X258598827Y-44175870D01*
X258575657Y-58199050D02*
X258575648Y-44199048D01*
X262361688Y-39320679D02*
X262895346Y-39784592D01*
X258598827Y-44175870D02*
X258598837Y-39836199D01*
X258575655Y-62199055D02*
X258575657Y-58199050D01*
X257575661Y-63199050D02*
X258575655Y-62199055D01*
X258870198Y-39564839D02*
X261364119Y-39390440D01*
X258598837Y-39836199D02*
X258870198Y-39564839D01*
X255374982Y-65399729D02*
X257575661Y-63199050D01*
X254202975Y-65399723D02*
X255374982Y-65399729D01*
%TO.N,P113*%
X282114062Y-39626505D02*
X282307989Y-42399736D01*
X279784174Y-37601170D02*
X281385151Y-38992876D01*
X277290257Y-37775553D02*
X279784174Y-37601170D01*
X258359640Y-39166247D02*
X258421600Y-39094983D01*
X258421600Y-39094983D02*
X258835331Y-39066046D01*
X258075654Y-39450240D02*
X258359640Y-39166247D01*
X257075654Y-61199047D02*
X258075655Y-60199056D01*
X255414977Y-62859724D02*
X257075654Y-61199047D01*
X258075655Y-60199056D02*
X258075654Y-39450240D01*
X281385151Y-38992876D02*
X282114062Y-39626505D01*
X258835331Y-39066046D02*
X277290257Y-37775553D01*
X254202975Y-62859720D02*
X255414977Y-62859724D01*
%TO.N,P115*%
X300104902Y-36995654D02*
X300307972Y-39899716D01*
X299236670Y-36240918D02*
X300104902Y-36995654D01*
X298703011Y-35777009D02*
X299236670Y-36240918D01*
X258800455Y-38567267D02*
X293715198Y-36125799D01*
X258752299Y-38570637D02*
X258800455Y-38567267D01*
X293715198Y-36125799D02*
X298703011Y-35777009D01*
X258251978Y-38604185D02*
X258750763Y-38569314D01*
X258750763Y-38569314D02*
X258752299Y-38570637D01*
X258098835Y-38690708D02*
X258165457Y-38690709D01*
X258165457Y-38690709D02*
X258251978Y-38604185D01*
X257575648Y-39213890D02*
X258098835Y-38690708D01*
X257575651Y-55199049D02*
X257575646Y-44199042D01*
X257575646Y-44199042D02*
X257575648Y-39213890D01*
X257575662Y-58199047D02*
X257575651Y-55199049D01*
X255454982Y-60319722D02*
X257075649Y-58699050D01*
X254202974Y-60319722D02*
X255454982Y-60319722D01*
X257075649Y-58699050D02*
X257575662Y-58199047D01*
%TO.N,P002*%
X318230796Y-35203708D02*
X318307980Y-35280886D01*
X317230791Y-34203701D02*
X318230796Y-35203708D01*
X259011754Y-37785285D02*
X310230790Y-34203707D01*
X257075647Y-39335448D02*
X257046155Y-38913521D01*
X257075650Y-56199049D02*
X257075647Y-39335448D01*
X257046155Y-38913521D02*
X257963175Y-37858610D01*
X318307980Y-35280886D02*
X318307978Y-37399721D01*
X255494972Y-57779716D02*
X257075650Y-56199049D01*
X310230790Y-34203707D02*
X317230791Y-34203701D01*
X254202977Y-57779728D02*
X255494972Y-57779716D01*
X257963175Y-37858610D02*
X259011754Y-37785285D01*
%TO.N,P029*%
X336958979Y-35267544D02*
X336307968Y-39899717D01*
X310230801Y-33703706D02*
X333073911Y-33703704D01*
X257564448Y-37386491D02*
X310230801Y-33703706D01*
X256531954Y-38574234D02*
X257564448Y-37386491D01*
X336073484Y-34092453D02*
X336499033Y-34657175D01*
X256575656Y-39199052D02*
X256531954Y-38574234D01*
X333073911Y-33703704D02*
X333102679Y-33674936D01*
X333102679Y-33674936D02*
X336073484Y-34092453D01*
X256575657Y-54199048D02*
X256575656Y-39199052D01*
X255534977Y-55239726D02*
X256575657Y-54199048D01*
X336499033Y-34657175D02*
X336958979Y-35267544D01*
X254202976Y-55239726D02*
X255534977Y-55239726D01*
%TO.N,P031*%
X333203642Y-33221438D02*
X350991959Y-35721423D01*
X310248538Y-33221447D02*
X333203642Y-33221438D01*
X259075650Y-36799797D02*
X310248538Y-33221447D01*
X256057154Y-38434516D02*
X257374808Y-36918734D01*
X256075657Y-38699047D02*
X256057154Y-38434516D01*
X256075642Y-52199055D02*
X256075657Y-38699047D01*
X255574991Y-52699724D02*
X256075642Y-52199055D01*
X254202981Y-52699716D02*
X255574991Y-52699724D01*
X354709263Y-58865786D02*
X358064712Y-62221237D01*
X354709279Y-49803944D02*
X354709263Y-58865786D01*
X353209272Y-75510245D02*
X356878854Y-79179827D01*
X356878854Y-79179827D02*
X352209270Y-83849404D01*
X360668746Y-39969901D02*
X360598614Y-39848450D01*
X352209270Y-83849404D02*
X352209259Y-92654701D01*
X360598614Y-39848450D02*
X359537952Y-38011324D01*
X353209262Y-67076675D02*
X353209272Y-75510245D01*
X358064712Y-62221237D02*
X353209262Y-67076675D01*
X359250577Y-45262624D02*
X354709279Y-49803944D01*
X359250557Y-45262640D02*
X360668746Y-39969901D01*
X352209259Y-92654701D02*
X355692989Y-96138414D01*
%TO.N,mirror_pinky_bottom*%
X361846217Y-107405269D02*
X361996887Y-107555956D01*
X367061381Y-99138739D02*
X367061380Y-102491469D01*
X359842157Y-107405282D02*
X361846217Y-107405269D01*
X367061380Y-102491469D02*
X361996887Y-107555956D01*
%TO.N,mirror_pinky_home*%
X368247241Y-82180132D02*
X368247247Y-85532884D01*
X363032073Y-90446689D02*
X363182760Y-90597363D01*
X361028017Y-90446696D02*
X363032073Y-90446689D01*
X368247247Y-85532884D02*
X363182760Y-90597363D01*
%TO.N,mirror_pinky_top*%
X364217943Y-73488100D02*
X364368598Y-73638784D01*
X369433103Y-68574291D02*
X364368598Y-73638784D01*
X362213887Y-73488100D02*
X364217943Y-73488100D01*
X369433110Y-65221567D02*
X369433103Y-68574291D01*
%TO.N,mirror_pinky_num*%
X363399737Y-56529521D02*
X365403811Y-56529525D01*
X370618968Y-51615704D02*
X365554474Y-56680183D01*
X365403811Y-56529525D02*
X365554474Y-56680183D01*
X370618956Y-48262960D02*
X370618968Y-51615704D01*
%TO.N,P029*%
X332209260Y-86801006D02*
X336307979Y-90899724D01*
X332209276Y-69801011D02*
X336307987Y-73899730D01*
X336307970Y-39899719D02*
X332209269Y-43998419D01*
X332209269Y-43998419D02*
X332209259Y-52801002D01*
X332209259Y-52801002D02*
X336307982Y-56899706D01*
X332209268Y-60998430D02*
X332209276Y-69801011D01*
X332209266Y-77998444D02*
X332209260Y-86801006D01*
X336307982Y-56899706D02*
X332209268Y-60998430D01*
X336307987Y-73899730D02*
X332209266Y-77998444D01*
%TO.N,mirror_ring_bottom*%
X341232982Y-101849738D02*
X343392987Y-101849714D01*
X347857975Y-93099722D02*
X347857987Y-97384717D01*
X347857987Y-97384717D02*
X343392987Y-101849714D01*
%TO.N,mirror_ring_home*%
X347857985Y-76099724D02*
X347857987Y-80384715D01*
X341232983Y-84849718D02*
X343392976Y-84849707D01*
X347857987Y-80384715D02*
X343392976Y-84849707D01*
%TO.N,mirror_ring_top*%
X341232969Y-67849720D02*
X343392973Y-67849715D01*
X347857991Y-63384715D02*
X343392973Y-67849715D01*
X347857979Y-59099721D02*
X347857991Y-63384715D01*
%TO.N,mirror_ring_num*%
X347857980Y-46384725D02*
X343392986Y-50849719D01*
X341232987Y-50849719D02*
X343392986Y-50849719D01*
X347857978Y-42099715D02*
X347857980Y-46384725D01*
%TO.N,P002*%
X314209258Y-50301008D02*
X318307976Y-54399714D01*
X314209261Y-67301004D02*
X318307980Y-71399734D01*
X318307980Y-71399734D02*
X314209271Y-75498434D01*
X314209258Y-41498439D02*
X314209258Y-50301008D01*
X314209269Y-58498421D02*
X314209261Y-67301004D01*
X318307976Y-54399714D02*
X314209269Y-58498421D01*
X314209271Y-75498434D02*
X314209274Y-84301002D01*
X318307985Y-37399715D02*
X314209258Y-41498439D01*
X314209274Y-84301002D02*
X318307980Y-88399721D01*
%TO.N,mirror_middle_bottom*%
X329857995Y-90599716D02*
X329857981Y-94884720D01*
X323232975Y-99349716D02*
X325392988Y-99349724D01*
X329857981Y-94884720D02*
X325392988Y-99349724D01*
%TO.N,mirror_middle_home*%
X323232984Y-82349731D02*
X325392977Y-82349714D01*
X329857985Y-77884730D02*
X325392977Y-82349714D01*
X329857975Y-73599704D02*
X329857985Y-77884730D01*
%TO.N,mirror_middle_top*%
X329857985Y-60884739D02*
X325392981Y-65349714D01*
X329857980Y-56599715D02*
X329857985Y-60884739D01*
X323232976Y-65349736D02*
X325392981Y-65349714D01*
%TO.N,mirror_middle_num*%
X329857987Y-39599724D02*
X329857990Y-43884714D01*
X329857990Y-43884714D02*
X325392971Y-48349729D01*
X323232982Y-48349715D02*
X325392971Y-48349729D01*
%TO.N,P115*%
X296209257Y-77998438D02*
X296209268Y-86800996D01*
X300307982Y-39899712D02*
X296209262Y-43998435D01*
X296209262Y-43998435D02*
X296209274Y-50802378D01*
X296209274Y-50802378D02*
X300307971Y-54901096D01*
X300307977Y-56899715D02*
X296209262Y-60998438D01*
X300307971Y-54901096D02*
X300307977Y-56899715D01*
X300307982Y-73899725D02*
X296209257Y-77998438D01*
X296209268Y-86800996D02*
X300307984Y-90899715D01*
X296209276Y-69800987D02*
X300307982Y-73899725D01*
X296209262Y-60998438D02*
X296209276Y-69800987D01*
%TO.N,mirror_index_bottom*%
X311857999Y-93099716D02*
X311857988Y-97384718D01*
X305232984Y-101849715D02*
X307392975Y-101849721D01*
X311857988Y-97384718D02*
X307392975Y-101849721D01*
%TO.N,mirror_index_home*%
X311857980Y-76099721D02*
X311857983Y-80384727D01*
X311857983Y-80384727D02*
X307392979Y-84849728D01*
X305232981Y-84849708D02*
X307392979Y-84849728D01*
%TO.N,mirror_index_top*%
X311857987Y-63384727D02*
X307392995Y-67849721D01*
X305232985Y-67849728D02*
X307392995Y-67849721D01*
X311857973Y-59099724D02*
X311857987Y-63384727D01*
%TO.N,mirror_index_num*%
X305232978Y-50849724D02*
X307392978Y-50849729D01*
X311857978Y-46384731D02*
X307392978Y-50849729D01*
X311857982Y-42099733D02*
X311857978Y-46384731D01*
%TO.N,P113*%
X278209268Y-55301012D02*
X282307966Y-59399717D01*
X278209252Y-72301003D02*
X282307988Y-76399708D01*
X282307966Y-59399717D02*
X278209266Y-63498431D01*
X282307970Y-42399706D02*
X278209269Y-46498433D01*
X278209269Y-46498433D02*
X278209268Y-55301012D01*
X278209256Y-80498439D02*
X278209251Y-89301007D01*
X278209251Y-89301007D02*
X282307991Y-93399724D01*
X282307988Y-76399708D02*
X278209256Y-80498439D01*
X278209266Y-63498431D02*
X278209252Y-72301003D01*
%TO.N,mirror_inner_bottom*%
X293857983Y-95599727D02*
X293857971Y-99884719D01*
X293857971Y-99884719D02*
X289392986Y-104349705D01*
X287232983Y-104349720D02*
X289392986Y-104349705D01*
%TO.N,mirror_inner_home*%
X287232981Y-87349724D02*
X289392979Y-87349717D01*
X293857978Y-82884734D02*
X289392979Y-87349717D01*
X293857980Y-78599715D02*
X293857978Y-82884734D01*
%TO.N,mirror_inner_top*%
X293857984Y-61599711D02*
X293857981Y-65884729D01*
X293857981Y-65884729D02*
X289392983Y-70349730D01*
X287232982Y-70349717D02*
X289392983Y-70349730D01*
%TO.N,mirror_inner_num*%
X293857986Y-44599716D02*
X293857983Y-48884722D01*
X287232979Y-53349724D02*
X289392980Y-53349714D01*
X293857983Y-48884722D02*
X289392980Y-53349714D01*
%TO.N,P111*%
X260209265Y-46498437D02*
X260209268Y-55301004D01*
X260209280Y-63498434D02*
X260209264Y-72300996D01*
X260209268Y-55301004D02*
X264307989Y-59399720D01*
X264307989Y-59399720D02*
X260209280Y-63498434D01*
X260209264Y-72300996D02*
X264307985Y-76399721D01*
X264307981Y-42399716D02*
X260209265Y-46498437D01*
%TO.N,mirror_extras_home*%
X269232990Y-87349725D02*
X271392986Y-87349717D01*
X275857988Y-78599720D02*
X275857988Y-82884726D01*
X275857988Y-82884726D02*
X271392986Y-87349717D01*
%TO.N,mirror_extras_top*%
X275857998Y-65884725D02*
X271392979Y-70349724D01*
X269232994Y-70349726D02*
X271392979Y-70349724D01*
X275857982Y-61599720D02*
X275857998Y-65884725D01*
%TO.N,mirror_extras_num*%
X275857982Y-48884718D02*
X271392987Y-53349728D01*
X275857985Y-44599723D02*
X275857982Y-48884718D01*
X269232976Y-53349722D02*
X271392987Y-53349728D01*
%TO.N,P106*%
X278162302Y-112295568D02*
X278324538Y-113058818D01*
X256896232Y-102044098D02*
X258409600Y-109163999D01*
X258409600Y-109163999D02*
X261967785Y-111474698D01*
X259879596Y-97450102D02*
X256896232Y-102044098D01*
X261967785Y-111474698D02*
X273216480Y-109083712D01*
X273216480Y-109083712D02*
X278162302Y-112295568D01*
%TO.N,mirror_near_thumbbottom*%
X290081085Y-113219767D02*
X290081089Y-119734409D01*
X286828256Y-122987233D02*
X287203336Y-122612158D01*
X290081089Y-119734409D02*
X287203336Y-122612158D01*
X285076178Y-122987251D02*
X286828256Y-122987233D01*
%TO.N,P104*%
X241116229Y-119576604D02*
X252139973Y-122121626D01*
X237597060Y-113944721D02*
X241116229Y-119576604D01*
X255704301Y-122944512D02*
X256691036Y-122327942D01*
X238851618Y-108510575D02*
X237597060Y-113944721D01*
X252139973Y-122121626D02*
X255704301Y-122944512D01*
%TO.N,mirror_home_thumbbottom*%
X266431212Y-129348418D02*
X267221834Y-129348420D01*
X268301839Y-128268409D02*
X270209270Y-126360988D01*
X270209273Y-120873830D02*
X267793653Y-118458199D01*
X270209270Y-126360988D02*
X270209273Y-120873830D01*
X267221834Y-129348420D02*
X268301839Y-128268409D01*
%TO.N,P011*%
X222874695Y-126096024D02*
X223028702Y-130506324D01*
X223028702Y-130506324D02*
X231829156Y-138712868D01*
X231829156Y-138712868D02*
X239242239Y-138454002D01*
%TO.N,mirror_far_thumbbottom*%
X250796158Y-141453519D02*
X252184594Y-140065091D01*
X252184577Y-134853153D02*
X252184594Y-140065091D01*
X248351750Y-131020307D02*
X252184577Y-134853153D01*
X250796162Y-141719731D02*
X250796158Y-141453519D01*
%TO.N,mirror_near_thumbupper*%
X267470859Y-106752297D02*
X268998197Y-106752294D01*
X271605454Y-96585774D02*
X271605441Y-104145046D01*
X271605441Y-104145046D02*
X269557250Y-106193242D01*
X268998197Y-106752294D02*
X269557250Y-106193242D01*
%TO.N,mirror_home_thumbupper*%
X250935983Y-105049180D02*
X250935986Y-113416514D01*
X249697038Y-114655427D02*
X250935986Y-113416514D01*
X249166611Y-114655428D02*
X249697038Y-114655427D01*
X249574702Y-103687899D02*
X250935983Y-105049180D01*
%TO.N,mirror_far_thumbupper*%
X235908204Y-122503254D02*
X235908196Y-126573011D01*
X234669275Y-128342361D02*
X234669272Y-127811923D01*
X234669272Y-127811923D02*
X235908196Y-126573011D01*
X231301631Y-117896693D02*
X235908204Y-122503254D01*
%TO.N,P024*%
X299772972Y-101849719D02*
X301932970Y-101849719D01*
X247286538Y-145636119D02*
X248674967Y-144247693D01*
X356399509Y-107024393D02*
X356550195Y-107175081D01*
X281772975Y-104349728D02*
X283932977Y-104349718D01*
X354395457Y-107024419D02*
X356399509Y-107024393D01*
X262493336Y-132078412D02*
X263573331Y-130998422D01*
X261702721Y-132078420D02*
X262493336Y-132078412D01*
X279699112Y-123935363D02*
X281451195Y-123935362D01*
X317772965Y-99349718D02*
X319932973Y-99349715D01*
X281451195Y-123935362D02*
X281826285Y-123560277D01*
X247286534Y-145902329D02*
X247286538Y-145636119D01*
X335772979Y-101849729D02*
X337932993Y-101849718D01*
%TO.N,P100*%
X355581316Y-90065820D02*
X357585382Y-90065812D01*
X231537536Y-132814941D02*
X231537541Y-132284480D01*
X317772989Y-82349729D02*
X319932979Y-82349711D01*
X245224475Y-117787155D02*
X246463410Y-116548229D01*
X262755948Y-107606409D02*
X264283291Y-107606394D01*
X281772974Y-87349712D02*
X283932987Y-87349727D01*
X357585382Y-90065812D02*
X357736058Y-90216486D01*
X231537541Y-132284480D02*
X232776482Y-131045567D01*
X299772980Y-84849719D02*
X301932983Y-84849719D01*
X244694044Y-117787159D02*
X245224475Y-117787155D01*
X335772973Y-84849723D02*
X337932976Y-84849715D01*
X262196907Y-108165456D02*
X262755948Y-107606409D01*
X263772980Y-87349723D02*
X265932981Y-87349712D01*
%TO.N,P009*%
X281772978Y-70349713D02*
X283932977Y-70349718D01*
X263772980Y-70349704D02*
X265932996Y-70349723D01*
X356767165Y-73107227D02*
X358771245Y-73107229D01*
X335772990Y-67849712D02*
X337932984Y-67849724D01*
X317772987Y-65349731D02*
X319932979Y-65349726D01*
X358771245Y-73107229D02*
X358921907Y-73257909D01*
X299772989Y-67849726D02*
X301932976Y-67849718D01*
%TO.N,P010*%
X299772978Y-50849732D02*
X301932984Y-50849729D01*
X359957108Y-56148647D02*
X360107772Y-56299324D01*
X281772988Y-53349732D02*
X283932986Y-53349730D01*
X263772977Y-53349719D02*
X265932984Y-53349731D01*
X357953036Y-56148638D02*
X359957108Y-56148647D01*
X317772977Y-48349723D02*
X319932988Y-48349730D01*
X335772982Y-50849719D02*
X337932974Y-50849719D01*
%TO.N,GND*%
X238996321Y-47619720D02*
X239075659Y-47699049D01*
X238962982Y-47619724D02*
X238996321Y-47619720D01*
%TO.N,P031*%
X257374808Y-36918734D02*
X259075650Y-36799797D01*
%TD*%
M02*
