%TF.GenerationSoftware,KiCad,Pcbnew,8.0.4*%
%TF.CreationDate,2024-09-30T21:31:24-06:00*%
%TF.ProjectId,left_finished,6c656674-5f66-4696-9e69-736865642e6b,v1.0.0*%
%TF.SameCoordinates,Original*%
%TF.FileFunction,Copper,L1,Top*%
%TF.FilePolarity,Positive*%
%FSLAX46Y46*%
G04 Gerber Fmt 4.6, Leading zero omitted, Abs format (unit mm)*
G04 Created by KiCad (PCBNEW 8.0.4) date 2024-09-30 21:31:24*
%MOMM*%
%LPD*%
G01*
G04 APERTURE LIST*
G04 Aperture macros list*
%AMRotRect*
0 Rectangle, with rotation*
0 The origin of the aperture is its center*
0 $1 length*
0 $2 width*
0 $3 Rotation angle, in degrees counterclockwise*
0 Add horizontal line*
21,1,$1,$2,0,0,$3*%
G04 Aperture macros list end*
%TA.AperFunction,WasherPad*%
%ADD10C,1.000000*%
%TD*%
%TA.AperFunction,ComponentPad*%
%ADD11RotRect,1.778000X1.778000X305.000000*%
%TD*%
%TA.AperFunction,SMDPad,CuDef*%
%ADD12RotRect,0.900000X1.200000X305.000000*%
%TD*%
%TA.AperFunction,ComponentPad*%
%ADD13C,1.905000*%
%TD*%
%TA.AperFunction,ComponentPad*%
%ADD14R,1.778000X1.778000*%
%TD*%
%TA.AperFunction,SMDPad,CuDef*%
%ADD15R,0.900000X1.200000*%
%TD*%
%TA.AperFunction,ComponentPad*%
%ADD16RotRect,1.778000X1.778000X330.000000*%
%TD*%
%TA.AperFunction,SMDPad,CuDef*%
%ADD17RotRect,0.900000X1.200000X330.000000*%
%TD*%
%TA.AperFunction,ComponentPad*%
%ADD18RotRect,1.778000X1.778000X4.000000*%
%TD*%
%TA.AperFunction,SMDPad,CuDef*%
%ADD19RotRect,0.900000X1.200000X4.000000*%
%TD*%
%TA.AperFunction,ComponentPad*%
%ADD20RotRect,1.778000X1.778000X325.000000*%
%TD*%
%TA.AperFunction,SMDPad,CuDef*%
%ADD21RotRect,0.900000X1.200000X325.000000*%
%TD*%
%TA.AperFunction,ComponentPad*%
%ADD22R,1.700000X1.200000*%
%TD*%
%TA.AperFunction,ComponentPad*%
%ADD23O,1.700000X1.200000*%
%TD*%
%TA.AperFunction,ComponentPad*%
%ADD24RotRect,1.778000X1.778000X310.000000*%
%TD*%
%TA.AperFunction,SMDPad,CuDef*%
%ADD25RotRect,0.900000X1.200000X310.000000*%
%TD*%
%TA.AperFunction,ComponentPad*%
%ADD26RotRect,1.778000X1.778000X350.000000*%
%TD*%
%TA.AperFunction,SMDPad,CuDef*%
%ADD27RotRect,0.900000X1.200000X350.000000*%
%TD*%
%TA.AperFunction,ComponentPad*%
%ADD28C,1.752600*%
%TD*%
%TA.AperFunction,ComponentPad*%
%ADD29RotRect,1.778000X1.778000X345.000000*%
%TD*%
%TA.AperFunction,SMDPad,CuDef*%
%ADD30RotRect,0.900000X1.200000X345.000000*%
%TD*%
%TA.AperFunction,ViaPad*%
%ADD31C,0.800000*%
%TD*%
%TA.AperFunction,Conductor*%
%ADD32C,0.250000*%
%TD*%
G04 APERTURE END LIST*
D10*
%TO.P,T1,*%
%TO.N,*%
X173979430Y-88102251D03*
X173979430Y-91102251D03*
%TD*%
D11*
%TO.P,D29,1*%
%TO.N,P100*%
X173254199Y-129065527D03*
D12*
X174493124Y-130834895D03*
%TO.P,D29,2*%
%TO.N,far_thumbupper*%
X176385926Y-133538097D03*
D13*
X177624851Y-135307465D03*
%TD*%
D14*
%TO.P,D17,1*%
%TO.N,P024*%
X119769417Y-106842254D03*
D15*
X121929417Y-106842254D03*
%TO.P,D17,2*%
%TO.N,inner_bottom*%
X125229417Y-106842254D03*
D13*
X127389417Y-106842254D03*
%TD*%
D14*
%TO.P,D7,1*%
%TO.N,P009*%
X65769417Y-70342252D03*
D15*
X67929417Y-70342252D03*
%TO.P,D7,2*%
%TO.N,ring_top*%
X71229417Y-70342252D03*
D13*
X73389417Y-70342252D03*
%TD*%
D14*
%TO.P,D11,1*%
%TO.N,P009*%
X83769404Y-67842259D03*
D15*
X85929404Y-67842259D03*
%TO.P,D11,2*%
%TO.N,middle_top*%
X89229404Y-67842259D03*
D13*
X91389404Y-67842259D03*
%TD*%
D14*
%TO.P,D18,1*%
%TO.N,P100*%
X119769420Y-89842260D03*
D15*
X121929420Y-89842260D03*
%TO.P,D18,2*%
%TO.N,inner_home*%
X125229420Y-89842260D03*
D13*
X127389420Y-89842260D03*
%TD*%
D16*
%TO.P,D25,1*%
%TO.N,P024*%
X140860555Y-130760941D03*
D17*
X142731170Y-131840941D03*
%TO.P,D25,2*%
%TO.N,home_thumbbottom*%
X145589054Y-133490941D03*
D13*
X147459669Y-134570941D03*
%TD*%
D14*
%TO.P,D23,1*%
%TO.N,P010*%
X137769417Y-55842245D03*
D15*
X139929417Y-55842245D03*
%TO.P,D23,2*%
%TO.N,extras_num*%
X143229417Y-55842245D03*
D13*
X145389417Y-55842245D03*
%TD*%
D18*
%TO.P,D3,1*%
%TO.N,P009*%
X44793781Y-76131319D03*
D19*
X46948519Y-75980645D03*
%TO.P,D3,2*%
%TO.N,pinky_top*%
X50240481Y-75750449D03*
D13*
X52395219Y-75599775D03*
%TD*%
D18*
%TO.P,D1,1*%
%TO.N,P024*%
X47165502Y-110048480D03*
D19*
X49320240Y-109897806D03*
%TO.P,D1,2*%
%TO.N,pinky_bottom*%
X52612202Y-109667610D03*
D13*
X54766940Y-109516936D03*
%TD*%
D14*
%TO.P,D21,1*%
%TO.N,P100*%
X137769433Y-89842241D03*
D15*
X139929433Y-89842241D03*
%TO.P,D21,2*%
%TO.N,extras_home*%
X143229433Y-89842241D03*
D13*
X145389433Y-89842241D03*
%TD*%
D20*
%TO.P,D28,1*%
%TO.N,P100*%
X158226408Y-115909032D03*
D21*
X159995776Y-117147957D03*
%TO.P,D28,2*%
%TO.N,home_thumbupper*%
X162698978Y-119040759D03*
D13*
X164468346Y-120279684D03*
%TD*%
D14*
%TO.P,D5,1*%
%TO.N,P024*%
X65769410Y-104342257D03*
D15*
X67929410Y-104342257D03*
%TO.P,D5,2*%
%TO.N,ring_bottom*%
X71229410Y-104342257D03*
D13*
X73389410Y-104342257D03*
%TD*%
D18*
%TO.P,D2,1*%
%TO.N,P100*%
X45979652Y-93089892D03*
D19*
X48134390Y-92939218D03*
%TO.P,D2,2*%
%TO.N,pinky_home*%
X51426352Y-92709022D03*
D13*
X53581090Y-92558348D03*
%TD*%
D22*
%TO.P,JST1,1*%
%TO.N,pos*%
X159579418Y-77042243D03*
D23*
%TO.P,JST1,2*%
%TO.N,GND*%
X159579414Y-79042245D03*
%TD*%
D24*
%TO.P,D26,1*%
%TO.N,P024*%
X156977812Y-142557626D03*
D25*
X158366233Y-144212282D03*
%TO.P,D26,2*%
%TO.N,far_thumbbottom*%
X160487433Y-146740228D03*
D13*
X161875854Y-148394884D03*
%TD*%
D14*
%TO.P,D9,1*%
%TO.N,P024*%
X83769428Y-101842246D03*
D15*
X85929428Y-101842246D03*
%TO.P,D9,2*%
%TO.N,middle_bottom*%
X89229428Y-101842246D03*
D13*
X91389428Y-101842246D03*
%TD*%
D14*
%TO.P,D16,1*%
%TO.N,P010*%
X101769417Y-53342249D03*
D15*
X103929417Y-53342249D03*
%TO.P,D16,2*%
%TO.N,index_num*%
X107229417Y-53342249D03*
D13*
X109389417Y-53342249D03*
%TD*%
D14*
%TO.P,D8,1*%
%TO.N,P010*%
X65769421Y-53342241D03*
D15*
X67929421Y-53342241D03*
%TO.P,D8,2*%
%TO.N,ring_num*%
X71229421Y-53342241D03*
D13*
X73389421Y-53342241D03*
%TD*%
D26*
%TO.P,D24,1*%
%TO.N,P024*%
X121959049Y-125104687D03*
D27*
X124086236Y-125479768D03*
%TO.P,D24,2*%
%TO.N,near_thumbbottom*%
X127336102Y-126052806D03*
D13*
X129463289Y-126427887D03*
%TD*%
D28*
%TO.P,MCU1,1*%
%TO.N,P006*%
X154959434Y-45032257D03*
%TO.P,MCU1,2*%
%TO.N,P008*%
X154959428Y-47572255D03*
%TO.P,MCU1,3*%
%TO.N,GND*%
X154959429Y-50112256D03*
%TO.P,MCU1,4*%
X154959429Y-52652257D03*
%TO.P,MCU1,5*%
%TO.N,P017*%
X154959431Y-55192256D03*
%TO.P,MCU1,6*%
%TO.N,P020*%
X154959429Y-57732256D03*
%TO.P,MCU1,7*%
%TO.N,P022*%
X154959430Y-60272259D03*
%TO.P,MCU1,8*%
%TO.N,P024*%
X154959427Y-62812260D03*
%TO.P,MCU1,9*%
%TO.N,P100*%
X154959431Y-65352256D03*
%TO.P,MCU1,10*%
%TO.N,P011*%
X154959429Y-67892259D03*
%TO.P,MCU1,11*%
%TO.N,P104*%
X154959426Y-70432255D03*
%TO.P,MCU1,12*%
%TO.N,P106*%
X154959433Y-72972255D03*
%TO.P,MCU1,13*%
%TO.N,P009*%
X170199424Y-72972257D03*
%TO.P,MCU1,14*%
%TO.N,P010*%
X170199430Y-70432259D03*
%TO.P,MCU1,15*%
%TO.N,P111*%
X170199429Y-67892258D03*
%TO.P,MCU1,16*%
%TO.N,P113*%
X170199429Y-65352257D03*
%TO.P,MCU1,17*%
%TO.N,P115*%
X170199427Y-62812258D03*
%TO.P,MCU1,18*%
%TO.N,P002*%
X170199429Y-60272258D03*
%TO.P,MCU1,19*%
%TO.N,P029*%
X170199428Y-57732255D03*
%TO.P,MCU1,20*%
%TO.N,P031*%
X170199431Y-55192254D03*
%TO.P,MCU1,21*%
%TO.N,VCC*%
X170199427Y-52652258D03*
%TO.P,MCU1,22*%
%TO.N,RST*%
X170199429Y-50112255D03*
%TO.P,MCU1,23*%
%TO.N,GND*%
X170199432Y-47572259D03*
%TO.P,MCU1,24*%
%TO.N,RAW*%
X170199425Y-45032259D03*
%TO.P,MCU1,31*%
%TO.N,P101*%
X157499429Y-67892257D03*
%TO.P,MCU1,32*%
%TO.N,P102*%
X160039432Y-67892252D03*
%TO.P,MCU1,33*%
%TO.N,P107*%
X162579429Y-67892257D03*
%TD*%
D14*
%TO.P,D6,1*%
%TO.N,P100*%
X65769413Y-87342262D03*
D15*
X67929413Y-87342262D03*
%TO.P,D6,2*%
%TO.N,ring_home*%
X71229413Y-87342262D03*
D13*
X73389413Y-87342262D03*
%TD*%
D14*
%TO.P,D14,1*%
%TO.N,P100*%
X101769432Y-87342247D03*
D15*
X103929432Y-87342247D03*
%TO.P,D14,2*%
%TO.N,index_home*%
X107229432Y-87342247D03*
D13*
X109389432Y-87342247D03*
%TD*%
D29*
%TO.P,D27,1*%
%TO.N,P100*%
X139605147Y-108685776D03*
D30*
X141691546Y-109244828D03*
%TO.P,D27,2*%
%TO.N,near_thumbupper*%
X144879102Y-110098928D03*
D13*
X146965501Y-110657980D03*
%TD*%
D14*
%TO.P,D15,1*%
%TO.N,P009*%
X101769416Y-70342259D03*
D15*
X103929416Y-70342259D03*
%TO.P,D15,2*%
%TO.N,index_top*%
X107229416Y-70342259D03*
D13*
X109389416Y-70342259D03*
%TD*%
D14*
%TO.P,D13,1*%
%TO.N,P024*%
X101769437Y-104342241D03*
D15*
X103929437Y-104342241D03*
%TO.P,D13,2*%
%TO.N,index_bottom*%
X107229437Y-104342241D03*
D13*
X109389437Y-104342241D03*
%TD*%
D14*
%TO.P,D19,1*%
%TO.N,P009*%
X119769407Y-72842235D03*
D15*
X121929407Y-72842235D03*
%TO.P,D19,2*%
%TO.N,inner_top*%
X125229407Y-72842235D03*
D13*
X127389407Y-72842235D03*
%TD*%
D14*
%TO.P,D12,1*%
%TO.N,P010*%
X83769415Y-50842252D03*
D15*
X85929415Y-50842252D03*
%TO.P,D12,2*%
%TO.N,middle_num*%
X89229415Y-50842252D03*
D13*
X91389415Y-50842252D03*
%TD*%
D14*
%TO.P,D22,1*%
%TO.N,P009*%
X137769424Y-72842241D03*
D15*
X139929424Y-72842241D03*
%TO.P,D22,2*%
%TO.N,extras_top*%
X143229424Y-72842241D03*
D13*
X145389424Y-72842241D03*
%TD*%
D18*
%TO.P,D4,1*%
%TO.N,P010*%
X43607917Y-59172724D03*
D19*
X45762655Y-59022050D03*
%TO.P,D4,2*%
%TO.N,pinky_num*%
X49054617Y-58791854D03*
D13*
X51209355Y-58641180D03*
%TD*%
D14*
%TO.P,D10,1*%
%TO.N,P100*%
X83769427Y-84842260D03*
D15*
X85929427Y-84842260D03*
%TO.P,D10,2*%
%TO.N,middle_home*%
X89229427Y-84842260D03*
D13*
X91389427Y-84842260D03*
%TD*%
D14*
%TO.P,D20,1*%
%TO.N,P010*%
X119769414Y-55842236D03*
D15*
X121929414Y-55842236D03*
%TO.P,D20,2*%
%TO.N,inner_num*%
X125229414Y-55842236D03*
D13*
X127389414Y-55842236D03*
%TD*%
D31*
%TO.N,RAW*%
X169000000Y-88500000D03*
%TD*%
D32*
%TO.N,pinky_bottom*%
X52612205Y-109667617D02*
X54616268Y-109667603D01*
X54616268Y-109667603D02*
X54766951Y-109516949D01*
%TO.N,pinky_home*%
X51426342Y-92709026D02*
X53430415Y-92709032D01*
X53430415Y-92709032D02*
X53581090Y-92558362D01*
%TO.N,pinky_top*%
X52244557Y-75750430D02*
X52395233Y-75599767D01*
X50240481Y-75750434D02*
X52244557Y-75750430D01*
%TO.N,pinky_num*%
X49054631Y-58791847D02*
X51058684Y-58791846D01*
X51058684Y-58791846D02*
X51209370Y-58641189D01*
%TO.N,ring_bottom*%
X71229406Y-104342246D02*
X73389409Y-104342261D01*
%TO.N,ring_home*%
X71229421Y-87342252D02*
X73389413Y-87342253D01*
%TO.N,ring_top*%
X71229416Y-70342251D02*
X73389431Y-70342242D01*
%TO.N,ring_num*%
X71229429Y-53342249D02*
X73389435Y-53342249D01*
%TO.N,middle_bottom*%
X89229424Y-101842260D02*
X91389418Y-101842251D01*
%TO.N,middle_home*%
X89229410Y-84842252D02*
X91389423Y-84842254D01*
%TO.N,middle_top*%
X89229424Y-67842246D02*
X91389431Y-67842262D01*
%TO.N,middle_num*%
X89229423Y-50842253D02*
X91389407Y-50842259D01*
%TO.N,index_bottom*%
X107229415Y-104342245D02*
X109389428Y-104342251D01*
%TO.N,index_home*%
X107229408Y-87342246D02*
X109389426Y-87342257D01*
%TO.N,index_top*%
X107229412Y-70342253D02*
X109389424Y-70342260D01*
%TO.N,index_num*%
X107229419Y-53342250D02*
X109389427Y-53342254D01*
%TO.N,inner_bottom*%
X125229416Y-106842248D02*
X127389419Y-106842254D01*
%TO.N,inner_home*%
X125229425Y-89842248D02*
X127389419Y-89842250D01*
%TO.N,inner_top*%
X125229411Y-72842243D02*
X127389414Y-72842262D01*
%TO.N,inner_num*%
X125229405Y-55842254D02*
X127389420Y-55842263D01*
%TO.N,extras_home*%
X143229422Y-89842237D02*
X145389431Y-89842249D01*
%TO.N,extras_top*%
X143229413Y-72842268D02*
X145389429Y-72842229D01*
%TO.N,extras_num*%
X143229434Y-55842249D02*
X145389422Y-55842248D01*
%TO.N,near_thumbbottom*%
X127336115Y-126052793D02*
X127711194Y-126427891D01*
X127711194Y-126427891D02*
X129463292Y-126427882D01*
%TO.N,home_thumbbottom*%
X145589062Y-133490929D02*
X146379660Y-133490936D01*
X146379660Y-133490936D02*
X147459677Y-134570951D01*
%TO.N,far_thumbbottom*%
X160487429Y-146740212D02*
X160487429Y-147006457D01*
X160487429Y-147006457D02*
X161875869Y-148394871D01*
%TO.N,near_thumbupper*%
X146406446Y-110098929D02*
X146965503Y-110657986D01*
X144879108Y-110098914D02*
X146406446Y-110098929D01*
%TO.N,home_thumbupper*%
X162698983Y-119040764D02*
X163229439Y-119040750D01*
X163229439Y-119040750D02*
X164468365Y-120279686D01*
%TO.N,far_thumbupper*%
X176385931Y-134068521D02*
X177624857Y-135307466D01*
X176385914Y-133538094D02*
X176385931Y-134068521D01*
%TO.N,P024*%
X164604935Y-73118420D02*
X163604937Y-74118414D01*
X158604942Y-74118417D02*
X157104937Y-75618412D01*
X141940559Y-131840943D02*
X140860558Y-130760948D01*
X65769414Y-104342257D02*
X68632022Y-107204860D01*
X56377285Y-112204868D02*
X57377289Y-111204870D01*
X134258080Y-130647549D02*
X136017752Y-131790307D01*
X163604937Y-74118414D02*
X158604942Y-74118417D01*
X156977790Y-142557617D02*
X156977827Y-142823865D01*
X191883295Y-131099193D02*
X191284444Y-134495489D01*
X172975457Y-140601316D02*
X170189997Y-140110164D01*
X62906798Y-107204858D02*
X65769414Y-104342257D01*
X150746306Y-140292222D02*
X151917488Y-141846437D01*
X67929405Y-104342253D02*
X65769424Y-104342245D01*
X162298784Y-62812263D02*
X164604938Y-65118416D01*
X180208767Y-114426241D02*
X191883295Y-131099193D01*
X117281430Y-117618924D02*
X121959061Y-125104688D01*
X157104937Y-75618412D02*
X157104938Y-92618406D01*
X191284444Y-134495489D02*
X177768428Y-143959499D01*
X156977812Y-142557619D02*
X162018250Y-139028272D01*
X47316187Y-109897817D02*
X47165512Y-110048482D01*
X165192664Y-139947013D02*
X166053029Y-141175744D01*
X154959421Y-62812261D02*
X162298784Y-62812263D01*
X121929412Y-106842242D02*
X119769419Y-106842254D01*
X164905873Y-139537443D02*
X165192664Y-139947013D01*
X167445752Y-141421316D02*
X168142120Y-141544107D01*
X47165502Y-110048485D02*
X49321878Y-112204863D01*
X151917488Y-141846437D02*
X156977807Y-142557619D01*
X83769429Y-101842258D02*
X85929423Y-101842249D01*
X122334141Y-125479767D02*
X121959060Y-125104692D01*
X157104938Y-92618406D02*
X158237561Y-99041837D01*
X58877288Y-107204865D02*
X62906798Y-107204858D01*
X101769430Y-104342238D02*
X104269435Y-106842258D01*
X83769415Y-101842243D02*
X86269424Y-104342253D01*
X162018250Y-139028272D02*
X164905873Y-139537443D01*
X156977827Y-142823865D02*
X158366230Y-144212261D01*
X119769418Y-106842248D02*
X117281430Y-117618924D01*
X168142120Y-141544107D02*
X170189997Y-140110164D01*
X141627814Y-134370611D02*
X150746306Y-140292222D01*
X57377279Y-108704855D02*
X58877288Y-107204865D01*
X68632022Y-107204860D02*
X78406800Y-107204866D01*
X177768428Y-143959499D02*
X174982973Y-143468349D01*
X174982973Y-143468349D02*
X172975457Y-140601316D01*
X57377289Y-111204870D02*
X57377279Y-108704855D01*
X86269424Y-104342253D02*
X101769430Y-104342238D01*
X142731179Y-131840947D02*
X141940559Y-131840943D01*
X121959061Y-125104688D02*
X123933122Y-128263859D01*
X124086230Y-125479779D02*
X122334141Y-125479767D01*
X164604938Y-65118416D02*
X164604935Y-73118420D01*
X140860567Y-130760949D02*
X141627814Y-134370611D01*
X49321878Y-112204863D02*
X56377285Y-112204868D01*
X123933122Y-128263859D02*
X134258080Y-130647549D01*
X101769422Y-104342261D02*
X103929425Y-104342244D01*
X49320248Y-109897809D02*
X47316187Y-109897817D01*
X166053029Y-141175744D02*
X167445752Y-141421316D01*
X158237561Y-99041837D02*
X180208767Y-114426241D01*
X104269435Y-106842258D02*
X119769413Y-106842244D01*
X78406800Y-107204866D02*
X83769415Y-101842243D01*
X136017752Y-131790307D02*
X140860567Y-130760949D01*
%TO.N,P100*%
X174493125Y-130834871D02*
X174493139Y-130304465D01*
X136903857Y-104007001D02*
X139605154Y-108685764D01*
X141691544Y-109244826D02*
X140164208Y-109244834D01*
X48134379Y-92939226D02*
X46130333Y-92939230D01*
X121929421Y-89842249D02*
X119769422Y-89842244D01*
X171788538Y-126972346D02*
X172440544Y-123274631D01*
X173254200Y-129065530D02*
X171788538Y-126972346D01*
X174493139Y-130304465D02*
X173254186Y-129065533D01*
X153104938Y-93118416D02*
X153104942Y-68118414D01*
X141851595Y-112576738D02*
X151606958Y-115190671D01*
X45979645Y-93089904D02*
X47594617Y-94704868D01*
X139605154Y-108685764D02*
X141851595Y-112576738D01*
X140164208Y-109244834D02*
X139605158Y-108685764D01*
X137769423Y-89842241D02*
X139770554Y-93308311D01*
X139770554Y-93308311D02*
X136903857Y-104007001D01*
X135406796Y-92204865D02*
X137769420Y-89842242D01*
X119769424Y-89842251D02*
X122132038Y-92204873D01*
X104269428Y-89842251D02*
X119769424Y-89842251D01*
X172440544Y-123274631D02*
X180222488Y-117825659D01*
X159055985Y-120613718D02*
X158226424Y-115909042D01*
X47594617Y-94704868D02*
X58406801Y-94704863D01*
X158226424Y-115909042D02*
X153758082Y-116696927D01*
X159465359Y-117147964D02*
X158226432Y-115909037D01*
X65769418Y-87342257D02*
X68132035Y-89704862D01*
X46130333Y-92939230D02*
X45979643Y-93089898D01*
X67929421Y-87342246D02*
X65769413Y-87342253D01*
X153104942Y-68118414D02*
X153104942Y-67206743D01*
X153696339Y-96472424D02*
X153104938Y-93118416D01*
X83769411Y-84842246D02*
X86269403Y-87342256D01*
X78906803Y-89704867D02*
X83769411Y-84842246D01*
X101769414Y-87342250D02*
X103929422Y-87342252D01*
X68132035Y-89704862D02*
X78906803Y-89704867D01*
X122132038Y-92204873D02*
X135406796Y-92204865D01*
X153104942Y-67206743D02*
X154959432Y-65352262D01*
X167245152Y-126347853D02*
X159055985Y-120613718D01*
X159995775Y-117147946D02*
X159465359Y-117147964D01*
X168823872Y-128442888D02*
X167245152Y-126347853D01*
X83769424Y-84842259D02*
X85929425Y-84842244D01*
X173254205Y-129065527D02*
X168823872Y-128442888D01*
X153758082Y-116696927D02*
X151606958Y-115190671D01*
X58406801Y-94704863D02*
X65769418Y-87342257D01*
X180583172Y-115780100D02*
X179921984Y-114835814D01*
X139929413Y-89842247D02*
X137769414Y-89842246D01*
X101769410Y-87342251D02*
X104269428Y-89842251D01*
X179921984Y-114835814D02*
X153696339Y-96472424D01*
X180222488Y-117825659D02*
X180583172Y-115780100D01*
X86269403Y-87342256D02*
X101769410Y-87342251D01*
%TO.N,P009*%
X122132030Y-75204872D02*
X135406787Y-75204864D01*
X168977012Y-72972250D02*
X170199418Y-72972253D01*
X121929408Y-72842257D02*
X119769427Y-72842233D01*
X167930300Y-71925549D02*
X168977012Y-72972250D01*
X46367335Y-77704863D02*
X58406808Y-77704860D01*
X152930298Y-44925544D02*
X154930297Y-42925537D01*
X67929425Y-70342252D02*
X65769426Y-70342255D01*
X167930296Y-44925536D02*
X167930300Y-71925549D01*
X83769417Y-67842243D02*
X86269416Y-70342250D01*
X86269416Y-70342250D02*
X101769405Y-70342250D01*
X101769405Y-70342250D02*
X104269417Y-72842233D01*
X83769422Y-67842239D02*
X85929412Y-67842260D01*
X68132029Y-72704855D02*
X78906802Y-72704866D01*
X103929414Y-70342238D02*
X101769405Y-70342261D01*
X165930307Y-42925543D02*
X167930296Y-44925536D01*
X119769401Y-72842232D02*
X122132030Y-75204872D01*
X58406808Y-77704860D02*
X65769430Y-70342257D01*
X65769430Y-70342257D02*
X68132029Y-72704855D01*
X139430292Y-64925540D02*
X141930298Y-64925542D01*
X78906802Y-72704866D02*
X83769417Y-67842243D01*
X152930310Y-53925543D02*
X152930298Y-44925544D01*
X141930298Y-64925542D02*
X152930310Y-53925543D01*
X135406787Y-75204864D02*
X137769417Y-72842251D01*
X137769420Y-72842247D02*
X137769418Y-66586427D01*
X104269417Y-72842233D02*
X119769401Y-72842232D01*
X137769418Y-66586427D02*
X139430292Y-64925540D01*
X154930297Y-42925537D02*
X165930307Y-42925543D01*
X44793782Y-76131309D02*
X46367335Y-77704863D01*
X44944470Y-75980635D02*
X44793783Y-76131308D01*
X139929418Y-72842250D02*
X137769417Y-72842257D01*
X46948518Y-75980639D02*
X44944470Y-75980635D01*
%TO.N,P010*%
X67929416Y-53342254D02*
X65769421Y-53342243D01*
X119769414Y-55842259D02*
X122132032Y-58204864D01*
X137769415Y-49586422D02*
X139430297Y-47925535D01*
X65769431Y-53342244D02*
X68632045Y-56204867D01*
X168430292Y-69925548D02*
X168937011Y-70432258D01*
X118014667Y-55842245D02*
X119769414Y-55842259D01*
X139430297Y-47925535D02*
X141930302Y-47925546D01*
X137769420Y-55842247D02*
X137769415Y-49586422D01*
X110377290Y-55704865D02*
X112377286Y-53704862D01*
X147430303Y-42425547D02*
X166430299Y-42425544D01*
X85929423Y-50842252D02*
X83769425Y-50842246D01*
X112377286Y-53704862D02*
X115877290Y-53704874D01*
X101769416Y-53342256D02*
X103929418Y-53342255D01*
X135406802Y-58204865D02*
X137769422Y-55842241D01*
X83769413Y-50842259D02*
X86269415Y-53342250D01*
X141930302Y-47925546D02*
X147430303Y-42425547D01*
X115877290Y-53704874D02*
X118014667Y-55842245D01*
X104132033Y-55704860D02*
X110377290Y-55704865D01*
X122132032Y-58204864D02*
X135406802Y-58204865D01*
X78406796Y-56204863D02*
X83769413Y-50842259D01*
X101769413Y-53342245D02*
X104132033Y-55704860D01*
X168430303Y-44425543D02*
X168430292Y-69925548D01*
X166430299Y-42425544D02*
X168430303Y-44425543D01*
X45140073Y-60704858D02*
X58406809Y-60704876D01*
X58406809Y-60704876D02*
X65769431Y-53342244D01*
X86269415Y-53342250D02*
X101769413Y-53342245D01*
X168937011Y-70432258D02*
X170199419Y-70432253D01*
X43607915Y-59172725D02*
X45140073Y-60704858D01*
X121929429Y-55842252D02*
X119769408Y-55842263D01*
X68632045Y-56204867D02*
X78406796Y-56204863D01*
X139929421Y-55842247D02*
X137769423Y-55842244D01*
X45762653Y-59022039D02*
X43758598Y-59022046D01*
X43758598Y-59022046D02*
X43607920Y-59172722D01*
%TO.N,RAW*%
X169000000Y-77500000D02*
X169000000Y-88500000D01*
X171532259Y-45032259D02*
X173000000Y-46500000D01*
X170199425Y-45032259D02*
X171532259Y-45032259D01*
X173000000Y-46500000D02*
X173000000Y-73500000D01*
X173000000Y-73500000D02*
X169000000Y-77500000D01*
%TO.N,GND*%
X154959419Y-52652249D02*
X154959424Y-50112263D01*
X172430294Y-73425541D02*
X172430306Y-48425534D01*
X161657013Y-52652251D02*
X165500000Y-56495238D01*
X154959417Y-52652256D02*
X161657013Y-52652251D01*
X165547889Y-74807949D02*
X171047891Y-74807946D01*
X171047891Y-74807946D02*
X172430294Y-73425541D01*
X161031141Y-79042259D02*
X159579428Y-79042244D01*
X161765445Y-78307959D02*
X161031141Y-79042259D01*
X162265432Y-74807945D02*
X161765452Y-75307967D01*
X165500000Y-56495238D02*
X165500000Y-74760060D01*
X165547889Y-74807949D02*
X162265432Y-74807945D01*
X171577017Y-47572260D02*
X170199426Y-47572249D01*
X172430306Y-48425534D02*
X171577017Y-47572260D01*
X161765452Y-75307967D02*
X161765445Y-78307959D01*
X165500000Y-74760060D02*
X165547889Y-74807949D01*
%TD*%
M02*
