%TF.GenerationSoftware,KiCad,Pcbnew,8.0.4*%
%TF.CreationDate,2024-09-30T21:31:24-06:00*%
%TF.ProjectId,left_finished,6c656674-5f66-4696-9e69-736865642e6b,v1.0.0*%
%TF.SameCoordinates,Original*%
%TF.FileFunction,Soldermask,Bot*%
%TF.FilePolarity,Negative*%
%FSLAX46Y46*%
G04 Gerber Fmt 4.6, Leading zero omitted, Abs format (unit mm)*
G04 Created by KiCad (PCBNEW 8.0.4) date 2024-09-30 21:31:24*
%MOMM*%
%LPD*%
G01*
G04 APERTURE LIST*
G04 Aperture macros list*
%AMRoundRect*
0 Rectangle with rounded corners*
0 $1 Rounding radius*
0 $2 $3 $4 $5 $6 $7 $8 $9 X,Y pos of 4 corners*
0 Add a 4 corners polygon primitive as box body*
4,1,4,$2,$3,$4,$5,$6,$7,$8,$9,$2,$3,0*
0 Add four circle primitives for the rounded corners*
1,1,$1+$1,$2,$3*
1,1,$1+$1,$4,$5*
1,1,$1+$1,$6,$7*
1,1,$1+$1,$8,$9*
0 Add four rect primitives between the rounded corners*
20,1,$1+$1,$2,$3,$4,$5,0*
20,1,$1+$1,$4,$5,$6,$7,0*
20,1,$1+$1,$6,$7,$8,$9,0*
20,1,$1+$1,$8,$9,$2,$3,0*%
G04 Aperture macros list end*
%ADD10RoundRect,0.050000X-0.450000X0.450000X-0.450000X-0.450000X0.450000X-0.450000X0.450000X0.450000X0*%
%ADD11C,1.100000*%
%ADD12RoundRect,0.050000X-0.625000X0.450000X-0.625000X-0.450000X0.625000X-0.450000X0.625000X0.450000X0*%
%ADD13C,1.801800*%
%ADD14C,3.529000*%
%ADD15C,3.100000*%
%ADD16RoundRect,0.050000X-1.206150X-1.387517X1.387517X-1.206150X1.206150X1.387517X-1.387517X1.206150X0*%
%ADD17RoundRect,0.050000X-1.300000X-1.300000X1.300000X-1.300000X1.300000X1.300000X-1.300000X1.300000X0*%
%ADD18RoundRect,0.050000X-1.810547X0.319248X-0.319248X-1.810547X1.810547X-0.319248X0.319248X1.810547X0*%
%ADD19RoundRect,0.050000X-1.238136X0.218317X-0.218317X-1.238136X1.238136X-0.218317X0.218317X1.238136X0*%
%ADD20RoundRect,0.050000X-0.749601X0.024473X-0.233382X-0.712764X0.749601X-0.024473X0.233382X0.712764X0*%
%ADD21C,2.005000*%
%ADD22RoundRect,0.050000X-0.889000X-0.889000X0.889000X-0.889000X0.889000X0.889000X-0.889000X0.889000X0*%
%ADD23RoundRect,0.050000X-0.450000X-0.600000X0.450000X-0.600000X0.450000X0.600000X-0.450000X0.600000X0*%
%ADD24C,4.100000*%
%ADD25RoundRect,0.050000X-1.214397X-0.325397X0.325397X-1.214397X1.214397X0.325397X-0.325397X1.214397X0*%
%ADD26RoundRect,0.050000X-0.689711X-0.294615X0.089711X-0.744615X0.689711X0.294615X-0.089711X0.744615X0*%
%ADD27RoundRect,0.050000X-0.824821X-0.948848X0.948848X-0.824821X0.824821X0.948848X-0.948848X0.824821X0*%
%ADD28RoundRect,0.050000X-0.407050X-0.629929X0.490758X-0.567148X0.407050X0.629929X-0.490758X0.567148X0*%
%ADD29RoundRect,0.050000X-1.238136X-0.218317X0.218317X-1.238136X1.238136X0.218317X-0.218317X1.238136X0*%
%ADD30RoundRect,0.050000X-0.712764X-0.233382X0.024473X-0.749601X0.712764X0.233382X-0.024473X0.749601X0*%
%ADD31RoundRect,0.050000X-1.592168X-0.919239X0.919239X-1.592168X1.592168X0.919239X-0.919239X1.592168X0*%
%ADD32C,0.850000*%
%ADD33RoundRect,0.050000X-0.500000X0.775000X-0.500000X-0.775000X0.500000X-0.775000X0.500000X0.775000X0*%
%ADD34RoundRect,0.050000X-1.810547X-0.319248X0.319248X-1.810547X1.810547X0.319248X-0.319248X1.810547X0*%
%ADD35RoundRect,0.050000X-0.850000X0.600000X-0.850000X-0.600000X0.850000X-0.600000X0.850000X0.600000X0*%
%ADD36O,1.800000X1.300000*%
%ADD37RoundRect,0.050000X-1.252452X0.109575X-0.109575X-1.252452X1.252452X-0.109575X0.109575X1.252452X0*%
%ADD38RoundRect,0.050000X-0.748881X-0.040953X-0.170372X-0.730393X0.748881X0.040953X0.170372X0.730393X0*%
%ADD39RoundRect,0.050000X-1.505993X-1.054507X1.054507X-1.505993X1.505993X1.054507X-1.054507X1.505993X0*%
%ADD40RoundRect,0.050000X-1.029867X-0.721121X0.721121X-1.029867X1.029867X0.721121X-0.721121X1.029867X0*%
%ADD41RoundRect,0.050000X-0.547352X-0.512743X0.338975X-0.669026X0.547352X0.512743X-0.338975X0.669026X0*%
%ADD42C,1.852600*%
%ADD43RoundRect,0.050000X-1.088798X-0.628618X0.628618X-1.088798X1.088798X0.628618X-0.628618X1.088798X0*%
%ADD44RoundRect,0.050000X-0.589958X-0.463087X0.279375X-0.696024X0.589958X0.463087X-0.279375X0.696024X0*%
%ADD45RoundRect,0.050000X-1.775833X-0.475833X0.475833X-1.775833X1.775833X0.475833X-0.475833X1.775833X0*%
%ADD46RoundRect,0.050000X-1.831482X0.160234X-0.160234X-1.831482X1.831482X-0.160234X0.160234X1.831482X0*%
G04 APERTURE END LIST*
D10*
%TO.C,T1*%
X172879431Y-85902251D03*
X175079428Y-85902253D03*
D11*
X173979430Y-88102251D03*
X173979430Y-91102251D03*
D10*
X172879432Y-93302249D03*
X175079429Y-93302251D03*
D12*
X171904430Y-87352251D03*
X171904430Y-90352251D03*
X171904430Y-91852251D03*
%TD*%
D13*
%TO.C,S3*%
X42759124Y-71261370D03*
D14*
X48245726Y-70877709D03*
D15*
X47830676Y-64942200D03*
X52971960Y-66788061D03*
D13*
X53732328Y-70494048D03*
D16*
X44563653Y-65170655D03*
X56238982Y-66559609D03*
%TD*%
D13*
%TO.C,S16*%
X100079413Y-48342258D03*
D15*
X105579415Y-42392245D03*
D14*
X105579416Y-48342252D03*
D15*
X110579416Y-44592252D03*
D13*
X111079419Y-48342246D03*
D17*
X102304416Y-42392252D03*
X113854416Y-44592253D03*
%TD*%
D13*
%TO.C,S12*%
X82079423Y-45842245D03*
D15*
X87579425Y-39892232D03*
D14*
X87579426Y-45842239D03*
D15*
X92579426Y-42092239D03*
D13*
X93079429Y-45842233D03*
D17*
X84304426Y-39892239D03*
X95854426Y-42092240D03*
%TD*%
D13*
%TO.C,S23*%
X136079402Y-50842255D03*
D15*
X141579404Y-44892242D03*
D14*
X141579405Y-50842249D03*
D15*
X146579405Y-47092249D03*
D13*
X147079408Y-50842243D03*
D17*
X138304405Y-44892249D03*
X149854405Y-47092250D03*
%TD*%
D13*
%TO.C,S29*%
X176380637Y-124813276D03*
D14*
X179535300Y-129318620D03*
D15*
X184409257Y-125905840D03*
X185475002Y-131263469D03*
D13*
X182689963Y-133823964D03*
D18*
X182530792Y-123223117D03*
X187353465Y-133946192D03*
%TD*%
D19*
%TO.C,D29*%
X173254199Y-129065527D03*
D20*
X174493124Y-130834895D03*
X176385926Y-133538097D03*
D21*
X177624851Y-135307465D03*
%TD*%
D13*
%TO.C,S2*%
X43944976Y-88219983D03*
D14*
X49431578Y-87836322D03*
D15*
X49016528Y-81900813D03*
X54157812Y-83746674D03*
D13*
X54918180Y-87452661D03*
D16*
X45749505Y-82129268D03*
X57424834Y-83518222D03*
%TD*%
D22*
%TO.C,D17*%
X119769417Y-106842254D03*
D23*
X121929417Y-106842254D03*
X125229417Y-106842254D03*
D21*
X127389417Y-106842254D03*
%TD*%
D22*
%TO.C,D7*%
X65769417Y-70342252D03*
D23*
X67929417Y-70342252D03*
X71229417Y-70342252D03*
D21*
X73389417Y-70342252D03*
%TD*%
D22*
%TO.C,D11*%
X83769404Y-67842259D03*
D23*
X85929404Y-67842259D03*
X89229404Y-67842259D03*
D21*
X91389404Y-67842259D03*
%TD*%
D22*
%TO.C,D18*%
X119769420Y-89842260D03*
D23*
X121929420Y-89842260D03*
X125229420Y-89842260D03*
D21*
X127389420Y-89842260D03*
%TD*%
D13*
%TO.C,S5*%
X64079408Y-99342260D03*
D15*
X69579410Y-93392247D03*
D14*
X69579411Y-99342254D03*
D15*
X74579411Y-95592254D03*
D13*
X75079414Y-99342248D03*
D17*
X66304411Y-93392254D03*
X77854411Y-95592255D03*
%TD*%
D13*
%TO.C,S6*%
X64079409Y-82342250D03*
D15*
X69579411Y-76392237D03*
D14*
X69579412Y-82342244D03*
D15*
X74579412Y-78592244D03*
D13*
X75079415Y-82342238D03*
D17*
X66304412Y-76392244D03*
X77854412Y-78592245D03*
%TD*%
D24*
%TO.C,*%
X58079430Y-56842242D03*
%TD*%
D25*
%TO.C,D25*%
X140860555Y-130760941D03*
D26*
X142731170Y-131840941D03*
X145589054Y-133490941D03*
D21*
X147459669Y-134570941D03*
%TD*%
D22*
%TO.C,D23*%
X137769417Y-55842245D03*
D23*
X139929417Y-55842245D03*
X143229417Y-55842245D03*
D21*
X145389417Y-55842245D03*
%TD*%
D27*
%TO.C,D3*%
X44793781Y-76131319D03*
D28*
X46948519Y-75980645D03*
X50240481Y-75750449D03*
D21*
X52395219Y-75599775D03*
%TD*%
D24*
%TO.C,*%
X60579416Y-110342247D03*
%TD*%
%TO.C,*%
X114219411Y-56842239D03*
%TD*%
D13*
%TO.C,S1*%
X45130851Y-105178549D03*
D14*
X50617453Y-104794888D03*
D15*
X50202403Y-98859379D03*
X55343687Y-100705240D03*
D13*
X56104055Y-104411227D03*
D16*
X46935380Y-99087834D03*
X58610709Y-100476788D03*
%TD*%
D13*
%TO.C,S13*%
X100079425Y-99342272D03*
D15*
X105579427Y-93392259D03*
D14*
X105579428Y-99342266D03*
D15*
X110579428Y-95592266D03*
D13*
X111079431Y-99342260D03*
D17*
X102304428Y-93392266D03*
X113854428Y-95592267D03*
%TD*%
D27*
%TO.C,D1*%
X47165502Y-110048480D03*
D28*
X49320240Y-109897806D03*
X52612202Y-109667610D03*
D21*
X54766940Y-109516936D03*
%TD*%
D22*
%TO.C,D21*%
X137769433Y-89842241D03*
D23*
X139929433Y-89842241D03*
X143229433Y-89842241D03*
D21*
X145389433Y-89842241D03*
%TD*%
D29*
%TO.C,D28*%
X158226408Y-115909032D03*
D30*
X159995776Y-117147957D03*
X162698978Y-119040759D03*
D21*
X164468346Y-120279684D03*
%TD*%
D13*
%TO.C,S18*%
X118079409Y-84842256D03*
D15*
X123579411Y-78892243D03*
D14*
X123579412Y-84842250D03*
D15*
X128579412Y-81092250D03*
D13*
X129079415Y-84842244D03*
D17*
X120304412Y-78892250D03*
X131854412Y-81092251D03*
%TD*%
D13*
%TO.C,S27*%
X139266828Y-103418740D03*
D15*
X146119393Y-99094988D03*
D14*
X144579420Y-104842247D03*
D15*
X150379627Y-102514121D03*
D13*
X149892012Y-106265754D03*
D31*
X142955986Y-98247356D03*
X153543037Y-103361753D03*
%TD*%
D13*
%TO.C,S20*%
X118079409Y-50842262D03*
D15*
X123579411Y-44892249D03*
D14*
X123579412Y-50842256D03*
D15*
X128579412Y-47092256D03*
D13*
X129079415Y-50842250D03*
D17*
X120304412Y-44892256D03*
X131854412Y-47092257D03*
%TD*%
D24*
%TO.C,*%
X164979433Y-78042255D03*
%TD*%
D13*
%TO.C,S7*%
X64079421Y-65342242D03*
D15*
X69579423Y-59392229D03*
D14*
X69579424Y-65342236D03*
D15*
X74579424Y-61592236D03*
D13*
X75079427Y-65342230D03*
D17*
X66304424Y-59392236D03*
X77854424Y-61592237D03*
%TD*%
D32*
%TO.C,B1*%
X175354415Y-80592246D03*
X172604413Y-80592254D03*
D33*
X174829414Y-77967250D03*
X174829414Y-83217250D03*
X173129414Y-77967250D03*
X173129414Y-83217250D03*
%TD*%
D24*
%TO.C,*%
X153348519Y-137065608D03*
%TD*%
D22*
%TO.C,D5*%
X65769410Y-104342257D03*
D23*
X67929410Y-104342257D03*
X71229410Y-104342257D03*
D21*
X73389410Y-104342257D03*
%TD*%
D27*
%TO.C,D2*%
X45979652Y-93089892D03*
D28*
X48134390Y-92939218D03*
X51426352Y-92709022D03*
D21*
X53581090Y-92558348D03*
%TD*%
D13*
%TO.C,S28*%
X159709941Y-110843942D03*
D14*
X164215272Y-113998606D03*
D15*
X167628059Y-109124644D03*
X170461944Y-113794668D03*
D13*
X168720603Y-117153270D03*
D34*
X164945332Y-107246187D03*
X173144667Y-115673131D03*
%TD*%
D35*
%TO.C,JST1*%
X159579418Y-77042243D03*
D36*
X159579414Y-79042245D03*
%TD*%
D37*
%TO.C,D26*%
X156977812Y-142557626D03*
D38*
X158366233Y-144212282D03*
X160487433Y-146740228D03*
D21*
X161875854Y-148394884D03*
%TD*%
D22*
%TO.C,D9*%
X83769428Y-101842246D03*
D23*
X85929428Y-101842246D03*
X89229428Y-101842246D03*
D21*
X91389428Y-101842246D03*
%TD*%
D22*
%TO.C,D16*%
X101769417Y-53342249D03*
D23*
X103929417Y-53342249D03*
X107229417Y-53342249D03*
D21*
X109389417Y-53342249D03*
%TD*%
D13*
%TO.C,S24*%
X121162966Y-119887187D03*
D14*
X126579414Y-120842254D03*
D15*
X127612622Y-114982646D03*
X132154633Y-118017466D03*
D13*
X131995862Y-121797321D03*
D39*
X124387375Y-114413950D03*
X135379879Y-118586166D03*
%TD*%
D22*
%TO.C,D8*%
X65769421Y-53342241D03*
D23*
X67929421Y-53342241D03*
X71229421Y-53342241D03*
D21*
X73389421Y-53342241D03*
%TD*%
D40*
%TO.C,D24*%
X121959049Y-125104687D03*
D41*
X124086236Y-125479768D03*
X127336102Y-126052806D03*
D21*
X129463289Y-126427887D03*
%TD*%
D13*
%TO.C,S10*%
X82079407Y-79842262D03*
D15*
X87579409Y-73892249D03*
D14*
X87579410Y-79842256D03*
D15*
X92579410Y-76092256D03*
D13*
X93079413Y-79842250D03*
D17*
X84304410Y-73892256D03*
X95854410Y-76092257D03*
%TD*%
D13*
%TO.C,S22*%
X136079424Y-67842275D03*
D15*
X141579426Y-61892262D03*
D14*
X141579427Y-67842269D03*
D15*
X146579427Y-64092269D03*
D13*
X147079430Y-67842263D03*
D17*
X138304427Y-61892269D03*
X149854427Y-64092270D03*
%TD*%
D13*
%TO.C,S9*%
X82079404Y-96842260D03*
D15*
X87579406Y-90892247D03*
D14*
X87579407Y-96842254D03*
D15*
X92579407Y-93092254D03*
D13*
X93079410Y-96842248D03*
D17*
X84304407Y-90892254D03*
X95854407Y-93092255D03*
%TD*%
D42*
%TO.C,MCU1*%
X154959434Y-45032257D03*
X154959428Y-47572255D03*
X154959429Y-50112256D03*
X154959429Y-52652257D03*
X154959431Y-55192256D03*
X154959429Y-57732256D03*
X154959430Y-60272259D03*
X154959427Y-62812260D03*
X154959431Y-65352256D03*
X154959429Y-67892259D03*
X154959426Y-70432255D03*
X154959433Y-72972255D03*
X170199424Y-72972257D03*
X170199430Y-70432259D03*
X170199429Y-67892258D03*
X170199429Y-65352257D03*
X170199427Y-62812258D03*
X170199429Y-60272258D03*
X170199428Y-57732255D03*
X170199431Y-55192254D03*
X170199427Y-52652258D03*
X170199429Y-50112255D03*
X170199432Y-47572259D03*
X170199425Y-45032259D03*
X157499429Y-67892257D03*
X160039432Y-67892252D03*
X162579429Y-67892257D03*
%TD*%
D22*
%TO.C,D6*%
X65769413Y-87342262D03*
D23*
X67929413Y-87342262D03*
X71229413Y-87342262D03*
D21*
X73389413Y-87342262D03*
%TD*%
D22*
%TO.C,D14*%
X101769432Y-87342247D03*
D23*
X103929432Y-87342247D03*
X107229432Y-87342247D03*
D21*
X109389432Y-87342247D03*
%TD*%
D43*
%TO.C,D27*%
X139605147Y-108685776D03*
D44*
X141691546Y-109244828D03*
X144879102Y-110098928D03*
D21*
X146965501Y-110657980D03*
%TD*%
D22*
%TO.C,D15*%
X101769416Y-70342259D03*
D23*
X103929416Y-70342259D03*
X107229416Y-70342259D03*
D21*
X109389416Y-70342259D03*
%TD*%
D22*
%TO.C,D13*%
X101769437Y-104342241D03*
D23*
X103929437Y-104342241D03*
X107229437Y-104342241D03*
D21*
X109389437Y-104342241D03*
%TD*%
D13*
%TO.C,S4*%
X41573248Y-54302775D03*
D14*
X47059850Y-53919114D03*
D15*
X46644800Y-47983605D03*
X51786084Y-49829466D03*
D13*
X52546452Y-53535453D03*
D16*
X43377777Y-48212060D03*
X55053106Y-49601014D03*
%TD*%
D22*
%TO.C,D19*%
X119769407Y-72842235D03*
D23*
X121929407Y-72842235D03*
X125229407Y-72842235D03*
D21*
X127389407Y-72842235D03*
%TD*%
D13*
%TO.C,S15*%
X100079420Y-65342248D03*
D15*
X105579422Y-59392235D03*
D14*
X105579423Y-65342242D03*
D15*
X110579423Y-61592242D03*
D13*
X111079426Y-65342236D03*
D17*
X102304423Y-59392242D03*
X113854423Y-61592243D03*
%TD*%
D13*
%TO.C,S21*%
X136079417Y-84842250D03*
D15*
X141579419Y-78892237D03*
D14*
X141579420Y-84842244D03*
D15*
X146579420Y-81092244D03*
D13*
X147079423Y-84842238D03*
D17*
X138304420Y-78892244D03*
X149854420Y-81092245D03*
%TD*%
D13*
%TO.C,S14*%
X100079411Y-82342248D03*
D15*
X105579413Y-76392235D03*
D14*
X105579414Y-82342242D03*
D15*
X110579414Y-78592242D03*
D13*
X111079417Y-82342236D03*
D17*
X102304414Y-76392242D03*
X113854414Y-78592243D03*
%TD*%
D22*
%TO.C,D12*%
X83769415Y-50842252D03*
D23*
X85929415Y-50842252D03*
X89229415Y-50842252D03*
D21*
X91389415Y-50842252D03*
%TD*%
D22*
%TO.C,D22*%
X137769424Y-72842241D03*
D23*
X139929424Y-72842241D03*
X143229424Y-72842241D03*
D21*
X145389424Y-72842241D03*
%TD*%
D13*
%TO.C,S8*%
X64079433Y-48342258D03*
D15*
X69579435Y-42392245D03*
D14*
X69579436Y-48342252D03*
D15*
X74579436Y-44592252D03*
D13*
X75079439Y-48342246D03*
D17*
X66304436Y-42392252D03*
X77854436Y-44592253D03*
%TD*%
D13*
%TO.C,S25*%
X141896967Y-125585816D03*
D15*
X149635108Y-123182963D03*
D14*
X146660108Y-128335814D03*
D15*
X152865235Y-127588219D03*
D13*
X151423249Y-131085812D03*
D45*
X146798878Y-121545462D03*
X155701468Y-129225719D03*
%TD*%
D13*
%TO.C,S17*%
X118079390Y-101842264D03*
D15*
X123579392Y-95892251D03*
D14*
X123579393Y-101842258D03*
D15*
X128579393Y-98092258D03*
D13*
X129079396Y-101842252D03*
D17*
X120304393Y-95892258D03*
X131854393Y-98092259D03*
%TD*%
D27*
%TO.C,D4*%
X43607917Y-59172724D03*
D28*
X45762655Y-59022050D03*
X49054617Y-58791854D03*
D21*
X51209355Y-58641180D03*
%TD*%
D13*
%TO.C,S19*%
X118079415Y-67842254D03*
D15*
X123579417Y-61892241D03*
D14*
X123579418Y-67842248D03*
D15*
X128579418Y-64092248D03*
D13*
X129079421Y-67842242D03*
D17*
X120304418Y-61892248D03*
X131854418Y-64092249D03*
%TD*%
D22*
%TO.C,D10*%
X83769427Y-84842260D03*
D23*
X85929427Y-84842260D03*
X89229427Y-84842260D03*
D21*
X91389427Y-84842260D03*
%TD*%
D13*
%TO.C,S11*%
X82079424Y-62842256D03*
D15*
X87579426Y-56892243D03*
D14*
X87579427Y-62842250D03*
D15*
X92579427Y-59092250D03*
D13*
X93079430Y-62842244D03*
D17*
X84304427Y-56892250D03*
X95854427Y-59092251D03*
%TD*%
D22*
%TO.C,D20*%
X119769414Y-55842236D03*
D23*
X121929414Y-55842236D03*
X125229414Y-55842236D03*
D21*
X127389414Y-55842236D03*
%TD*%
D13*
%TO.C,S26*%
X159721733Y-138049068D03*
D14*
X163257064Y-142262311D03*
D15*
X167815030Y-138437725D03*
X169343669Y-143682080D03*
D13*
X166792395Y-146475554D03*
D46*
X165709902Y-135928928D03*
X171448794Y-146190873D03*
%TD*%
M02*
