M48
; DRILL file {KiCad 8.0.4} date 2024-09-30T21:31:29-0600
; FORMAT={-:-/ absolute / inch / decimal}
; #@! TF.CreationDate,2024-09-30T21:31:29-06:00
; #@! TF.GenerationSoftware,Kicad,Pcbnew,8.0.4
; #@! TF.FileFunction,Plated,1,2,PTH
FMAT,2
INCH
; #@! TA.AperFunction,Plated,PTH,ViaDrill
T1C0.0157
; #@! TA.AperFunction,Plated,PTH,ComponentDrill
T2C0.0295
; #@! TA.AperFunction,Plated,PTH,ComponentDrill
T3C0.0390
; #@! TA.AperFunction,Plated,PTH,ComponentDrill
T4C0.0430
%
G90
G05
T1
X6.6535Y-3.4843
T2
X6.2827Y-3.1119
X6.2827Y-3.0332
T3
X1.7168Y-2.3296
X1.7635Y-2.9973
X1.8102Y-3.665
X1.8569Y-4.3326
X2.0161Y-2.3087
X2.0628Y-2.9764
X2.1095Y-3.644
X2.1562Y-4.3117
X2.5893Y-4.108
X2.5893Y-3.4387
X2.5893Y-2.7694
X2.5893Y-2.1001
X2.8893Y-4.108
X2.8893Y-3.4387
X2.8893Y-2.7694
X2.8893Y-2.1001
X3.298Y-2.671
X3.298Y-2.0017
X3.298Y-3.3402
X3.298Y-4.0095
X3.598Y-2.671
X3.598Y-2.0017
X3.598Y-3.3402
X3.598Y-4.0095
X4.0067Y-2.7694
X4.0067Y-2.1001
X4.0067Y-3.4387
X4.0067Y-4.108
X4.3067Y-2.7694
X4.3067Y-2.1001
X4.3067Y-3.4387
X4.3067Y-4.108
X4.7153Y-2.8678
X4.7153Y-2.1985
X4.7153Y-4.2064
X4.7153Y-3.5371
X4.8015Y-4.9254
X5.0153Y-2.8678
X5.0153Y-2.1985
X5.0153Y-4.2064
X5.0153Y-3.5371
X5.097Y-4.9775
X5.424Y-2.1985
X5.424Y-2.8678
X5.424Y-3.5371
X5.4963Y-4.279
X5.5457Y-5.1481
X5.724Y-2.1985
X5.724Y-2.8678
X5.724Y-3.5371
X5.786Y-4.3566
X5.8055Y-5.2981
X6.1802Y-5.6125
X6.2294Y-4.5633
X6.3731Y-5.8423
X6.4751Y-4.7354
X6.821Y-5.0813
X6.9931Y-5.3271
T4
X6.1008Y-2.7729
X6.1008Y-2.4729
X6.1008Y-1.8729
X6.1008Y-1.9729
X6.1008Y-2.0729
X6.1008Y-2.2729
X6.1008Y-2.6729
X6.1008Y-2.3729
X6.1008Y-2.1729
X6.1008Y-2.5729
X6.1008Y-2.8729
X6.1008Y-1.7729
X6.2008Y-2.6729
X6.3008Y-2.6729
X6.4008Y-2.6729
X6.7008Y-2.8729
X6.7008Y-1.7729
X6.7008Y-2.0729
X6.7008Y-2.4729
X6.7008Y-2.2729
X6.7008Y-1.9729
X6.7008Y-2.3729
X6.7008Y-2.5729
X6.7008Y-2.6729
X6.7008Y-2.7729
X6.7008Y-2.1729
X6.7008Y-1.8729
M30
