M48
; DRILL file {KiCad 8.0.4} date 2024-09-30T21:31:29-0600
; FORMAT={-:-/ absolute / inch / decimal}
; #@! TF.CreationDate,2024-09-30T21:31:29-06:00
; #@! TF.GenerationSoftware,Kicad,Pcbnew,8.0.4
; #@! TF.FileFunction,NonPlated,1,2,NPTH
FMAT,2
INCH
; #@! TA.AperFunction,NonPlated,NPTH,ComponentDrill
T1C0.0295
; #@! TA.AperFunction,NonPlated,NPTH,ComponentDrill
T2C0.0354
; #@! TA.AperFunction,NonPlated,NPTH,ComponentDrill
T3C0.0670
; #@! TA.AperFunction,NonPlated,NPTH,ComponentDrill
T4C0.1181
; #@! TA.AperFunction,NonPlated,NPTH,ComponentDrill
T5C0.1350
; #@! TA.AperFunction,NonPlated,NPTH,ComponentDrill
T6C0.1575
%
G90
G05
T1
X6.7954Y-3.1729
X6.9037Y-3.1729
T2
X6.8496Y-3.4686
X6.8496Y-3.5867
T3
X1.6367Y-2.1379
X1.6834Y-2.8056
X1.7301Y-3.4732
X1.7768Y-4.1409
X2.0688Y-2.1077
X2.1154Y-2.7754
X2.1621Y-3.443
X2.2088Y-4.1107
X2.5228Y-3.9111
X2.5228Y-3.2418
X2.5228Y-2.5725
X2.5228Y-1.9032
X2.9559Y-3.9111
X2.9559Y-3.2418
X2.9559Y-2.5725
X2.9559Y-1.9032
X3.2315Y-3.8127
X3.2315Y-3.1434
X3.2315Y-1.8048
X3.2315Y-2.4741
X3.6645Y-3.8127
X3.6645Y-3.1434
X3.6645Y-1.8048
X3.6645Y-2.4741
X3.9401Y-3.2418
X3.9401Y-1.9032
X3.9401Y-2.5725
X3.9401Y-3.9111
X4.3732Y-3.2418
X4.3732Y-1.9032
X4.3732Y-2.5725
X4.3732Y-3.9111
X4.6488Y-4.0095
X4.6488Y-2.0017
X4.6488Y-3.3402
X4.6488Y-2.671
X4.7702Y-4.72
X5.0819Y-4.0095
X5.0819Y-2.0017
X5.0819Y-3.3402
X5.0819Y-2.671
X5.1967Y-4.7952
X5.3575Y-2.0017
X5.3575Y-3.3402
X5.3575Y-2.671
X5.4829Y-4.0716
X5.5865Y-4.9443
X5.7905Y-2.0017
X5.7905Y-3.3402
X5.7905Y-2.671
X5.9013Y-4.1837
X5.9615Y-5.1609
X6.2878Y-4.3639
X6.2883Y-5.435
X6.5666Y-5.7668
X6.6425Y-4.6123
X6.9441Y-4.9139
X7.1925Y-5.2687
T4
X1.8364Y-1.8891
X1.8831Y-2.5568
X1.9298Y-3.2244
X1.9765Y-3.8921
X2.0388Y-1.9618
X2.0855Y-2.6295
X2.1322Y-3.2971
X2.1789Y-3.9648
X2.7393Y-3.6769
X2.7393Y-3.0076
X2.7393Y-2.3383
X2.7393Y-1.669
X2.9362Y-3.7635
X2.9362Y-3.0942
X2.9362Y-2.4249
X2.9362Y-1.7556
X3.448Y-3.5784
X3.448Y-2.9091
X3.448Y-1.5706
X3.448Y-2.2399
X3.6449Y-3.665
X3.6449Y-2.9958
X3.6449Y-1.6572
X3.6449Y-2.3265
X4.1567Y-3.0076
X4.1567Y-1.669
X4.1567Y-2.3383
X4.1567Y-3.6769
X4.3535Y-3.0942
X4.3535Y-1.7556
X4.3535Y-2.4249
X4.3535Y-3.7635
X4.8653Y-3.7753
X4.8653Y-1.7674
X4.8653Y-3.106
X4.8653Y-2.4367
X5.0241Y-4.5269
X5.0622Y-3.8619
X5.0622Y-1.854
X5.0622Y-3.1926
X5.0622Y-2.5233
X5.2029Y-4.6464
X5.574Y-1.7674
X5.574Y-3.106
X5.574Y-2.4367
X5.7527Y-3.9014
X5.7708Y-1.854
X5.7708Y-3.1926
X5.7708Y-2.5233
X5.8911Y-4.8497
X5.9205Y-4.036
X6.0183Y-5.0232
X6.5995Y-4.2962
X6.6069Y-5.4503
X6.6671Y-5.6568
X6.7111Y-4.4801
X7.2602Y-4.9569
X7.3022Y-5.1679
T5
X1.8527Y-2.1228
X1.8994Y-2.7905
X1.9461Y-3.4581
X1.9928Y-4.1258
X2.7393Y-3.9111
X2.7393Y-3.2418
X2.7393Y-2.5725
X2.7393Y-1.9032
X3.448Y-3.8127
X3.448Y-3.1434
X3.448Y-1.8048
X3.448Y-2.4741
X4.1567Y-3.2418
X4.1567Y-1.9032
X4.1567Y-2.5725
X4.1567Y-3.9111
X4.8653Y-4.0095
X4.8653Y-2.0017
X4.8653Y-3.3402
X4.8653Y-2.671
X4.9834Y-4.7576
X5.574Y-2.0017
X5.574Y-3.3402
X5.574Y-2.671
X5.6921Y-4.1276
X5.774Y-5.0526
X6.4274Y-5.6009
X6.4652Y-4.4881
X7.0683Y-5.0913
T6
X2.2866Y-2.2379
X2.385Y-4.3442
X4.4968Y-2.2379
X6.0373Y-5.3963
X6.4953Y-3.0725
M30
