%TF.GenerationSoftware,KiCad,Pcbnew,8.0.4*%
%TF.CreationDate,2024-09-30T21:31:24-06:00*%
%TF.ProjectId,left_finished,6c656674-5f66-4696-9e69-736865642e6b,v1.0.0*%
%TF.SameCoordinates,Original*%
%TF.FileFunction,Paste,Top*%
%TF.FilePolarity,Positive*%
%FSLAX46Y46*%
G04 Gerber Fmt 4.6, Leading zero omitted, Abs format (unit mm)*
G04 Created by KiCad (PCBNEW 8.0.4) date 2024-09-30 21:31:24*
%MOMM*%
%LPD*%
G01*
G04 APERTURE LIST*
G04 Aperture macros list*
%AMRotRect*
0 Rectangle, with rotation*
0 The origin of the aperture is its center*
0 $1 length*
0 $2 width*
0 $3 Rotation angle, in degrees counterclockwise*
0 Add horizontal line*
21,1,$1,$2,0,0,$3*%
G04 Aperture macros list end*
%ADD10RotRect,0.900000X1.200000X305.000000*%
%ADD11R,0.900000X1.200000*%
%ADD12RotRect,0.900000X1.200000X330.000000*%
%ADD13RotRect,0.900000X1.200000X4.000000*%
%ADD14RotRect,0.900000X1.200000X325.000000*%
%ADD15RotRect,0.900000X1.200000X310.000000*%
%ADD16RotRect,0.900000X1.200000X350.000000*%
%ADD17RotRect,0.900000X1.200000X345.000000*%
G04 APERTURE END LIST*
D10*
%TO.C,D29*%
X174493124Y-130834895D03*
X176385926Y-133538097D03*
%TD*%
D11*
%TO.C,D17*%
X121929417Y-106842254D03*
X125229417Y-106842254D03*
%TD*%
%TO.C,D7*%
X67929417Y-70342252D03*
X71229417Y-70342252D03*
%TD*%
%TO.C,D11*%
X85929404Y-67842259D03*
X89229404Y-67842259D03*
%TD*%
%TO.C,D18*%
X121929420Y-89842260D03*
X125229420Y-89842260D03*
%TD*%
D12*
%TO.C,D25*%
X142731170Y-131840941D03*
X145589054Y-133490941D03*
%TD*%
D11*
%TO.C,D23*%
X139929417Y-55842245D03*
X143229417Y-55842245D03*
%TD*%
D13*
%TO.C,D3*%
X46948519Y-75980645D03*
X50240481Y-75750449D03*
%TD*%
%TO.C,D1*%
X49320240Y-109897806D03*
X52612202Y-109667610D03*
%TD*%
D11*
%TO.C,D21*%
X139929433Y-89842241D03*
X143229433Y-89842241D03*
%TD*%
D14*
%TO.C,D28*%
X159995776Y-117147957D03*
X162698978Y-119040759D03*
%TD*%
D11*
%TO.C,D5*%
X67929410Y-104342257D03*
X71229410Y-104342257D03*
%TD*%
D13*
%TO.C,D2*%
X48134390Y-92939218D03*
X51426352Y-92709022D03*
%TD*%
D15*
%TO.C,D26*%
X158366233Y-144212282D03*
X160487433Y-146740228D03*
%TD*%
D11*
%TO.C,D9*%
X85929428Y-101842246D03*
X89229428Y-101842246D03*
%TD*%
%TO.C,D16*%
X103929417Y-53342249D03*
X107229417Y-53342249D03*
%TD*%
%TO.C,D8*%
X67929421Y-53342241D03*
X71229421Y-53342241D03*
%TD*%
D16*
%TO.C,D24*%
X124086236Y-125479768D03*
X127336102Y-126052806D03*
%TD*%
D11*
%TO.C,D6*%
X67929413Y-87342262D03*
X71229413Y-87342262D03*
%TD*%
%TO.C,D14*%
X103929432Y-87342247D03*
X107229432Y-87342247D03*
%TD*%
D17*
%TO.C,D27*%
X141691546Y-109244828D03*
X144879102Y-110098928D03*
%TD*%
D11*
%TO.C,D15*%
X103929416Y-70342259D03*
X107229416Y-70342259D03*
%TD*%
%TO.C,D13*%
X103929437Y-104342241D03*
X107229437Y-104342241D03*
%TD*%
%TO.C,D19*%
X121929407Y-72842235D03*
X125229407Y-72842235D03*
%TD*%
%TO.C,D12*%
X85929415Y-50842252D03*
X89229415Y-50842252D03*
%TD*%
%TO.C,D22*%
X139929424Y-72842241D03*
X143229424Y-72842241D03*
%TD*%
D13*
%TO.C,D4*%
X45762655Y-59022050D03*
X49054617Y-58791854D03*
%TD*%
D11*
%TO.C,D10*%
X85929427Y-84842260D03*
X89229427Y-84842260D03*
%TD*%
%TO.C,D20*%
X121929414Y-55842236D03*
X125229414Y-55842236D03*
%TD*%
M02*
