%TF.GenerationSoftware,KiCad,Pcbnew,8.0.4*%
%TF.CreationDate,2024-09-30T21:31:24-06:00*%
%TF.ProjectId,left_finished,6c656674-5f66-4696-9e69-736865642e6b,v1.0.0*%
%TF.SameCoordinates,Original*%
%TF.FileFunction,Legend,Bot*%
%TF.FilePolarity,Positive*%
%FSLAX46Y46*%
G04 Gerber Fmt 4.6, Leading zero omitted, Abs format (unit mm)*
G04 Created by KiCad (PCBNEW 8.0.4) date 2024-09-30 21:31:24*
%MOMM*%
%LPD*%
G01*
G04 APERTURE LIST*
%ADD10C,0.150000*%
%ADD11C,0.100000*%
%ADD12C,0.120000*%
%ADD13C,0.381000*%
%ADD14C,1.752600*%
G04 APERTURE END LIST*
D10*
X157842238Y-54764552D02*
X157766048Y-54764552D01*
X157766048Y-54764552D02*
X157689857Y-54802647D01*
X157689857Y-54802647D02*
X157651762Y-54840742D01*
X157651762Y-54840742D02*
X157613667Y-54916933D01*
X157613667Y-54916933D02*
X157575572Y-55069314D01*
X157575572Y-55069314D02*
X157575572Y-55259790D01*
X157575572Y-55259790D02*
X157613667Y-55412171D01*
X157613667Y-55412171D02*
X157651762Y-55488361D01*
X157651762Y-55488361D02*
X157689857Y-55526457D01*
X157689857Y-55526457D02*
X157766048Y-55564552D01*
X157766048Y-55564552D02*
X157842238Y-55564552D01*
X157842238Y-55564552D02*
X157918429Y-55526457D01*
X157918429Y-55526457D02*
X157956524Y-55488361D01*
X157956524Y-55488361D02*
X157994619Y-55412171D01*
X157994619Y-55412171D02*
X158032715Y-55259790D01*
X158032715Y-55259790D02*
X158032715Y-55069314D01*
X158032715Y-55069314D02*
X157994619Y-54916933D01*
X157994619Y-54916933D02*
X157956524Y-54840742D01*
X157956524Y-54840742D02*
X157918429Y-54802647D01*
X157918429Y-54802647D02*
X157842238Y-54764552D01*
X156813667Y-55564552D02*
X157270810Y-55564552D01*
X157042238Y-55564552D02*
X157042238Y-54764552D01*
X157042238Y-54764552D02*
X157118429Y-54878837D01*
X157118429Y-54878837D02*
X157194619Y-54955028D01*
X157194619Y-54955028D02*
X157270810Y-54993123D01*
X156547000Y-54764552D02*
X156013666Y-54764552D01*
X156013666Y-54764552D02*
X156356524Y-55564552D01*
X168649953Y-68254552D02*
X169107096Y-68254552D01*
X168878524Y-68254552D02*
X168878524Y-67454552D01*
X168878524Y-67454552D02*
X168954715Y-67568837D01*
X168954715Y-67568837D02*
X169030905Y-67645028D01*
X169030905Y-67645028D02*
X169107096Y-67683123D01*
X167888048Y-68254552D02*
X168345191Y-68254552D01*
X168116619Y-68254552D02*
X168116619Y-67454552D01*
X168116619Y-67454552D02*
X168192810Y-67568837D01*
X168192810Y-67568837D02*
X168269000Y-67645028D01*
X168269000Y-67645028D02*
X168345191Y-67683123D01*
X167126143Y-68254552D02*
X167583286Y-68254552D01*
X167354714Y-68254552D02*
X167354714Y-67454552D01*
X167354714Y-67454552D02*
X167430905Y-67568837D01*
X167430905Y-67568837D02*
X167507095Y-67645028D01*
X167507095Y-67645028D02*
X167583286Y-67683123D01*
X157727950Y-49712648D02*
X157804140Y-49674553D01*
X157804140Y-49674553D02*
X157918426Y-49674553D01*
X157918426Y-49674553D02*
X158032712Y-49712648D01*
X158032712Y-49712648D02*
X158108902Y-49788838D01*
X158108902Y-49788838D02*
X158146997Y-49865029D01*
X158146997Y-49865029D02*
X158185093Y-50017410D01*
X158185093Y-50017410D02*
X158185093Y-50131696D01*
X158185093Y-50131696D02*
X158146997Y-50284077D01*
X158146997Y-50284077D02*
X158108902Y-50360267D01*
X158108902Y-50360267D02*
X158032712Y-50436458D01*
X158032712Y-50436458D02*
X157918426Y-50474553D01*
X157918426Y-50474553D02*
X157842235Y-50474553D01*
X157842235Y-50474553D02*
X157727950Y-50436458D01*
X157727950Y-50436458D02*
X157689854Y-50398362D01*
X157689854Y-50398362D02*
X157689854Y-50131696D01*
X157689854Y-50131696D02*
X157842235Y-50131696D01*
X157346997Y-50474553D02*
X157346997Y-49674553D01*
X157346997Y-49674553D02*
X156889854Y-50474553D01*
X156889854Y-50474553D02*
X156889854Y-49674553D01*
X156508902Y-50474553D02*
X156508902Y-49674553D01*
X156508902Y-49674553D02*
X156318426Y-49674553D01*
X156318426Y-49674553D02*
X156204140Y-49712648D01*
X156204140Y-49712648D02*
X156127950Y-49788838D01*
X156127950Y-49788838D02*
X156089855Y-49865029D01*
X156089855Y-49865029D02*
X156051759Y-50017410D01*
X156051759Y-50017410D02*
X156051759Y-50131696D01*
X156051759Y-50131696D02*
X156089855Y-50284077D01*
X156089855Y-50284077D02*
X156127950Y-50360267D01*
X156127950Y-50360267D02*
X156204140Y-50436458D01*
X156204140Y-50436458D02*
X156318426Y-50474553D01*
X156318426Y-50474553D02*
X156508902Y-50474553D01*
X157575575Y-65714556D02*
X158032718Y-65714556D01*
X157804146Y-65714556D02*
X157804146Y-64914556D01*
X157804146Y-64914556D02*
X157880337Y-65028841D01*
X157880337Y-65028841D02*
X157956527Y-65105032D01*
X157956527Y-65105032D02*
X158032718Y-65143127D01*
X157080336Y-64914556D02*
X157004146Y-64914556D01*
X157004146Y-64914556D02*
X156927955Y-64952651D01*
X156927955Y-64952651D02*
X156889860Y-64990746D01*
X156889860Y-64990746D02*
X156851765Y-65066937D01*
X156851765Y-65066937D02*
X156813670Y-65219318D01*
X156813670Y-65219318D02*
X156813670Y-65409794D01*
X156813670Y-65409794D02*
X156851765Y-65562175D01*
X156851765Y-65562175D02*
X156889860Y-65638365D01*
X156889860Y-65638365D02*
X156927955Y-65676461D01*
X156927955Y-65676461D02*
X157004146Y-65714556D01*
X157004146Y-65714556D02*
X157080336Y-65714556D01*
X157080336Y-65714556D02*
X157156527Y-65676461D01*
X157156527Y-65676461D02*
X157194622Y-65638365D01*
X157194622Y-65638365D02*
X157232717Y-65562175D01*
X157232717Y-65562175D02*
X157270813Y-65409794D01*
X157270813Y-65409794D02*
X157270813Y-65219318D01*
X157270813Y-65219318D02*
X157232717Y-65066937D01*
X157232717Y-65066937D02*
X157194622Y-64990746D01*
X157194622Y-64990746D02*
X157156527Y-64952651D01*
X157156527Y-64952651D02*
X157080336Y-64914556D01*
X156318431Y-64914556D02*
X156242241Y-64914556D01*
X156242241Y-64914556D02*
X156166050Y-64952651D01*
X156166050Y-64952651D02*
X156127955Y-64990746D01*
X156127955Y-64990746D02*
X156089860Y-65066937D01*
X156089860Y-65066937D02*
X156051765Y-65219318D01*
X156051765Y-65219318D02*
X156051765Y-65409794D01*
X156051765Y-65409794D02*
X156089860Y-65562175D01*
X156089860Y-65562175D02*
X156127955Y-65638365D01*
X156127955Y-65638365D02*
X156166050Y-65676461D01*
X156166050Y-65676461D02*
X156242241Y-65714556D01*
X156242241Y-65714556D02*
X156318431Y-65714556D01*
X156318431Y-65714556D02*
X156394622Y-65676461D01*
X156394622Y-65676461D02*
X156432717Y-65638365D01*
X156432717Y-65638365D02*
X156470812Y-65562175D01*
X156470812Y-65562175D02*
X156508908Y-65409794D01*
X156508908Y-65409794D02*
X156508908Y-65219318D01*
X156508908Y-65219318D02*
X156470812Y-65066937D01*
X156470812Y-65066937D02*
X156432717Y-64990746D01*
X156432717Y-64990746D02*
X156394622Y-64952651D01*
X156394622Y-64952651D02*
X156318431Y-64914556D01*
X168916622Y-57294549D02*
X168840432Y-57294549D01*
X168840432Y-57294549D02*
X168764241Y-57332644D01*
X168764241Y-57332644D02*
X168726146Y-57370739D01*
X168726146Y-57370739D02*
X168688051Y-57446930D01*
X168688051Y-57446930D02*
X168649956Y-57599311D01*
X168649956Y-57599311D02*
X168649956Y-57789787D01*
X168649956Y-57789787D02*
X168688051Y-57942168D01*
X168688051Y-57942168D02*
X168726146Y-58018358D01*
X168726146Y-58018358D02*
X168764241Y-58056454D01*
X168764241Y-58056454D02*
X168840432Y-58094549D01*
X168840432Y-58094549D02*
X168916622Y-58094549D01*
X168916622Y-58094549D02*
X168992813Y-58056454D01*
X168992813Y-58056454D02*
X169030908Y-58018358D01*
X169030908Y-58018358D02*
X169069003Y-57942168D01*
X169069003Y-57942168D02*
X169107099Y-57789787D01*
X169107099Y-57789787D02*
X169107099Y-57599311D01*
X169107099Y-57599311D02*
X169069003Y-57446930D01*
X169069003Y-57446930D02*
X169030908Y-57370739D01*
X169030908Y-57370739D02*
X168992813Y-57332644D01*
X168992813Y-57332644D02*
X168916622Y-57294549D01*
X168345194Y-57370739D02*
X168307098Y-57332644D01*
X168307098Y-57332644D02*
X168230908Y-57294549D01*
X168230908Y-57294549D02*
X168040432Y-57294549D01*
X168040432Y-57294549D02*
X167964241Y-57332644D01*
X167964241Y-57332644D02*
X167926146Y-57370739D01*
X167926146Y-57370739D02*
X167888051Y-57446930D01*
X167888051Y-57446930D02*
X167888051Y-57523120D01*
X167888051Y-57523120D02*
X167926146Y-57637406D01*
X167926146Y-57637406D02*
X168383289Y-58094549D01*
X168383289Y-58094549D02*
X167888051Y-58094549D01*
X167507098Y-58094549D02*
X167354717Y-58094549D01*
X167354717Y-58094549D02*
X167278527Y-58056454D01*
X167278527Y-58056454D02*
X167240431Y-58018358D01*
X167240431Y-58018358D02*
X167164241Y-57904073D01*
X167164241Y-57904073D02*
X167126146Y-57751692D01*
X167126146Y-57751692D02*
X167126146Y-57446930D01*
X167126146Y-57446930D02*
X167164241Y-57370739D01*
X167164241Y-57370739D02*
X167202336Y-57332644D01*
X167202336Y-57332644D02*
X167278527Y-57294549D01*
X167278527Y-57294549D02*
X167430908Y-57294549D01*
X167430908Y-57294549D02*
X167507098Y-57332644D01*
X167507098Y-57332644D02*
X167545193Y-57370739D01*
X167545193Y-57370739D02*
X167583289Y-57446930D01*
X167583289Y-57446930D02*
X167583289Y-57637406D01*
X167583289Y-57637406D02*
X167545193Y-57713596D01*
X167545193Y-57713596D02*
X167507098Y-57751692D01*
X167507098Y-57751692D02*
X167430908Y-57789787D01*
X167430908Y-57789787D02*
X167278527Y-57789787D01*
X167278527Y-57789787D02*
X167202336Y-57751692D01*
X167202336Y-57751692D02*
X167164241Y-57713596D01*
X167164241Y-57713596D02*
X167126146Y-57637406D01*
X168605524Y-45394552D02*
X168872191Y-45013599D01*
X169062667Y-45394552D02*
X169062667Y-44594552D01*
X169062667Y-44594552D02*
X168757905Y-44594552D01*
X168757905Y-44594552D02*
X168681715Y-44632647D01*
X168681715Y-44632647D02*
X168643620Y-44670742D01*
X168643620Y-44670742D02*
X168605524Y-44746933D01*
X168605524Y-44746933D02*
X168605524Y-44861218D01*
X168605524Y-44861218D02*
X168643620Y-44937409D01*
X168643620Y-44937409D02*
X168681715Y-44975504D01*
X168681715Y-44975504D02*
X168757905Y-45013599D01*
X168757905Y-45013599D02*
X169062667Y-45013599D01*
X168300763Y-45165980D02*
X167919810Y-45165980D01*
X168376953Y-45394552D02*
X168110286Y-44594552D01*
X168110286Y-44594552D02*
X167843620Y-45394552D01*
X167653144Y-44594552D02*
X167462668Y-45394552D01*
X167462668Y-45394552D02*
X167310287Y-44823123D01*
X167310287Y-44823123D02*
X167157906Y-45394552D01*
X167157906Y-45394552D02*
X166967430Y-44594552D01*
X168916619Y-59834552D02*
X168840429Y-59834552D01*
X168840429Y-59834552D02*
X168764238Y-59872647D01*
X168764238Y-59872647D02*
X168726143Y-59910742D01*
X168726143Y-59910742D02*
X168688048Y-59986933D01*
X168688048Y-59986933D02*
X168649953Y-60139314D01*
X168649953Y-60139314D02*
X168649953Y-60329790D01*
X168649953Y-60329790D02*
X168688048Y-60482171D01*
X168688048Y-60482171D02*
X168726143Y-60558361D01*
X168726143Y-60558361D02*
X168764238Y-60596457D01*
X168764238Y-60596457D02*
X168840429Y-60634552D01*
X168840429Y-60634552D02*
X168916619Y-60634552D01*
X168916619Y-60634552D02*
X168992810Y-60596457D01*
X168992810Y-60596457D02*
X169030905Y-60558361D01*
X169030905Y-60558361D02*
X169069000Y-60482171D01*
X169069000Y-60482171D02*
X169107096Y-60329790D01*
X169107096Y-60329790D02*
X169107096Y-60139314D01*
X169107096Y-60139314D02*
X169069000Y-59986933D01*
X169069000Y-59986933D02*
X169030905Y-59910742D01*
X169030905Y-59910742D02*
X168992810Y-59872647D01*
X168992810Y-59872647D02*
X168916619Y-59834552D01*
X168154714Y-59834552D02*
X168078524Y-59834552D01*
X168078524Y-59834552D02*
X168002333Y-59872647D01*
X168002333Y-59872647D02*
X167964238Y-59910742D01*
X167964238Y-59910742D02*
X167926143Y-59986933D01*
X167926143Y-59986933D02*
X167888048Y-60139314D01*
X167888048Y-60139314D02*
X167888048Y-60329790D01*
X167888048Y-60329790D02*
X167926143Y-60482171D01*
X167926143Y-60482171D02*
X167964238Y-60558361D01*
X167964238Y-60558361D02*
X168002333Y-60596457D01*
X168002333Y-60596457D02*
X168078524Y-60634552D01*
X168078524Y-60634552D02*
X168154714Y-60634552D01*
X168154714Y-60634552D02*
X168230905Y-60596457D01*
X168230905Y-60596457D02*
X168269000Y-60558361D01*
X168269000Y-60558361D02*
X168307095Y-60482171D01*
X168307095Y-60482171D02*
X168345191Y-60329790D01*
X168345191Y-60329790D02*
X168345191Y-60139314D01*
X168345191Y-60139314D02*
X168307095Y-59986933D01*
X168307095Y-59986933D02*
X168269000Y-59910742D01*
X168269000Y-59910742D02*
X168230905Y-59872647D01*
X168230905Y-59872647D02*
X168154714Y-59834552D01*
X167583286Y-59910742D02*
X167545190Y-59872647D01*
X167545190Y-59872647D02*
X167469000Y-59834552D01*
X167469000Y-59834552D02*
X167278524Y-59834552D01*
X167278524Y-59834552D02*
X167202333Y-59872647D01*
X167202333Y-59872647D02*
X167164238Y-59910742D01*
X167164238Y-59910742D02*
X167126143Y-59986933D01*
X167126143Y-59986933D02*
X167126143Y-60063123D01*
X167126143Y-60063123D02*
X167164238Y-60177409D01*
X167164238Y-60177409D02*
X167621381Y-60634552D01*
X167621381Y-60634552D02*
X167126143Y-60634552D01*
X157842239Y-44594554D02*
X157766049Y-44594554D01*
X157766049Y-44594554D02*
X157689858Y-44632649D01*
X157689858Y-44632649D02*
X157651763Y-44670744D01*
X157651763Y-44670744D02*
X157613668Y-44746935D01*
X157613668Y-44746935D02*
X157575573Y-44899316D01*
X157575573Y-44899316D02*
X157575573Y-45089792D01*
X157575573Y-45089792D02*
X157613668Y-45242173D01*
X157613668Y-45242173D02*
X157651763Y-45318363D01*
X157651763Y-45318363D02*
X157689858Y-45356459D01*
X157689858Y-45356459D02*
X157766049Y-45394554D01*
X157766049Y-45394554D02*
X157842239Y-45394554D01*
X157842239Y-45394554D02*
X157918430Y-45356459D01*
X157918430Y-45356459D02*
X157956525Y-45318363D01*
X157956525Y-45318363D02*
X157994620Y-45242173D01*
X157994620Y-45242173D02*
X158032716Y-45089792D01*
X158032716Y-45089792D02*
X158032716Y-44899316D01*
X158032716Y-44899316D02*
X157994620Y-44746935D01*
X157994620Y-44746935D02*
X157956525Y-44670744D01*
X157956525Y-44670744D02*
X157918430Y-44632649D01*
X157918430Y-44632649D02*
X157842239Y-44594554D01*
X157080334Y-44594554D02*
X157004144Y-44594554D01*
X157004144Y-44594554D02*
X156927953Y-44632649D01*
X156927953Y-44632649D02*
X156889858Y-44670744D01*
X156889858Y-44670744D02*
X156851763Y-44746935D01*
X156851763Y-44746935D02*
X156813668Y-44899316D01*
X156813668Y-44899316D02*
X156813668Y-45089792D01*
X156813668Y-45089792D02*
X156851763Y-45242173D01*
X156851763Y-45242173D02*
X156889858Y-45318363D01*
X156889858Y-45318363D02*
X156927953Y-45356459D01*
X156927953Y-45356459D02*
X157004144Y-45394554D01*
X157004144Y-45394554D02*
X157080334Y-45394554D01*
X157080334Y-45394554D02*
X157156525Y-45356459D01*
X157156525Y-45356459D02*
X157194620Y-45318363D01*
X157194620Y-45318363D02*
X157232715Y-45242173D01*
X157232715Y-45242173D02*
X157270811Y-45089792D01*
X157270811Y-45089792D02*
X157270811Y-44899316D01*
X157270811Y-44899316D02*
X157232715Y-44746935D01*
X157232715Y-44746935D02*
X157194620Y-44670744D01*
X157194620Y-44670744D02*
X157156525Y-44632649D01*
X157156525Y-44632649D02*
X157080334Y-44594554D01*
X156127953Y-44594554D02*
X156280334Y-44594554D01*
X156280334Y-44594554D02*
X156356525Y-44632649D01*
X156356525Y-44632649D02*
X156394620Y-44670744D01*
X156394620Y-44670744D02*
X156470810Y-44785030D01*
X156470810Y-44785030D02*
X156508906Y-44937411D01*
X156508906Y-44937411D02*
X156508906Y-45242173D01*
X156508906Y-45242173D02*
X156470810Y-45318363D01*
X156470810Y-45318363D02*
X156432715Y-45356459D01*
X156432715Y-45356459D02*
X156356525Y-45394554D01*
X156356525Y-45394554D02*
X156204144Y-45394554D01*
X156204144Y-45394554D02*
X156127953Y-45356459D01*
X156127953Y-45356459D02*
X156089858Y-45318363D01*
X156089858Y-45318363D02*
X156051763Y-45242173D01*
X156051763Y-45242173D02*
X156051763Y-45051697D01*
X156051763Y-45051697D02*
X156089858Y-44975506D01*
X156089858Y-44975506D02*
X156127953Y-44937411D01*
X156127953Y-44937411D02*
X156204144Y-44899316D01*
X156204144Y-44899316D02*
X156356525Y-44899316D01*
X156356525Y-44899316D02*
X156432715Y-44937411D01*
X156432715Y-44937411D02*
X156470810Y-44975506D01*
X156470810Y-44975506D02*
X156508906Y-45051697D01*
X157842243Y-59864554D02*
X157766053Y-59864554D01*
X157766053Y-59864554D02*
X157689862Y-59902649D01*
X157689862Y-59902649D02*
X157651767Y-59940744D01*
X157651767Y-59940744D02*
X157613672Y-60016935D01*
X157613672Y-60016935D02*
X157575577Y-60169316D01*
X157575577Y-60169316D02*
X157575577Y-60359792D01*
X157575577Y-60359792D02*
X157613672Y-60512173D01*
X157613672Y-60512173D02*
X157651767Y-60588363D01*
X157651767Y-60588363D02*
X157689862Y-60626459D01*
X157689862Y-60626459D02*
X157766053Y-60664554D01*
X157766053Y-60664554D02*
X157842243Y-60664554D01*
X157842243Y-60664554D02*
X157918434Y-60626459D01*
X157918434Y-60626459D02*
X157956529Y-60588363D01*
X157956529Y-60588363D02*
X157994624Y-60512173D01*
X157994624Y-60512173D02*
X158032720Y-60359792D01*
X158032720Y-60359792D02*
X158032720Y-60169316D01*
X158032720Y-60169316D02*
X157994624Y-60016935D01*
X157994624Y-60016935D02*
X157956529Y-59940744D01*
X157956529Y-59940744D02*
X157918434Y-59902649D01*
X157918434Y-59902649D02*
X157842243Y-59864554D01*
X157270815Y-59940744D02*
X157232719Y-59902649D01*
X157232719Y-59902649D02*
X157156529Y-59864554D01*
X157156529Y-59864554D02*
X156966053Y-59864554D01*
X156966053Y-59864554D02*
X156889862Y-59902649D01*
X156889862Y-59902649D02*
X156851767Y-59940744D01*
X156851767Y-59940744D02*
X156813672Y-60016935D01*
X156813672Y-60016935D02*
X156813672Y-60093125D01*
X156813672Y-60093125D02*
X156851767Y-60207411D01*
X156851767Y-60207411D02*
X157308910Y-60664554D01*
X157308910Y-60664554D02*
X156813672Y-60664554D01*
X156508910Y-59940744D02*
X156470814Y-59902649D01*
X156470814Y-59902649D02*
X156394624Y-59864554D01*
X156394624Y-59864554D02*
X156204148Y-59864554D01*
X156204148Y-59864554D02*
X156127957Y-59902649D01*
X156127957Y-59902649D02*
X156089862Y-59940744D01*
X156089862Y-59940744D02*
X156051767Y-60016935D01*
X156051767Y-60016935D02*
X156051767Y-60093125D01*
X156051767Y-60093125D02*
X156089862Y-60207411D01*
X156089862Y-60207411D02*
X156547005Y-60664554D01*
X156547005Y-60664554D02*
X156051767Y-60664554D01*
X157575572Y-70794552D02*
X158032715Y-70794552D01*
X157804143Y-70794552D02*
X157804143Y-69994552D01*
X157804143Y-69994552D02*
X157880334Y-70108837D01*
X157880334Y-70108837D02*
X157956524Y-70185028D01*
X157956524Y-70185028D02*
X158032715Y-70223123D01*
X157080333Y-69994552D02*
X157004143Y-69994552D01*
X157004143Y-69994552D02*
X156927952Y-70032647D01*
X156927952Y-70032647D02*
X156889857Y-70070742D01*
X156889857Y-70070742D02*
X156851762Y-70146933D01*
X156851762Y-70146933D02*
X156813667Y-70299314D01*
X156813667Y-70299314D02*
X156813667Y-70489790D01*
X156813667Y-70489790D02*
X156851762Y-70642171D01*
X156851762Y-70642171D02*
X156889857Y-70718361D01*
X156889857Y-70718361D02*
X156927952Y-70756457D01*
X156927952Y-70756457D02*
X157004143Y-70794552D01*
X157004143Y-70794552D02*
X157080333Y-70794552D01*
X157080333Y-70794552D02*
X157156524Y-70756457D01*
X157156524Y-70756457D02*
X157194619Y-70718361D01*
X157194619Y-70718361D02*
X157232714Y-70642171D01*
X157232714Y-70642171D02*
X157270810Y-70489790D01*
X157270810Y-70489790D02*
X157270810Y-70299314D01*
X157270810Y-70299314D02*
X157232714Y-70146933D01*
X157232714Y-70146933D02*
X157194619Y-70070742D01*
X157194619Y-70070742D02*
X157156524Y-70032647D01*
X157156524Y-70032647D02*
X157080333Y-69994552D01*
X156127952Y-70261218D02*
X156127952Y-70794552D01*
X156318428Y-69956457D02*
X156508905Y-70527885D01*
X156508905Y-70527885D02*
X156013666Y-70527885D01*
X168649952Y-63174554D02*
X169107095Y-63174554D01*
X168878523Y-63174554D02*
X168878523Y-62374554D01*
X168878523Y-62374554D02*
X168954714Y-62488839D01*
X168954714Y-62488839D02*
X169030904Y-62565030D01*
X169030904Y-62565030D02*
X169107095Y-62603125D01*
X167888047Y-63174554D02*
X168345190Y-63174554D01*
X168116618Y-63174554D02*
X168116618Y-62374554D01*
X168116618Y-62374554D02*
X168192809Y-62488839D01*
X168192809Y-62488839D02*
X168268999Y-62565030D01*
X168268999Y-62565030D02*
X168345190Y-62603125D01*
X167164237Y-62374554D02*
X167545189Y-62374554D01*
X167545189Y-62374554D02*
X167583285Y-62755506D01*
X167583285Y-62755506D02*
X167545189Y-62717411D01*
X167545189Y-62717411D02*
X167468999Y-62679316D01*
X167468999Y-62679316D02*
X167278523Y-62679316D01*
X167278523Y-62679316D02*
X167202332Y-62717411D01*
X167202332Y-62717411D02*
X167164237Y-62755506D01*
X167164237Y-62755506D02*
X167126142Y-62831697D01*
X167126142Y-62831697D02*
X167126142Y-63022173D01*
X167126142Y-63022173D02*
X167164237Y-63098363D01*
X167164237Y-63098363D02*
X167202332Y-63136459D01*
X167202332Y-63136459D02*
X167278523Y-63174554D01*
X167278523Y-63174554D02*
X167468999Y-63174554D01*
X167468999Y-63174554D02*
X167545189Y-63136459D01*
X167545189Y-63136459D02*
X167583285Y-63098363D01*
X169183282Y-52214548D02*
X168916615Y-53014548D01*
X168916615Y-53014548D02*
X168649949Y-52214548D01*
X167926139Y-52938357D02*
X167964235Y-52976453D01*
X167964235Y-52976453D02*
X168078520Y-53014548D01*
X168078520Y-53014548D02*
X168154711Y-53014548D01*
X168154711Y-53014548D02*
X168268997Y-52976453D01*
X168268997Y-52976453D02*
X168345187Y-52900262D01*
X168345187Y-52900262D02*
X168383282Y-52824072D01*
X168383282Y-52824072D02*
X168421378Y-52671691D01*
X168421378Y-52671691D02*
X168421378Y-52557405D01*
X168421378Y-52557405D02*
X168383282Y-52405024D01*
X168383282Y-52405024D02*
X168345187Y-52328833D01*
X168345187Y-52328833D02*
X168268997Y-52252643D01*
X168268997Y-52252643D02*
X168154711Y-52214548D01*
X168154711Y-52214548D02*
X168078520Y-52214548D01*
X168078520Y-52214548D02*
X167964235Y-52252643D01*
X167964235Y-52252643D02*
X167926139Y-52290738D01*
X167126139Y-52938357D02*
X167164235Y-52976453D01*
X167164235Y-52976453D02*
X167278520Y-53014548D01*
X167278520Y-53014548D02*
X167354711Y-53014548D01*
X167354711Y-53014548D02*
X167468997Y-52976453D01*
X167468997Y-52976453D02*
X167545187Y-52900262D01*
X167545187Y-52900262D02*
X167583282Y-52824072D01*
X167583282Y-52824072D02*
X167621378Y-52671691D01*
X167621378Y-52671691D02*
X167621378Y-52557405D01*
X167621378Y-52557405D02*
X167583282Y-52405024D01*
X167583282Y-52405024D02*
X167545187Y-52328833D01*
X167545187Y-52328833D02*
X167468997Y-52252643D01*
X167468997Y-52252643D02*
X167354711Y-52214548D01*
X167354711Y-52214548D02*
X167278520Y-52214548D01*
X167278520Y-52214548D02*
X167164235Y-52252643D01*
X167164235Y-52252643D02*
X167126139Y-52290738D01*
X168916619Y-69994552D02*
X168840429Y-69994552D01*
X168840429Y-69994552D02*
X168764238Y-70032647D01*
X168764238Y-70032647D02*
X168726143Y-70070742D01*
X168726143Y-70070742D02*
X168688048Y-70146933D01*
X168688048Y-70146933D02*
X168649953Y-70299314D01*
X168649953Y-70299314D02*
X168649953Y-70489790D01*
X168649953Y-70489790D02*
X168688048Y-70642171D01*
X168688048Y-70642171D02*
X168726143Y-70718361D01*
X168726143Y-70718361D02*
X168764238Y-70756457D01*
X168764238Y-70756457D02*
X168840429Y-70794552D01*
X168840429Y-70794552D02*
X168916619Y-70794552D01*
X168916619Y-70794552D02*
X168992810Y-70756457D01*
X168992810Y-70756457D02*
X169030905Y-70718361D01*
X169030905Y-70718361D02*
X169069000Y-70642171D01*
X169069000Y-70642171D02*
X169107096Y-70489790D01*
X169107096Y-70489790D02*
X169107096Y-70299314D01*
X169107096Y-70299314D02*
X169069000Y-70146933D01*
X169069000Y-70146933D02*
X169030905Y-70070742D01*
X169030905Y-70070742D02*
X168992810Y-70032647D01*
X168992810Y-70032647D02*
X168916619Y-69994552D01*
X167888048Y-70794552D02*
X168345191Y-70794552D01*
X168116619Y-70794552D02*
X168116619Y-69994552D01*
X168116619Y-69994552D02*
X168192810Y-70108837D01*
X168192810Y-70108837D02*
X168269000Y-70185028D01*
X168269000Y-70185028D02*
X168345191Y-70223123D01*
X167392809Y-69994552D02*
X167316619Y-69994552D01*
X167316619Y-69994552D02*
X167240428Y-70032647D01*
X167240428Y-70032647D02*
X167202333Y-70070742D01*
X167202333Y-70070742D02*
X167164238Y-70146933D01*
X167164238Y-70146933D02*
X167126143Y-70299314D01*
X167126143Y-70299314D02*
X167126143Y-70489790D01*
X167126143Y-70489790D02*
X167164238Y-70642171D01*
X167164238Y-70642171D02*
X167202333Y-70718361D01*
X167202333Y-70718361D02*
X167240428Y-70756457D01*
X167240428Y-70756457D02*
X167316619Y-70794552D01*
X167316619Y-70794552D02*
X167392809Y-70794552D01*
X167392809Y-70794552D02*
X167469000Y-70756457D01*
X167469000Y-70756457D02*
X167507095Y-70718361D01*
X167507095Y-70718361D02*
X167545190Y-70642171D01*
X167545190Y-70642171D02*
X167583286Y-70489790D01*
X167583286Y-70489790D02*
X167583286Y-70299314D01*
X167583286Y-70299314D02*
X167545190Y-70146933D01*
X167545190Y-70146933D02*
X167507095Y-70070742D01*
X167507095Y-70070742D02*
X167469000Y-70032647D01*
X167469000Y-70032647D02*
X167392809Y-69994552D01*
X168605526Y-50474548D02*
X168872193Y-50093595D01*
X169062669Y-50474548D02*
X169062669Y-49674548D01*
X169062669Y-49674548D02*
X168757907Y-49674548D01*
X168757907Y-49674548D02*
X168681717Y-49712643D01*
X168681717Y-49712643D02*
X168643622Y-49750738D01*
X168643622Y-49750738D02*
X168605526Y-49826929D01*
X168605526Y-49826929D02*
X168605526Y-49941214D01*
X168605526Y-49941214D02*
X168643622Y-50017405D01*
X168643622Y-50017405D02*
X168681717Y-50055500D01*
X168681717Y-50055500D02*
X168757907Y-50093595D01*
X168757907Y-50093595D02*
X169062669Y-50093595D01*
X168300765Y-50436453D02*
X168186479Y-50474548D01*
X168186479Y-50474548D02*
X167996003Y-50474548D01*
X167996003Y-50474548D02*
X167919812Y-50436453D01*
X167919812Y-50436453D02*
X167881717Y-50398357D01*
X167881717Y-50398357D02*
X167843622Y-50322167D01*
X167843622Y-50322167D02*
X167843622Y-50245976D01*
X167843622Y-50245976D02*
X167881717Y-50169786D01*
X167881717Y-50169786D02*
X167919812Y-50131691D01*
X167919812Y-50131691D02*
X167996003Y-50093595D01*
X167996003Y-50093595D02*
X168148384Y-50055500D01*
X168148384Y-50055500D02*
X168224574Y-50017405D01*
X168224574Y-50017405D02*
X168262669Y-49979310D01*
X168262669Y-49979310D02*
X168300765Y-49903119D01*
X168300765Y-49903119D02*
X168300765Y-49826929D01*
X168300765Y-49826929D02*
X168262669Y-49750738D01*
X168262669Y-49750738D02*
X168224574Y-49712643D01*
X168224574Y-49712643D02*
X168148384Y-49674548D01*
X168148384Y-49674548D02*
X167957907Y-49674548D01*
X167957907Y-49674548D02*
X167843622Y-49712643D01*
X167615050Y-49674548D02*
X167157907Y-49674548D01*
X167386479Y-50474548D02*
X167386479Y-49674548D01*
X157842238Y-57364552D02*
X157766048Y-57364552D01*
X157766048Y-57364552D02*
X157689857Y-57402647D01*
X157689857Y-57402647D02*
X157651762Y-57440742D01*
X157651762Y-57440742D02*
X157613667Y-57516933D01*
X157613667Y-57516933D02*
X157575572Y-57669314D01*
X157575572Y-57669314D02*
X157575572Y-57859790D01*
X157575572Y-57859790D02*
X157613667Y-58012171D01*
X157613667Y-58012171D02*
X157651762Y-58088361D01*
X157651762Y-58088361D02*
X157689857Y-58126457D01*
X157689857Y-58126457D02*
X157766048Y-58164552D01*
X157766048Y-58164552D02*
X157842238Y-58164552D01*
X157842238Y-58164552D02*
X157918429Y-58126457D01*
X157918429Y-58126457D02*
X157956524Y-58088361D01*
X157956524Y-58088361D02*
X157994619Y-58012171D01*
X157994619Y-58012171D02*
X158032715Y-57859790D01*
X158032715Y-57859790D02*
X158032715Y-57669314D01*
X158032715Y-57669314D02*
X157994619Y-57516933D01*
X157994619Y-57516933D02*
X157956524Y-57440742D01*
X157956524Y-57440742D02*
X157918429Y-57402647D01*
X157918429Y-57402647D02*
X157842238Y-57364552D01*
X157270810Y-57440742D02*
X157232714Y-57402647D01*
X157232714Y-57402647D02*
X157156524Y-57364552D01*
X157156524Y-57364552D02*
X156966048Y-57364552D01*
X156966048Y-57364552D02*
X156889857Y-57402647D01*
X156889857Y-57402647D02*
X156851762Y-57440742D01*
X156851762Y-57440742D02*
X156813667Y-57516933D01*
X156813667Y-57516933D02*
X156813667Y-57593123D01*
X156813667Y-57593123D02*
X156851762Y-57707409D01*
X156851762Y-57707409D02*
X157308905Y-58164552D01*
X157308905Y-58164552D02*
X156813667Y-58164552D01*
X156318428Y-57364552D02*
X156242238Y-57364552D01*
X156242238Y-57364552D02*
X156166047Y-57402647D01*
X156166047Y-57402647D02*
X156127952Y-57440742D01*
X156127952Y-57440742D02*
X156089857Y-57516933D01*
X156089857Y-57516933D02*
X156051762Y-57669314D01*
X156051762Y-57669314D02*
X156051762Y-57859790D01*
X156051762Y-57859790D02*
X156089857Y-58012171D01*
X156089857Y-58012171D02*
X156127952Y-58088361D01*
X156127952Y-58088361D02*
X156166047Y-58126457D01*
X156166047Y-58126457D02*
X156242238Y-58164552D01*
X156242238Y-58164552D02*
X156318428Y-58164552D01*
X156318428Y-58164552D02*
X156394619Y-58126457D01*
X156394619Y-58126457D02*
X156432714Y-58088361D01*
X156432714Y-58088361D02*
X156470809Y-58012171D01*
X156470809Y-58012171D02*
X156508905Y-57859790D01*
X156508905Y-57859790D02*
X156508905Y-57669314D01*
X156508905Y-57669314D02*
X156470809Y-57516933D01*
X156470809Y-57516933D02*
X156432714Y-57440742D01*
X156432714Y-57440742D02*
X156394619Y-57402647D01*
X156394619Y-57402647D02*
X156318428Y-57364552D01*
X168649956Y-65714552D02*
X169107099Y-65714552D01*
X168878527Y-65714552D02*
X168878527Y-64914552D01*
X168878527Y-64914552D02*
X168954718Y-65028837D01*
X168954718Y-65028837D02*
X169030908Y-65105028D01*
X169030908Y-65105028D02*
X169107099Y-65143123D01*
X167888051Y-65714552D02*
X168345194Y-65714552D01*
X168116622Y-65714552D02*
X168116622Y-64914552D01*
X168116622Y-64914552D02*
X168192813Y-65028837D01*
X168192813Y-65028837D02*
X168269003Y-65105028D01*
X168269003Y-65105028D02*
X168345194Y-65143123D01*
X167621384Y-64914552D02*
X167126146Y-64914552D01*
X167126146Y-64914552D02*
X167392812Y-65219314D01*
X167392812Y-65219314D02*
X167278527Y-65219314D01*
X167278527Y-65219314D02*
X167202336Y-65257409D01*
X167202336Y-65257409D02*
X167164241Y-65295504D01*
X167164241Y-65295504D02*
X167126146Y-65371695D01*
X167126146Y-65371695D02*
X167126146Y-65562171D01*
X167126146Y-65562171D02*
X167164241Y-65638361D01*
X167164241Y-65638361D02*
X167202336Y-65676457D01*
X167202336Y-65676457D02*
X167278527Y-65714552D01*
X167278527Y-65714552D02*
X167507098Y-65714552D01*
X167507098Y-65714552D02*
X167583289Y-65676457D01*
X167583289Y-65676457D02*
X167621384Y-65638361D01*
X168916614Y-54754561D02*
X168840424Y-54754561D01*
X168840424Y-54754561D02*
X168764233Y-54792656D01*
X168764233Y-54792656D02*
X168726138Y-54830751D01*
X168726138Y-54830751D02*
X168688043Y-54906942D01*
X168688043Y-54906942D02*
X168649948Y-55059323D01*
X168649948Y-55059323D02*
X168649948Y-55249799D01*
X168649948Y-55249799D02*
X168688043Y-55402180D01*
X168688043Y-55402180D02*
X168726138Y-55478370D01*
X168726138Y-55478370D02*
X168764233Y-55516466D01*
X168764233Y-55516466D02*
X168840424Y-55554561D01*
X168840424Y-55554561D02*
X168916614Y-55554561D01*
X168916614Y-55554561D02*
X168992805Y-55516466D01*
X168992805Y-55516466D02*
X169030900Y-55478370D01*
X169030900Y-55478370D02*
X169068995Y-55402180D01*
X169068995Y-55402180D02*
X169107091Y-55249799D01*
X169107091Y-55249799D02*
X169107091Y-55059323D01*
X169107091Y-55059323D02*
X169068995Y-54906942D01*
X169068995Y-54906942D02*
X169030900Y-54830751D01*
X169030900Y-54830751D02*
X168992805Y-54792656D01*
X168992805Y-54792656D02*
X168916614Y-54754561D01*
X168383281Y-54754561D02*
X167888043Y-54754561D01*
X167888043Y-54754561D02*
X168154709Y-55059323D01*
X168154709Y-55059323D02*
X168040424Y-55059323D01*
X168040424Y-55059323D02*
X167964233Y-55097418D01*
X167964233Y-55097418D02*
X167926138Y-55135513D01*
X167926138Y-55135513D02*
X167888043Y-55211704D01*
X167888043Y-55211704D02*
X167888043Y-55402180D01*
X167888043Y-55402180D02*
X167926138Y-55478370D01*
X167926138Y-55478370D02*
X167964233Y-55516466D01*
X167964233Y-55516466D02*
X168040424Y-55554561D01*
X168040424Y-55554561D02*
X168268995Y-55554561D01*
X168268995Y-55554561D02*
X168345186Y-55516466D01*
X168345186Y-55516466D02*
X168383281Y-55478370D01*
X167126138Y-55554561D02*
X167583281Y-55554561D01*
X167354709Y-55554561D02*
X167354709Y-54754561D01*
X167354709Y-54754561D02*
X167430900Y-54868846D01*
X167430900Y-54868846D02*
X167507090Y-54945037D01*
X167507090Y-54945037D02*
X167583281Y-54983132D01*
X157842243Y-47064554D02*
X157766053Y-47064554D01*
X157766053Y-47064554D02*
X157689862Y-47102649D01*
X157689862Y-47102649D02*
X157651767Y-47140744D01*
X157651767Y-47140744D02*
X157613672Y-47216935D01*
X157613672Y-47216935D02*
X157575577Y-47369316D01*
X157575577Y-47369316D02*
X157575577Y-47559792D01*
X157575577Y-47559792D02*
X157613672Y-47712173D01*
X157613672Y-47712173D02*
X157651767Y-47788363D01*
X157651767Y-47788363D02*
X157689862Y-47826459D01*
X157689862Y-47826459D02*
X157766053Y-47864554D01*
X157766053Y-47864554D02*
X157842243Y-47864554D01*
X157842243Y-47864554D02*
X157918434Y-47826459D01*
X157918434Y-47826459D02*
X157956529Y-47788363D01*
X157956529Y-47788363D02*
X157994624Y-47712173D01*
X157994624Y-47712173D02*
X158032720Y-47559792D01*
X158032720Y-47559792D02*
X158032720Y-47369316D01*
X158032720Y-47369316D02*
X157994624Y-47216935D01*
X157994624Y-47216935D02*
X157956529Y-47140744D01*
X157956529Y-47140744D02*
X157918434Y-47102649D01*
X157918434Y-47102649D02*
X157842243Y-47064554D01*
X157080338Y-47064554D02*
X157004148Y-47064554D01*
X157004148Y-47064554D02*
X156927957Y-47102649D01*
X156927957Y-47102649D02*
X156889862Y-47140744D01*
X156889862Y-47140744D02*
X156851767Y-47216935D01*
X156851767Y-47216935D02*
X156813672Y-47369316D01*
X156813672Y-47369316D02*
X156813672Y-47559792D01*
X156813672Y-47559792D02*
X156851767Y-47712173D01*
X156851767Y-47712173D02*
X156889862Y-47788363D01*
X156889862Y-47788363D02*
X156927957Y-47826459D01*
X156927957Y-47826459D02*
X157004148Y-47864554D01*
X157004148Y-47864554D02*
X157080338Y-47864554D01*
X157080338Y-47864554D02*
X157156529Y-47826459D01*
X157156529Y-47826459D02*
X157194624Y-47788363D01*
X157194624Y-47788363D02*
X157232719Y-47712173D01*
X157232719Y-47712173D02*
X157270815Y-47559792D01*
X157270815Y-47559792D02*
X157270815Y-47369316D01*
X157270815Y-47369316D02*
X157232719Y-47216935D01*
X157232719Y-47216935D02*
X157194624Y-47140744D01*
X157194624Y-47140744D02*
X157156529Y-47102649D01*
X157156529Y-47102649D02*
X157080338Y-47064554D01*
X156356529Y-47407411D02*
X156432719Y-47369316D01*
X156432719Y-47369316D02*
X156470814Y-47331220D01*
X156470814Y-47331220D02*
X156508910Y-47255030D01*
X156508910Y-47255030D02*
X156508910Y-47216935D01*
X156508910Y-47216935D02*
X156470814Y-47140744D01*
X156470814Y-47140744D02*
X156432719Y-47102649D01*
X156432719Y-47102649D02*
X156356529Y-47064554D01*
X156356529Y-47064554D02*
X156204148Y-47064554D01*
X156204148Y-47064554D02*
X156127957Y-47102649D01*
X156127957Y-47102649D02*
X156089862Y-47140744D01*
X156089862Y-47140744D02*
X156051767Y-47216935D01*
X156051767Y-47216935D02*
X156051767Y-47255030D01*
X156051767Y-47255030D02*
X156089862Y-47331220D01*
X156089862Y-47331220D02*
X156127957Y-47369316D01*
X156127957Y-47369316D02*
X156204148Y-47407411D01*
X156204148Y-47407411D02*
X156356529Y-47407411D01*
X156356529Y-47407411D02*
X156432719Y-47445506D01*
X156432719Y-47445506D02*
X156470814Y-47483601D01*
X156470814Y-47483601D02*
X156508910Y-47559792D01*
X156508910Y-47559792D02*
X156508910Y-47712173D01*
X156508910Y-47712173D02*
X156470814Y-47788363D01*
X156470814Y-47788363D02*
X156432719Y-47826459D01*
X156432719Y-47826459D02*
X156356529Y-47864554D01*
X156356529Y-47864554D02*
X156204148Y-47864554D01*
X156204148Y-47864554D02*
X156127957Y-47826459D01*
X156127957Y-47826459D02*
X156089862Y-47788363D01*
X156089862Y-47788363D02*
X156051767Y-47712173D01*
X156051767Y-47712173D02*
X156051767Y-47559792D01*
X156051767Y-47559792D02*
X156089862Y-47483601D01*
X156089862Y-47483601D02*
X156127957Y-47445506D01*
X156127957Y-47445506D02*
X156204148Y-47407411D01*
X168643619Y-47172647D02*
X168719809Y-47134552D01*
X168719809Y-47134552D02*
X168834095Y-47134552D01*
X168834095Y-47134552D02*
X168948381Y-47172647D01*
X168948381Y-47172647D02*
X169024571Y-47248837D01*
X169024571Y-47248837D02*
X169062666Y-47325028D01*
X169062666Y-47325028D02*
X169100762Y-47477409D01*
X169100762Y-47477409D02*
X169100762Y-47591695D01*
X169100762Y-47591695D02*
X169062666Y-47744076D01*
X169062666Y-47744076D02*
X169024571Y-47820266D01*
X169024571Y-47820266D02*
X168948381Y-47896457D01*
X168948381Y-47896457D02*
X168834095Y-47934552D01*
X168834095Y-47934552D02*
X168757904Y-47934552D01*
X168757904Y-47934552D02*
X168643619Y-47896457D01*
X168643619Y-47896457D02*
X168605523Y-47858361D01*
X168605523Y-47858361D02*
X168605523Y-47591695D01*
X168605523Y-47591695D02*
X168757904Y-47591695D01*
X168262666Y-47934552D02*
X168262666Y-47134552D01*
X168262666Y-47134552D02*
X167805523Y-47934552D01*
X167805523Y-47934552D02*
X167805523Y-47134552D01*
X167424571Y-47934552D02*
X167424571Y-47134552D01*
X167424571Y-47134552D02*
X167234095Y-47134552D01*
X167234095Y-47134552D02*
X167119809Y-47172647D01*
X167119809Y-47172647D02*
X167043619Y-47248837D01*
X167043619Y-47248837D02*
X167005524Y-47325028D01*
X167005524Y-47325028D02*
X166967428Y-47477409D01*
X166967428Y-47477409D02*
X166967428Y-47591695D01*
X166967428Y-47591695D02*
X167005524Y-47744076D01*
X167005524Y-47744076D02*
X167043619Y-47820266D01*
X167043619Y-47820266D02*
X167119809Y-47896457D01*
X167119809Y-47896457D02*
X167234095Y-47934552D01*
X167234095Y-47934552D02*
X167424571Y-47934552D01*
X157727952Y-52252647D02*
X157804142Y-52214552D01*
X157804142Y-52214552D02*
X157918428Y-52214552D01*
X157918428Y-52214552D02*
X158032714Y-52252647D01*
X158032714Y-52252647D02*
X158108904Y-52328837D01*
X158108904Y-52328837D02*
X158146999Y-52405028D01*
X158146999Y-52405028D02*
X158185095Y-52557409D01*
X158185095Y-52557409D02*
X158185095Y-52671695D01*
X158185095Y-52671695D02*
X158146999Y-52824076D01*
X158146999Y-52824076D02*
X158108904Y-52900266D01*
X158108904Y-52900266D02*
X158032714Y-52976457D01*
X158032714Y-52976457D02*
X157918428Y-53014552D01*
X157918428Y-53014552D02*
X157842237Y-53014552D01*
X157842237Y-53014552D02*
X157727952Y-52976457D01*
X157727952Y-52976457D02*
X157689856Y-52938361D01*
X157689856Y-52938361D02*
X157689856Y-52671695D01*
X157689856Y-52671695D02*
X157842237Y-52671695D01*
X157346999Y-53014552D02*
X157346999Y-52214552D01*
X157346999Y-52214552D02*
X156889856Y-53014552D01*
X156889856Y-53014552D02*
X156889856Y-52214552D01*
X156508904Y-53014552D02*
X156508904Y-52214552D01*
X156508904Y-52214552D02*
X156318428Y-52214552D01*
X156318428Y-52214552D02*
X156204142Y-52252647D01*
X156204142Y-52252647D02*
X156127952Y-52328837D01*
X156127952Y-52328837D02*
X156089857Y-52405028D01*
X156089857Y-52405028D02*
X156051761Y-52557409D01*
X156051761Y-52557409D02*
X156051761Y-52671695D01*
X156051761Y-52671695D02*
X156089857Y-52824076D01*
X156089857Y-52824076D02*
X156127952Y-52900266D01*
X156127952Y-52900266D02*
X156204142Y-52976457D01*
X156204142Y-52976457D02*
X156318428Y-53014552D01*
X156318428Y-53014552D02*
X156508904Y-53014552D01*
X157842238Y-62374552D02*
X157766048Y-62374552D01*
X157766048Y-62374552D02*
X157689857Y-62412647D01*
X157689857Y-62412647D02*
X157651762Y-62450742D01*
X157651762Y-62450742D02*
X157613667Y-62526933D01*
X157613667Y-62526933D02*
X157575572Y-62679314D01*
X157575572Y-62679314D02*
X157575572Y-62869790D01*
X157575572Y-62869790D02*
X157613667Y-63022171D01*
X157613667Y-63022171D02*
X157651762Y-63098361D01*
X157651762Y-63098361D02*
X157689857Y-63136457D01*
X157689857Y-63136457D02*
X157766048Y-63174552D01*
X157766048Y-63174552D02*
X157842238Y-63174552D01*
X157842238Y-63174552D02*
X157918429Y-63136457D01*
X157918429Y-63136457D02*
X157956524Y-63098361D01*
X157956524Y-63098361D02*
X157994619Y-63022171D01*
X157994619Y-63022171D02*
X158032715Y-62869790D01*
X158032715Y-62869790D02*
X158032715Y-62679314D01*
X158032715Y-62679314D02*
X157994619Y-62526933D01*
X157994619Y-62526933D02*
X157956524Y-62450742D01*
X157956524Y-62450742D02*
X157918429Y-62412647D01*
X157918429Y-62412647D02*
X157842238Y-62374552D01*
X157270810Y-62450742D02*
X157232714Y-62412647D01*
X157232714Y-62412647D02*
X157156524Y-62374552D01*
X157156524Y-62374552D02*
X156966048Y-62374552D01*
X156966048Y-62374552D02*
X156889857Y-62412647D01*
X156889857Y-62412647D02*
X156851762Y-62450742D01*
X156851762Y-62450742D02*
X156813667Y-62526933D01*
X156813667Y-62526933D02*
X156813667Y-62603123D01*
X156813667Y-62603123D02*
X156851762Y-62717409D01*
X156851762Y-62717409D02*
X157308905Y-63174552D01*
X157308905Y-63174552D02*
X156813667Y-63174552D01*
X156127952Y-62641218D02*
X156127952Y-63174552D01*
X156318428Y-62336457D02*
X156508905Y-62907885D01*
X156508905Y-62907885D02*
X156013666Y-62907885D01*
%TO.C,T1*%
X172479430Y-86302251D02*
X172479433Y-92902253D01*
X172479433Y-92902253D02*
X175329424Y-92902252D01*
X175329430Y-86302251D02*
X172479430Y-86302251D01*
X175329430Y-89602251D02*
X175329424Y-92902252D01*
X175329430Y-89602251D02*
X175329430Y-86302251D01*
X175329430Y-91552251D02*
X175329430Y-87652251D01*
D11*
%TO.C,D29*%
X175009343Y-131572132D02*
X175238767Y-131899795D01*
X175238767Y-131899795D02*
X174788241Y-132215261D01*
X175238767Y-131899795D02*
X175689308Y-131584327D01*
X175238767Y-131899795D02*
X175910580Y-132161853D01*
X175255258Y-132620715D02*
X175238767Y-131899795D01*
X175582919Y-132391284D02*
X175869707Y-132800860D01*
X175910580Y-132161853D02*
X175255258Y-132620715D01*
%TO.C,D17*%
X122829417Y-106842254D02*
X123229417Y-106842255D01*
X123229417Y-106842255D02*
X123229417Y-106292248D01*
X123229417Y-106842255D02*
X123229419Y-107392255D01*
X123229417Y-106842255D02*
X123829417Y-106442254D01*
X123829417Y-106442254D02*
X123829417Y-107242254D01*
X123829417Y-107242254D02*
X123229417Y-106842255D01*
X123829422Y-106842254D02*
X124329417Y-106842254D01*
%TO.C,D7*%
X68829417Y-70342252D02*
X69229417Y-70342253D01*
X69229417Y-70342253D02*
X69229417Y-69792246D01*
X69229417Y-70342253D02*
X69229419Y-70892253D01*
X69229417Y-70342253D02*
X69829417Y-69942252D01*
X69829417Y-69942252D02*
X69829417Y-70742252D01*
X69829417Y-70742252D02*
X69229417Y-70342253D01*
X69829422Y-70342252D02*
X70329417Y-70342252D01*
%TO.C,D11*%
X86829404Y-67842259D02*
X87229404Y-67842260D01*
X87229404Y-67842260D02*
X87229404Y-67292253D01*
X87229404Y-67842260D02*
X87229406Y-68392260D01*
X87229404Y-67842260D02*
X87829404Y-67442259D01*
X87829404Y-67442259D02*
X87829404Y-68242259D01*
X87829404Y-68242259D02*
X87229404Y-67842260D01*
X87829409Y-67842259D02*
X88329404Y-67842259D01*
%TO.C,D18*%
X122829420Y-89842260D02*
X123229420Y-89842261D01*
X123229420Y-89842261D02*
X123229420Y-89292254D01*
X123229420Y-89842261D02*
X123229422Y-90392261D01*
X123229420Y-89842261D02*
X123829420Y-89442260D01*
X123829420Y-89442260D02*
X123829420Y-90242260D01*
X123829420Y-90242260D02*
X123229420Y-89842261D01*
X123829425Y-89842260D02*
X124329420Y-89842260D01*
%TO.C,D25*%
X143510593Y-132290941D02*
X143857003Y-132490940D01*
X143857003Y-132490940D02*
X143582005Y-132967256D01*
X143857003Y-132490940D02*
X144132009Y-132014627D01*
X143857003Y-132490940D02*
X144576611Y-132444530D01*
X144176623Y-133137346D02*
X143857003Y-132490940D01*
X144376618Y-132790941D02*
X144809631Y-133040941D01*
X144576611Y-132444530D02*
X144176623Y-133137346D01*
%TO.C,D23*%
X140829417Y-55842245D02*
X141229417Y-55842246D01*
X141229417Y-55842246D02*
X141229417Y-55292239D01*
X141229417Y-55842246D02*
X141229419Y-56392246D01*
X141229417Y-55842246D02*
X141829417Y-55442245D01*
X141829417Y-55442245D02*
X141829417Y-56242245D01*
X141829417Y-56242245D02*
X141229417Y-55842246D01*
X141829422Y-55842245D02*
X142329417Y-55842245D01*
%TO.C,D3*%
X47846327Y-75917864D02*
X48245359Y-75889961D01*
X48245359Y-75889961D02*
X48206989Y-75341303D01*
X48245359Y-75889961D02*
X48283717Y-76438622D01*
X48245359Y-75889961D02*
X48815988Y-75449082D01*
X48815988Y-75449082D02*
X48871794Y-76247134D01*
X48843891Y-75848108D02*
X49342673Y-75813230D01*
X48871794Y-76247134D02*
X48245359Y-75889961D01*
%TO.C,D1*%
X50218048Y-109835025D02*
X50617080Y-109807122D01*
X50617080Y-109807122D02*
X50578710Y-109258464D01*
X50617080Y-109807122D02*
X50655438Y-110355783D01*
X50617080Y-109807122D02*
X51187709Y-109366243D01*
X51187709Y-109366243D02*
X51243515Y-110164295D01*
X51215612Y-109765269D02*
X51714394Y-109730391D01*
X51243515Y-110164295D02*
X50617080Y-109807122D01*
%TO.C,D21*%
X140829433Y-89842241D02*
X141229433Y-89842242D01*
X141229433Y-89842242D02*
X141229433Y-89292235D01*
X141229433Y-89842242D02*
X141229435Y-90392242D01*
X141229433Y-89842242D02*
X141829433Y-89442241D01*
X141829433Y-89442241D02*
X141829433Y-90242241D01*
X141829433Y-90242241D02*
X141229433Y-89842242D01*
X141829438Y-89842241D02*
X142329433Y-89842241D01*
%TO.C,D28*%
X160733013Y-117664176D02*
X161060674Y-117893604D01*
X161060674Y-117893604D02*
X160745211Y-118344141D01*
X161060674Y-117893604D02*
X161376144Y-117443068D01*
X161060674Y-117893604D02*
X161781595Y-117910091D01*
X161322739Y-118565408D02*
X161060674Y-117893604D01*
X161552165Y-118237752D02*
X161961741Y-118524540D01*
X161781595Y-117910091D02*
X161322739Y-118565408D01*
D12*
%TO.C,B1*%
X172129414Y-82942250D02*
X172129414Y-78242250D01*
X173704409Y-83042253D02*
X174254414Y-83042250D01*
X173704414Y-78142250D02*
X174254419Y-78142247D01*
X175829414Y-79167250D02*
X175829414Y-78242250D01*
X175829414Y-82942250D02*
X175829415Y-82017242D01*
D11*
%TO.C,D5*%
X68829410Y-104342257D02*
X69229410Y-104342258D01*
X69229410Y-104342258D02*
X69229410Y-103792251D01*
X69229410Y-104342258D02*
X69229412Y-104892258D01*
X69229410Y-104342258D02*
X69829410Y-103942257D01*
X69829410Y-103942257D02*
X69829410Y-104742257D01*
X69829410Y-104742257D02*
X69229410Y-104342258D01*
X69829415Y-104342257D02*
X70329410Y-104342257D01*
%TO.C,D2*%
X49032198Y-92876437D02*
X49431230Y-92848534D01*
X49431230Y-92848534D02*
X49392860Y-92299876D01*
X49431230Y-92848534D02*
X49469588Y-93397195D01*
X49431230Y-92848534D02*
X50001859Y-92407655D01*
X50001859Y-92407655D02*
X50057665Y-93205707D01*
X50029762Y-92806681D02*
X50528544Y-92771803D01*
X50057665Y-93205707D02*
X49431230Y-92848534D01*
D10*
%TO.C,JST1*%
X153329416Y-75092244D02*
X153329416Y-80992244D01*
X153329416Y-80992244D02*
X160929414Y-80992246D01*
X157829416Y-76792244D02*
X157829416Y-77292244D01*
X158079416Y-77042244D02*
X157579414Y-77042244D01*
X159329416Y-80292245D02*
X159329417Y-75792238D01*
X159329417Y-75792238D02*
X160929414Y-75792245D01*
X160929414Y-75792245D02*
X160929418Y-75092243D01*
X160929414Y-80992246D02*
X160929416Y-80292244D01*
X160929416Y-80292244D02*
X159329416Y-80292245D01*
X160929418Y-75092243D02*
X153329416Y-75092244D01*
D11*
%TO.C,D26*%
X158944742Y-144901722D02*
X159201861Y-145208139D01*
X159201861Y-145208139D02*
X158780533Y-145561673D01*
X159201861Y-145208139D02*
X159623184Y-144854607D01*
X159201861Y-145208139D02*
X159893948Y-145410651D01*
X159281112Y-145924880D02*
X159201861Y-145208139D01*
X159587528Y-145667765D02*
X159908924Y-146050788D01*
X159893948Y-145410651D02*
X159281112Y-145924880D01*
%TO.C,D9*%
X86829428Y-101842246D02*
X87229428Y-101842247D01*
X87229428Y-101842247D02*
X87229428Y-101292240D01*
X87229428Y-101842247D02*
X87229430Y-102392247D01*
X87229428Y-101842247D02*
X87829428Y-101442246D01*
X87829428Y-101442246D02*
X87829428Y-102242246D01*
X87829428Y-102242246D02*
X87229428Y-101842247D01*
X87829433Y-101842246D02*
X88329428Y-101842246D01*
%TO.C,D16*%
X104829417Y-53342249D02*
X105229417Y-53342250D01*
X105229417Y-53342250D02*
X105229417Y-52792243D01*
X105229417Y-53342250D02*
X105229419Y-53892250D01*
X105229417Y-53342250D02*
X105829417Y-52942249D01*
X105829417Y-52942249D02*
X105829417Y-53742249D01*
X105829417Y-53742249D02*
X105229417Y-53342250D01*
X105829422Y-53342249D02*
X106329417Y-53342249D01*
%TO.C,D8*%
X68829421Y-53342241D02*
X69229421Y-53342242D01*
X69229421Y-53342242D02*
X69229421Y-52792235D01*
X69229421Y-53342242D02*
X69229423Y-53892242D01*
X69229421Y-53342242D02*
X69829421Y-52942241D01*
X69829421Y-52942241D02*
X69829421Y-53742241D01*
X69829421Y-53742241D02*
X69229421Y-53342242D01*
X69829426Y-53342241D02*
X70329421Y-53342241D01*
%TO.C,D24*%
X124972563Y-125636051D02*
X125366493Y-125705509D01*
X125366493Y-125705509D02*
X125270983Y-126247155D01*
X125366493Y-125705509D02*
X125462000Y-125163865D01*
X125366493Y-125705509D02*
X126026827Y-125415778D01*
X125887912Y-126203622D02*
X125366493Y-125705509D01*
X125957374Y-125809697D02*
X126449775Y-125896523D01*
X126026827Y-125415778D02*
X125887912Y-126203622D01*
D13*
%TO.C,MCU1*%
X153689425Y-74242252D02*
X171469429Y-74242257D01*
X153689429Y-41222257D02*
X153689425Y-74242252D01*
X171469429Y-41222257D02*
X153689429Y-41222257D01*
X171469429Y-74242257D02*
X171469429Y-41222257D01*
D11*
%TO.C,D6*%
X68829413Y-87342262D02*
X69229413Y-87342263D01*
X69229413Y-87342263D02*
X69229413Y-86792256D01*
X69229413Y-87342263D02*
X69229415Y-87892263D01*
X69229413Y-87342263D02*
X69829413Y-86942262D01*
X69829413Y-86942262D02*
X69829413Y-87742262D01*
X69829413Y-87742262D02*
X69229413Y-87342263D01*
X69829418Y-87342262D02*
X70329413Y-87342262D01*
%TO.C,D14*%
X104829432Y-87342247D02*
X105229432Y-87342248D01*
X105229432Y-87342248D02*
X105229432Y-86792241D01*
X105229432Y-87342248D02*
X105229434Y-87892248D01*
X105229432Y-87342248D02*
X105829432Y-86942247D01*
X105829432Y-86942247D02*
X105829432Y-87742247D01*
X105829432Y-87742247D02*
X105229432Y-87342248D01*
X105829437Y-87342247D02*
X106329432Y-87342247D01*
%TO.C,D27*%
X142560880Y-109477764D02*
X142947255Y-109581291D01*
X142947255Y-109581291D02*
X142804902Y-110112552D01*
X142947255Y-109581291D02*
X143089601Y-109050028D01*
X142947255Y-109581291D02*
X143630332Y-109350212D01*
X143423274Y-110122949D02*
X142947255Y-109581291D01*
X143526807Y-109736582D02*
X144009768Y-109865992D01*
X143630332Y-109350212D02*
X143423274Y-110122949D01*
%TO.C,D15*%
X104829416Y-70342259D02*
X105229416Y-70342260D01*
X105229416Y-70342260D02*
X105229416Y-69792253D01*
X105229416Y-70342260D02*
X105229418Y-70892260D01*
X105229416Y-70342260D02*
X105829416Y-69942259D01*
X105829416Y-69942259D02*
X105829416Y-70742259D01*
X105829416Y-70742259D02*
X105229416Y-70342260D01*
X105829421Y-70342259D02*
X106329416Y-70342259D01*
%TO.C,D13*%
X104829437Y-104342241D02*
X105229437Y-104342242D01*
X105229437Y-104342242D02*
X105229437Y-103792235D01*
X105229437Y-104342242D02*
X105229439Y-104892242D01*
X105229437Y-104342242D02*
X105829437Y-103942241D01*
X105829437Y-103942241D02*
X105829437Y-104742241D01*
X105829437Y-104742241D02*
X105229437Y-104342242D01*
X105829442Y-104342241D02*
X106329437Y-104342241D01*
%TO.C,D19*%
X122829407Y-72842235D02*
X123229407Y-72842236D01*
X123229407Y-72842236D02*
X123229407Y-72292229D01*
X123229407Y-72842236D02*
X123229409Y-73392236D01*
X123229407Y-72842236D02*
X123829407Y-72442235D01*
X123829407Y-72442235D02*
X123829407Y-73242235D01*
X123829407Y-73242235D02*
X123229407Y-72842236D01*
X123829412Y-72842235D02*
X124329407Y-72842235D01*
%TO.C,D12*%
X86829415Y-50842252D02*
X87229415Y-50842253D01*
X87229415Y-50842253D02*
X87229415Y-50292246D01*
X87229415Y-50842253D02*
X87229417Y-51392253D01*
X87229415Y-50842253D02*
X87829415Y-50442252D01*
X87829415Y-50442252D02*
X87829415Y-51242252D01*
X87829415Y-51242252D02*
X87229415Y-50842253D01*
X87829420Y-50842252D02*
X88329415Y-50842252D01*
%TO.C,D22*%
X140829424Y-72842241D02*
X141229424Y-72842242D01*
X141229424Y-72842242D02*
X141229424Y-72292235D01*
X141229424Y-72842242D02*
X141229426Y-73392242D01*
X141229424Y-72842242D02*
X141829424Y-72442241D01*
X141829424Y-72442241D02*
X141829424Y-73242241D01*
X141829424Y-73242241D02*
X141229424Y-72842242D01*
X141829429Y-72842241D02*
X142329424Y-72842241D01*
%TO.C,D4*%
X46660463Y-58959269D02*
X47059495Y-58931366D01*
X47059495Y-58931366D02*
X47021125Y-58382708D01*
X47059495Y-58931366D02*
X47097853Y-59480027D01*
X47059495Y-58931366D02*
X47630124Y-58490487D01*
X47630124Y-58490487D02*
X47685930Y-59288539D01*
X47658027Y-58889513D02*
X48156809Y-58854635D01*
X47685930Y-59288539D02*
X47059495Y-58931366D01*
%TO.C,D10*%
X86829427Y-84842260D02*
X87229427Y-84842261D01*
X87229427Y-84842261D02*
X87229427Y-84292254D01*
X87229427Y-84842261D02*
X87229429Y-85392261D01*
X87229427Y-84842261D02*
X87829427Y-84442260D01*
X87829427Y-84442260D02*
X87829427Y-85242260D01*
X87829427Y-85242260D02*
X87229427Y-84842261D01*
X87829432Y-84842260D02*
X88329427Y-84842260D01*
%TO.C,D20*%
X122829414Y-55842236D02*
X123229414Y-55842237D01*
X123229414Y-55842237D02*
X123229414Y-55292230D01*
X123229414Y-55842237D02*
X123229416Y-56392237D01*
X123229414Y-55842237D02*
X123829414Y-55442236D01*
X123829414Y-55442236D02*
X123829414Y-56242236D01*
X123829414Y-56242236D02*
X123229414Y-55842237D01*
X123829419Y-55842236D02*
X124329414Y-55842236D01*
%TD*%
D14*
%TO.C,MCU1*%
X154959434Y-45032257D03*
X154959428Y-47572255D03*
X154959429Y-50112256D03*
X154959429Y-52652257D03*
X154959431Y-55192256D03*
X154959429Y-57732256D03*
X154959430Y-60272259D03*
X154959427Y-62812260D03*
X154959431Y-65352256D03*
X154959429Y-67892259D03*
X154959426Y-70432255D03*
X154959433Y-72972255D03*
X170199424Y-72972257D03*
X170199430Y-70432259D03*
X170199429Y-67892258D03*
X170199429Y-65352257D03*
X170199427Y-62812258D03*
X170199429Y-60272258D03*
X170199428Y-57732255D03*
X170199431Y-55192254D03*
X170199427Y-52652258D03*
X170199429Y-50112255D03*
X170199432Y-47572259D03*
X170199425Y-45032259D03*
X157499429Y-67892257D03*
X160039432Y-67892252D03*
X162579429Y-67892257D03*
%TD*%
M02*
